<svg width="433" height="194" viewBox="0 0 433 194" fill="none" xmlns="http://www.w3.org/2000/svg">
<path d="M30.8053 66.633C30.5935 71.4948 30.1701 76.3565 29.6408 81.1126C28.8998 89.0394 24.4537 95.2751 15.6673 95.2751C6.66918 95.2751 2.32892 89.0394 1.5879 81.1126C-0.5293 61.0314 -0.5293 38.9421 1.5879 18.9666C2.32892 11.1455 6.66918 4.9098 15.6673 4.9098C24.4537 4.9098 28.8998 11.1455 29.6408 18.9666C30.1701 23.7227 30.5935 28.5845 30.8053 33.4462C36.2041 32.1779 42.1323 32.0722 47.5312 33.3405C47.8487 28.4788 48.1663 23.7227 48.6956 18.9666C49.5425 11.1455 53.8828 4.9098 62.6691 4.9098C71.5614 4.9098 76.0075 11.1455 76.8544 18.9666C78.8657 38.9421 78.8657 61.0314 76.8544 81.1126C76.0075 89.0394 71.5614 95.2751 62.6691 95.2751C53.8828 95.2751 49.5425 89.0394 48.6956 81.1126C48.1663 76.3565 47.8487 71.6004 47.5312 66.7387C42.1323 68.007 36.2041 67.9013 30.8053 66.633Z" fill="#6AC04D"/>
<path d="M94.9873 89.6447C85.4599 83.6203 80.8021 72.6285 80.5903 61.7424C80.3786 48.6368 86.0951 35.5312 96.9986 30.4581C102.292 28.0272 108.22 26.8646 113.83 26.8646C128.863 26.8646 141.777 34.2629 140.825 50.962C140.295 61.0026 135.214 65.653 124.522 68.1895C119.018 69.5635 110.549 69.1408 107.373 64.0676C106.844 63.2221 104.409 63.2221 104.726 65.2302C105.15 68.2952 110.443 72.5229 117.959 72.5229C119.335 72.5229 121.346 72.1001 122.617 71.783C132.144 69.0351 136.273 68.9294 139.237 77.7017C141.566 84.3602 137.966 89.3276 127.486 92.604C122.405 94.1894 119.123 94.4007 113.936 94.4007C107.161 94.4007 100.492 93.1325 94.9873 89.6447ZM109.067 50.0108C114.466 48.5311 118.912 48.7425 123.993 49.7994C125.687 50.0108 126.639 46.4173 124.205 45.9946C119.229 44.9376 113.513 44.0921 108.749 46.1002C106.632 46.9458 107.373 50.4336 109.067 50.0108Z" fill="#6AC04D"/>
<path d="M183.415 100.348C178.652 107.535 171.347 109.966 163.09 109.966C151.022 109.966 141.495 103.625 141.495 91.9987C141.495 81.4296 149.646 74.7712 160.444 72.6574C170.289 70.6492 177.17 66.2103 180.663 60.9257C182.039 58.8119 178.969 56.6981 177.593 58.7062C173.465 64.7306 165.208 69.1696 156.104 69.1696C147.847 69.1696 143.506 64.8363 143.506 58.9176C143.506 48.2429 157.374 41.373 173.782 41.373C190.614 41.373 200.247 47.2917 204.587 59.5518C208.293 69.9094 208.187 86.6085 205.223 99.5027C203.846 105.738 200.247 109.015 194.213 109.015C188.285 109.015 184.686 106.056 183.415 100.348ZM165.419 92.8442C170.501 92.2101 175.264 88.828 179.181 85.5516C181.298 83.8605 178.652 81.3239 177.276 82.3809C173.253 85.7629 169.442 87.9825 163.831 89.3564C162.138 89.7792 162.985 93.1613 165.419 92.8442Z" fill="#6AC04D"/>
<path d="M239.359 72.3883C246.769 73.1282 251.532 75.0306 251.532 83.3801C251.532 94.689 235.971 96.38 225.279 96.2744C216.281 96.1687 210.988 90.0386 210.247 82.1118C208.236 62.0307 208.236 39.9414 210.247 19.9659C210.988 12.1448 215.434 5.90905 224.432 5.90905C233.113 5.90905 237.559 12.1448 238.3 19.9659C239.888 35.3967 240.417 56.3234 239.359 72.3883Z" fill="#6AC04D"/>
<path d="M254.583 70.4379C252.148 70.4379 250.031 69.698 248.549 68.8525C245.055 66.8444 243.468 62.9338 243.468 57.3323C243.468 48.9827 247.808 46.7632 254.9 45.4949C255.006 44.121 255.006 42.747 255.112 41.373C255.959 30.5926 260.299 28.3731 268.662 28.3731C276.813 28.3731 281.154 30.5926 282.212 41.373C282.212 41.4787 282.212 41.5844 282.212 41.6901C286.658 41.4787 291.105 41.7958 293.645 43.2754C297.139 45.2835 298.726 49.2998 298.726 54.9014C298.726 63.0395 294.492 66.1046 286.976 66.9501L284.118 67.2672C284.118 69.8037 284.012 72.1289 283.694 74.0313C278.825 75.2996 274.802 79.3158 273.638 82.1695C273.002 83.9662 275.226 84.6003 275.861 83.3321C278.401 78.4703 283.271 75.511 288.14 75.9337C294.386 76.3565 300.314 81.1126 299.573 91.9987C298.938 101.405 288.776 106.584 277.343 106.584C256.912 106.584 255.218 92.8442 254.583 72.0232C254.583 71.4948 254.583 70.9663 254.583 70.4379Z" fill="#6AC04D"/>
<path d="M331.784 59.6094C331.467 65.211 331.149 70.8126 330.62 76.3085C329.773 84.2352 325.433 90.471 316.646 90.471C307.648 90.471 303.414 84.2352 302.567 76.3085C301.826 69.3329 301.508 62.463 301.296 55.4875V51.7883C301.191 39.7396 301.932 24.3088 302.673 12.9999C303.414 2.21949 307.86 0 316.223 0C324.374 0 328.714 2.21949 329.773 12.9999C330.09 16.0649 330.408 23.0405 330.514 26.634C326.491 29.699 324.162 32.8697 322.151 37.5201C321.092 40.1624 323.527 41.325 324.586 39.4225C325.644 37.203 327.02 35.0892 328.502 32.9754C333.054 26.7397 339.3 23.6746 346.075 23.6746C359.731 23.6746 366.506 35.1949 366.612 49.0404C366.718 58.7639 366.083 66.4793 365.024 76.3085C364.283 84.2352 359.837 90.471 351.051 90.471C342.053 90.471 337.818 84.2352 336.971 76.3085C336.336 70.8126 336.019 65.4224 335.807 59.9265C335.595 58.6582 334.642 58.1297 333.795 58.1297C332.949 58.1297 332.102 58.6582 331.784 59.6094Z" fill="#6AC04D"/>
<path d="M410.767 86.4644C411.931 84.0335 409.285 83.1879 408.332 84.9847C404.309 91.5375 399.44 94.9196 391.712 94.9196C379.115 94.9196 365.459 85.5132 367.258 69.0255L369.693 48.0988C370.434 41.7573 375.092 37.6354 381.443 37.6354H388.43C394.782 37.6354 397.958 41.7573 396.687 47.8874L392.029 70.0824C391.394 72.0905 394.358 73.3588 395.205 70.7165L400.392 47.8874C401.769 41.7573 407.167 37.6354 413.519 37.6354H420.082C427.704 37.6354 432.891 42.7085 432.891 50.3183L432.997 80.0172C433.103 93.2285 430.139 104.22 424.105 112.993C417.753 122.082 406.956 126.098 395.946 126.098C392.665 126.098 383.666 125.253 378.162 123.245C370.434 120.497 370.116 112.993 372.234 106.757C374.245 101.155 377.738 96.0822 384.619 97.0334C386.631 97.3505 390.442 97.5618 392.982 97.5618C401.874 97.5618 406.85 93.0172 410.767 86.4644Z" fill="#6AC04D"/>
<path d="M119.375 153.626C118.634 155.317 120.54 156.163 121.175 154.683C124.245 146.968 126.679 139.358 130.596 132.171C133.56 126.675 140.441 126.781 143.405 132.171C145.099 135.342 147.216 139.041 149.122 143.48C148.698 145.911 148.381 148.659 147.957 151.301C147.534 153.203 149.863 153.837 150.18 151.724C151.768 140.415 152.615 128.894 155.05 117.691C156.744 109.87 160.237 103.634 169.023 103.634C178.022 103.634 182.997 109.87 183.103 117.691C183.632 137.667 180.562 160.813 176.539 179.837C174.634 188.187 170.082 194 162.142 194C156.849 194 153.462 191.886 151.345 188.715C146.052 180.894 142.029 170.642 138.218 160.813C137.583 159.439 136.419 159.439 135.889 160.813C132.078 170.748 128.056 180.894 122.763 188.715C120.54 191.886 117.364 194 111.965 194C103.919 194 99.3675 188.187 97.5679 179.837C93.4393 160.813 90.4753 137.667 91.0046 117.691C91.2163 109.87 96.1917 103.634 104.978 103.634C113.87 103.634 117.364 109.87 119.057 117.691C120.645 125.301 121.916 135.659 122.974 144.008C121.281 147.39 120.54 149.398 119.375 153.626Z" fill="#FFC916"/>
<path d="M201.622 119.795C194.423 119.795 187.754 114.511 187.754 105.104C187.754 96.3318 194.529 90.4131 201.622 90.4131C209.35 90.4131 215.49 97.8114 215.49 105.421C215.49 113.242 209.667 119.795 201.622 119.795ZM187.437 172.957C190.237 160.486 195.049 146.64 187.437 134.169C188.178 129.307 192.624 125.291 201.622 125.291C210.302 125.291 214.643 129.307 215.49 134.169C207.983 146.64 212.795 160.486 215.49 172.957C214.643 177.925 210.302 181.835 201.622 181.835C192.624 181.835 188.178 177.925 187.437 172.957Z" fill="#FFC916"/>
<path d="M249.762 151.618C250.503 153.309 253.044 152.358 252.091 150.561C248.809 144.114 242.458 136.716 231.978 134.919C222.027 133.122 215.781 129 215.781 120.016C215.781 110.082 227.849 103.634 243.834 103.634C255.796 103.634 273.475 107.545 272.628 119.488C272.099 127.203 265.853 129.74 259.607 129.74C254.949 129.74 251.244 127.415 247.857 124.773C244.152 121.919 241.823 119.911 238.118 116.423C236.741 115.155 234.942 116.951 236.212 118.008C240.447 122.236 247.433 128.894 260.666 133.756C268.394 136.504 275.592 142.529 274.745 153.309C273.792 164.618 260.772 171.171 245.422 171.171C229.755 171.171 217.263 164.618 215.358 152.886C213.982 144.642 217.157 136.716 228.59 136.716C239.6 136.716 245.316 144.325 249.762 151.618Z" fill="#FFC916"/>
<path d="M307.605 156.739C307.288 162.34 306.97 167.942 306.441 173.438C305.594 181.365 301.254 187.6 292.467 187.6C283.469 187.6 279.235 181.365 278.388 173.438C277.647 166.462 277.329 159.592 277.118 152.617V148.918C277.012 136.869 277.753 121.438 278.494 110.129C279.235 99.3488 283.681 97.1293 292.044 97.1293C300.195 97.1293 304.535 99.3488 305.594 110.129C305.912 113.194 306.229 120.17 306.335 123.763C302.312 126.828 299.984 129.999 297.972 134.649C296.914 137.292 299.348 138.454 300.407 136.552C301.466 134.332 302.842 132.218 304.324 130.105C308.876 123.869 315.122 120.804 321.897 120.804C335.553 120.804 342.328 132.324 342.434 146.17C342.539 155.893 341.904 163.609 340.846 173.438C340.105 181.365 335.659 187.6 326.872 187.6C317.874 187.6 313.64 181.365 312.793 173.438C312.157 167.942 311.84 162.552 311.628 157.056C311.416 155.787 310.464 155.259 309.617 155.259C308.77 155.259 307.923 155.787 307.605 156.739Z" fill="#FFC916"/>
</svg>
