<svg width="246" height="114" viewBox="0 0 246 114" fill="none" xmlns="http://www.w3.org/2000/svg">
<path d="M23.1695 36.8181C23.0522 39.5045 22.8176 42.1908 22.5244 44.8188C22.1138 49.1988 19.6505 52.6443 14.7825 52.6443C9.79726 52.6443 7.3926 49.1988 6.98205 44.8188C5.80904 33.7229 5.80904 21.5175 6.98205 10.48C7.3926 6.15847 9.79726 2.71291 14.7825 2.71291C19.6505 2.71291 22.1138 6.15847 22.5244 10.48C22.8176 13.108 23.0522 15.7944 23.1695 18.4807C26.1607 17.7799 29.4451 17.7215 32.4363 18.4223C32.6122 15.736 32.7882 13.108 33.0814 10.48C33.5506 6.15847 35.9553 2.71291 40.8233 2.71291C45.7499 2.71291 48.2132 6.15847 48.6824 10.48C49.7968 21.5175 49.7968 33.7229 48.6824 44.8188C48.2132 49.1988 45.7499 52.6443 40.8233 52.6443C35.9553 52.6443 33.5506 49.1988 33.0814 44.8188C32.7882 42.1908 32.6122 39.5629 32.4363 36.8765C29.4451 37.5773 26.1607 37.5189 23.1695 36.8181Z" fill="#EBFFE4"/>
<path d="M58.7287 49.5332C53.4502 46.2045 50.8696 40.131 50.7523 34.1158C50.635 26.8743 53.8021 19.6328 59.8431 16.8296C62.7756 15.4864 66.06 14.844 69.1684 14.844C77.4968 14.844 84.6521 18.932 84.1243 28.1591C83.831 33.707 81.0158 36.2766 75.0921 37.6782C72.0423 38.4374 67.3503 38.2038 65.5908 35.4006C65.2975 34.9334 63.9486 34.9334 64.1245 36.043C64.3591 37.7366 67.2916 40.0726 71.4558 40.0726C72.2183 40.0726 73.3326 39.839 74.0364 39.6638C79.3149 38.1454 81.6023 38.087 83.2445 42.9341C84.5348 46.6133 82.5407 49.358 76.7343 51.1684C73.9191 52.0444 72.101 52.1612 69.2271 52.1612C65.4735 52.1612 61.7785 51.4604 58.7287 49.5332ZM66.5292 27.6335C69.5203 26.8159 71.9837 26.9327 74.7989 27.5167C75.7373 27.6335 76.2651 25.6479 74.9162 25.4143C72.1596 24.8303 68.9925 24.3631 66.3532 25.4727C65.1802 25.9399 65.5908 27.8671 66.5292 27.6335Z" fill="#EBFFE4"/>
<path d="M107.721 55.4475C105.082 59.4186 101.035 60.7618 96.4603 60.7618C89.7741 60.7618 84.4956 57.2579 84.4956 50.8339C84.4956 44.994 89.0117 41.3149 94.994 40.1469C100.448 39.0373 104.261 36.5845 106.196 33.6646C106.959 32.4966 105.258 31.3286 104.495 32.4382C102.208 35.7669 97.6333 38.2197 92.5893 38.2197C88.0146 38.2197 85.61 35.8253 85.61 32.555C85.61 26.6566 93.2931 22.8607 102.384 22.8607C111.709 22.8607 117.047 26.131 119.451 32.9054C121.504 38.6285 121.445 47.8556 119.803 54.9803C119.041 58.4258 117.047 60.2362 113.703 60.2362C110.419 60.2362 108.425 58.6011 107.721 55.4475ZM97.7506 51.3011C100.566 50.9507 103.205 49.082 105.375 47.2716C106.548 46.3372 105.082 44.9356 104.319 45.5196C102.091 47.3884 99.9793 48.6148 96.8708 49.374C95.9324 49.6076 96.4016 51.4763 97.7506 51.3011Z" fill="#EBFFE4"/>
<path d="M138.716 39.9982C142.821 40.407 145.46 41.4582 145.46 46.0718C145.46 52.3205 136.839 53.2549 130.915 53.1965C125.93 53.1381 122.997 49.7509 122.587 45.371C121.472 34.2751 121.472 22.0696 122.587 11.0322C122.997 6.71061 125.461 3.26505 130.446 3.26505C135.255 3.26505 137.719 6.71061 138.129 11.0322C139.009 19.5585 139.302 31.1215 138.716 39.9982Z" fill="#EBFFE4"/>
<path d="M147.15 38.9205C145.801 38.9205 144.628 38.5117 143.807 38.0445C141.872 36.9349 140.992 34.7741 140.992 31.679C140.992 27.0654 143.397 25.8391 147.326 25.1383C147.385 24.3791 147.385 23.6199 147.444 22.8607C147.913 16.9039 150.318 15.6776 154.951 15.6776C159.467 15.6776 161.872 16.9039 162.458 22.8607C162.458 22.9191 162.458 22.9775 162.458 23.0359C164.921 22.9191 167.385 23.0943 168.792 23.9119C170.728 25.0215 171.608 27.2406 171.608 30.3358C171.608 34.8325 169.262 36.5261 165.097 36.9933L163.514 37.1685C163.514 38.5701 163.455 39.8549 163.279 40.9061C160.581 41.6069 158.353 43.826 157.707 45.4028C157.356 46.3956 158.587 46.746 158.939 46.0452C160.347 43.3588 163.045 41.7237 165.743 41.9572C169.203 42.1908 172.487 44.8188 172.077 50.8339C171.725 56.0315 166.094 58.893 159.76 58.893C148.441 58.893 147.502 51.3012 147.15 39.7965C147.15 39.5045 147.15 39.2125 147.15 38.9205Z" fill="#EBFFE4"/>
<path d="M189.923 32.9372C189.747 36.0324 189.571 39.1275 189.278 42.1643C188.808 46.5442 186.404 49.9898 181.536 49.9898C176.55 49.9898 174.204 46.5442 173.735 42.1643C173.325 38.3099 173.149 34.514 173.031 30.6596V28.6157C172.973 21.9581 173.383 13.4318 173.794 7.18312C174.204 1.22638 176.668 0 181.301 0C185.817 0 188.222 1.22638 188.808 7.18312C188.984 8.8767 189.16 12.7311 189.219 14.7166C186.99 16.4102 185.7 18.1622 184.586 20.7318C183.999 22.1917 185.348 22.8341 185.934 21.783C186.521 20.5566 187.283 19.3886 188.105 18.2206C190.626 14.775 194.087 13.0814 197.84 13.0814C205.406 13.0814 209.16 19.447 209.219 27.0973C209.277 32.47 208.925 36.7332 208.339 42.1643C207.928 46.5442 205.465 49.9898 200.597 49.9898C195.612 49.9898 193.266 46.5442 192.797 42.1643C192.445 39.1275 192.269 36.1492 192.151 33.1124C192.034 32.4116 191.506 32.1196 191.037 32.1196C190.568 32.1196 190.099 32.4116 189.923 32.9372Z" fill="#EBFFE4"/>
<path d="M233.682 47.7759C234.327 46.4328 232.861 45.9656 232.333 46.9583C230.104 50.5791 227.406 52.4479 223.125 52.4479C216.145 52.4479 208.58 47.2504 209.577 38.1401L210.926 26.577C211.336 23.073 213.917 20.7955 217.436 20.7955H221.307C224.826 20.7955 226.585 23.073 225.881 26.4602L223.301 38.7241C222.949 39.8336 224.591 40.5344 225.06 39.0745L227.934 26.4602C228.697 23.073 231.688 20.7955 235.207 20.7955H238.843C243.066 20.7955 245.94 23.5986 245.94 27.8034L245.998 44.2136C246.057 51.5135 244.415 57.587 241.072 62.4342C237.553 67.4565 231.57 69.6757 225.471 69.6757C223.653 69.6757 218.667 69.2085 215.618 68.0989C211.336 66.5805 211.16 62.4342 212.333 58.9886C213.448 55.8934 215.383 53.0903 219.195 53.6159C220.31 53.7911 222.421 53.9079 223.829 53.9079C228.755 53.9079 231.512 51.3967 233.682 47.7759Z" fill="#EBFFE4"/>
<path d="M35.6171 33.4097L37.597 37.6475L24.3944 56.6302L20.7056 77.9782L15.7967 80.2437L7.00702 72.2531L20.9353 52.2271L35.6171 33.4097Z" fill="#FCC5A9"/>
<path d="M84.7861 67.3152L80.1057 66.9602L66.9031 85.9429L48.1306 96.8896L47.7272 102.262L58.3309 107.644L72.2592 87.6184L84.7861 67.3152Z" fill="#FCC5A9"/>
<ellipse cx="30.9337" cy="29.499" rx="30.9337" ry="29.499" transform="matrix(0.823246 0.567685 -0.570985 0.820961 41.4097 23.6223)" fill="#D6A173"/>
<ellipse cx="27.8403" cy="26.5491" rx="27.8403" ry="26.5491" transform="matrix(0.823246 0.567685 -0.570985 0.820961 42.272 27.8003)" fill="#BF8D62"/>
<path d="M34.1516 32.9679L35.3671 36.7151L25.8621 45.8598L18.7553 57.4016L13.1612 74.7383L6.95134 72.3396L10.815 55.1328L34.1516 32.9679Z" fill="#FFD5BF"/>
<path d="M22.1014 50.5505L24.1693 52.5277L18.3152 63.578L16.7339 77.0209L8.40987 72.9449L12.5312 60.1432L22.1014 50.5505Z" fill="#FCC5A9"/>
<path d="M22.1661 50.4575L25.1483 52.5139L19.2185 63.4469L17.2157 76.5366L8.57256 72.9194L13.91 60.3376L22.1661 50.4575Z" fill="#FFD5BF"/>
<path d="M85.9274 68.6707L81.9771 68.8557L76.7229 80.9316L68.3717 91.6153L54.0404 102.927L58.4797 107.872L73.2973 98.2185L85.9274 68.6707Z" fill="#FFD5BF"/>
<path d="M73.3611 85.8258L72.0966 84.9539L63.2574 93.8332L50.8316 99.3895L57.2574 106.04L68.3008 98.2727L73.3611 85.8258Z" fill="#FCC5A9"/>
<path d="M73.4567 85.6881L70.4745 83.6316L62.2816 93.0041L50.6801 99.4748L57.1206 106.259L67.0719 96.8586L73.4567 85.6881Z" fill="#FFD5BF"/>
<path d="M76.2252 66.993C76.4087 67.2437 76.5656 67.4893 76.7005 67.7282C76.7191 67.7594 76.7363 67.7911 76.7541 67.8228C76.7588 67.8316 76.7637 67.8402 76.7684 67.8489C76.8122 67.9283 76.8538 68.0092 76.8923 68.0919C76.8996 68.1073 76.906 68.123 76.9131 68.1383C76.9291 68.1738 76.9454 68.2094 76.9604 68.2455C77.2921 69.0024 77.3787 69.6922 77.2654 70.3081C77.2637 70.3312 77.2637 70.3547 77.2617 70.3781C77.2434 70.5945 77.1742 70.7849 77.0635 70.9524C76.5962 71.988 75.5065 72.7586 74.0838 73.2095C73.264 73.4694 71.5587 73.667 69.5401 73.8211C70.6731 74.8016 71.5722 75.9084 71.4876 76.9104C71.2689 79.4969 68.561 80.3343 64.8448 79.4009C62.8128 78.8905 59.81 76.4285 57.5037 74.303C57.4461 74.3039 57.4157 74.305 57.4157 74.305L53.9776 71.1625C53.9776 71.1625 56.1225 61.7522 59.0424 60.3464C61.9625 58.9412 65.0161 59.3638 66.7995 61.7993C67.5231 62.7876 67.3069 63.9972 66.7944 65.086C68.7707 64.896 70.5016 64.8088 71.4694 64.9429C72.8644 65.1363 74.1441 65.5399 75.1456 66.1785C75.5869 66.3609 75.9562 66.6256 76.2252 66.993Z" fill="#6AC04D"/>
<path d="M69.0947 69.4077L69.7093 69.5554C69.7093 69.5554 64.1605 70.3136 63.2975 70.4415C62.4345 70.5695 57.1129 71.2794 57.1129 71.2794L56.5384 71.1393C56.5384 71.1393 62.2931 70.1515 63.0724 70.0181C63.8518 69.8847 69.0947 69.4077 69.0947 69.4077Z" fill="#85DB69"/>
<path d="M41.2637 40.1613C42.7401 37.7044 45.0134 36.3796 47.879 37.5243C51.3609 38.5942 52.9619 41.7213 52.9503 45.039C52.9464 46.1392 52.5078 48.1187 51.8882 50.3897C53.5334 50.1183 55.2349 50.2085 56.4477 51.2031C59.6449 53.8254 59.67 57.4636 57.0632 60.5322C55.6151 62.2367 51.2295 63.1416 47.6171 63.6102C47.6134 63.6203 47.6122 63.6266 47.6118 63.628L42.2798 64.4248C42.2131 64.3593 31.3241 53.6564 30.7373 49.3183C30.1489 44.9672 31.9091 42.1235 35.6863 42.4375C37.1528 42.5593 38.5259 43.7738 39.6588 45.2128C40.1729 42.9575 40.7251 41.0578 41.2637 40.1613Z" fill="#AEEE98"/>
<path d="M46.1395 46.8336L46.5728 46.3132C46.5728 46.3132 45.2776 52.9014 45.0887 53.9351C44.8998 54.9688 43.636 61.2718 43.636 61.2718L43.2283 61.7564C43.2283 61.7564 44.3195 54.7418 44.4678 53.7921C44.616 52.8424 46.1395 46.8336 46.1395 46.8336Z" fill="#85DB69"/>
<path d="M66.2313 47.0114C69.2269 46.1964 72.2375 46.6006 74.1549 49.0293C76.498 51.5862 75.9796 54.4173 73.9266 56.5254C73.2319 57.2387 71.5893 58.2854 69.595 59.4234C71.2688 60.1348 72.7594 61.1069 73.2425 62.3953C74.5293 65.8275 72.2334 68.2045 67.8658 68.7884C65.4652 69.1092 60.9026 67.3655 57.2795 65.7315C57.2656 65.738 57.2589 65.7422 57.2589 65.7422L51.8229 63.3424C51.8144 63.3094 48.4743 50.3153 50.6721 47.1552C52.8727 43.9914 56.2959 43.0986 59.593 45.3722C60.8913 46.2675 61.3918 47.8444 61.5238 49.4271C63.438 48.2392 65.161 47.3026 66.2313 47.0114Z" fill="#85DB69"/>
<path d="M66.4773 53.9509L67.2084 53.8481C67.2084 53.8481 61.846 57.4633 61.0179 58.0385C60.1899 58.6136 55.0368 62.0587 55.0368 62.0587L54.3521 62.1521C54.3521 62.1521 59.7942 58.144 60.5315 57.6016C61.2687 57.0593 66.4773 53.9509 66.4773 53.9509Z" fill="#6AC04D"/>
<ellipse cx="4.6093" cy="4.6865" rx="4.6093" ry="4.6865" transform="matrix(0.278251 -0.959415 0.951092 0.312889 36.6875 53.4883)" fill="#FF2020"/>
<g filter="url(#filter0_i_139_2063)">
<ellipse cx="3.9179" cy="3.98353" rx="3.9179" ry="3.98353" transform="matrix(0.278251 -0.959415 0.951092 0.312889 37.5485 53.0447)" fill="#FFA4A4"/>
</g>
<g filter="url(#filter1_i_139_2063)">
<path d="M42.9002 50.6768L44.4019 53.2635C44.4019 53.2635 45.2391 52.8959 45.6232 51.5723C46.0073 50.2486 45.5107 49.4425 45.5107 49.4425L42.9002 50.6768Z" fill="#FF3434"/>
</g>
<g filter="url(#filter2_i_139_2063)">
<path d="M42.2953 50.948L43.6349 53.6347C43.6349 53.6347 42.9593 54.1411 41.5073 53.6636C40.0554 53.1861 39.7658 52.3623 39.7658 52.3623L42.2953 50.948Z" fill="#FF3434"/>
</g>
<g filter="url(#filter3_i_139_2063)">
<path d="M42.5594 50.1167L45.0889 48.7023C45.0889 48.7023 44.7832 47.934 43.3473 47.4011C41.9114 46.8682 41.2198 47.4299 41.2198 47.4299L42.5594 50.1167Z" fill="#FF3434"/>
</g>
<g filter="url(#filter4_i_139_2063)">
<path d="M41.9545 50.3878L39.344 51.6221C39.344 51.6221 38.9115 50.5954 39.2315 49.4924C39.5516 48.3893 40.4528 47.8012 40.4528 47.8012L41.9545 50.3878Z" fill="#FF3434"/>
</g>
<path d="M40.2293 50.7275C40.2606 50.8009 39.774 51.156 39.713 51.1791C39.652 51.2023 39.4689 51.2718 39.3752 51.0518C39.2815 50.8319 39.4645 50.7624 39.5255 50.7392C39.5866 50.7161 40.1981 50.6542 40.2293 50.7275Z" fill="#FFC916"/>
<path d="M40.7012 49.1258C40.6363 49.1629 40.1878 48.7146 40.1524 48.6566C40.117 48.5985 40.0108 48.4244 40.2056 48.3131C40.4004 48.2017 40.5066 48.3759 40.542 48.4339C40.5774 48.492 40.7661 49.0886 40.7012 49.1258Z" fill="#FFC916"/>
<path d="M40.2744 50.0723C40.2714 50.1503 39.6682 50.2554 39.6018 50.2497C39.5354 50.2441 39.3363 50.2271 39.3453 49.993C39.3542 49.7588 39.5533 49.7758 39.6197 49.7815C39.686 49.7872 40.2774 49.9942 40.2744 50.0723Z" fill="#FFC916"/>
<path d="M40.4408 49.57C40.4072 49.6399 39.8019 49.5002 39.7421 49.4691C39.6823 49.438 39.503 49.3448 39.6039 49.1349C39.7049 48.9251 39.8842 49.0183 39.944 49.0494C40.0038 49.0805 40.4745 49.5 40.4408 49.57Z" fill="#FFC916"/>
<path d="M42.703 52.681C42.7734 52.6542 43.1525 53.1604 43.179 53.2225C43.2055 53.2847 43.2849 53.4713 43.0736 53.5516C42.8624 53.6319 42.7829 53.4453 42.7565 53.3831C42.73 53.3209 42.6325 52.7077 42.703 52.681Z" fill="#FFC916"/>
<path d="M41.0372 52.1592C41.079 52.2277 40.6559 52.6543 40.5996 52.6864C40.5433 52.7186 40.3744 52.8151 40.2489 52.6095C40.1235 52.4039 40.2924 52.3074 40.3487 52.2753C40.405 52.2431 40.9954 52.0907 41.0372 52.1592Z" fill="#FFC916"/>
<path d="M42.03 52.6087C42.1066 52.6152 42.237 53.2239 42.2345 53.2901C42.2319 53.3563 42.2243 53.5548 41.9946 53.5352C41.7648 53.5157 41.7724 53.3171 41.7749 53.2509C41.7775 53.1848 41.9535 52.6022 42.03 52.6087Z" fill="#FFC916"/>
<path d="M41.5068 52.4216C41.5754 52.4572 41.4572 53.0592 41.4289 53.1182C41.4005 53.1771 41.3154 53.354 41.1097 53.2471C40.9041 53.1402 40.9891 52.9633 41.0175 52.9043C41.0459 52.8454 41.4383 52.386 41.5068 52.4216Z" fill="#FFC916"/>
<path d="M43.8034 48.9965C43.8488 49.0629 44.4282 48.8787 44.4825 48.8435C44.5368 48.8083 44.6997 48.7026 44.5635 48.5032C44.4273 48.3039 44.2644 48.4096 44.2101 48.4448C44.1558 48.48 43.758 48.93 43.8034 48.9965Z" fill="#FFC916"/>
<path d="M42.1428 48.4569C42.2114 48.4263 42.0809 47.8175 42.0511 47.7566C42.0214 47.6958 41.9321 47.5132 41.7262 47.6049C41.5203 47.6966 41.6095 47.8792 41.6393 47.94C41.6691 48.0009 42.0742 48.4875 42.1428 48.4569Z" fill="#FFC916"/>
<path d="M43.2076 48.6664C43.2732 48.7069 43.6991 48.2786 43.7318 48.222C43.7646 48.1655 43.8627 47.9957 43.6658 47.8743C43.4688 47.7528 43.3706 47.9225 43.3379 47.9791C43.3052 48.0357 43.1419 48.6259 43.2076 48.6664Z" fill="#FFC916"/>
<path d="M42.6745 48.5109C42.7506 48.523 42.9702 47.9569 42.9777 47.8913C42.9852 47.8257 43.0077 47.6289 42.7795 47.5924C42.5513 47.5559 42.5288 47.7527 42.5213 47.8183C42.5138 47.8839 42.5984 48.4987 42.6745 48.5109Z" fill="#FFC916"/>
<path d="M44.0499 51.9542C43.9874 51.9948 44.208 52.5823 44.2464 52.6385C44.2848 52.6948 44.4001 52.8636 44.5878 52.7417C44.7755 52.6198 44.6603 52.451 44.6218 52.3948C44.5834 52.3385 44.1125 51.9135 44.0499 51.9542Z" fill="#FFC916"/>
<path d="M44.5403 50.3586C44.5754 50.4304 45.181 50.3358 45.2405 50.3093C45.2999 50.2828 45.4784 50.2035 45.373 49.9881C45.2676 49.7728 45.0892 49.8522 45.0297 49.8787C44.9703 49.9051 44.5052 50.2869 44.5403 50.3586Z" fill="#FFC916"/>
<path d="M44.3749 51.3884C44.336 51.4557 44.7747 51.9088 44.8321 51.9442C44.8895 51.9796 45.0617 52.0858 45.1785 51.8839C45.2952 51.682 45.1231 51.5758 45.0657 51.5404C45.0083 51.505 44.4138 51.3211 44.3749 51.3884Z" fill="#FFC916"/>
<path d="M44.5079 50.8758C44.4991 50.9532 45.0751 51.2029 45.141 51.2135C45.207 51.224 45.4049 51.2557 45.4314 51.0235C45.4579 50.7913 45.26 50.7596 45.194 50.7491C45.1281 50.7385 44.5168 50.7984 44.5079 50.8758Z" fill="#FFC916"/>
<ellipse cx="3.97005" cy="5.30923" rx="3.97005" ry="5.30923" transform="matrix(0.77685 0.629235 -0.643913 0.765613 56.4802 43.6619)" fill="#00720D"/>
<ellipse cx="3.45394" cy="4.6217" rx="3.45394" ry="4.6217" transform="matrix(0.77685 0.629235 -0.643913 0.765613 56.0298 45.0645)" fill="#C9FFD0"/>
<g filter="url(#filter5_f_139_2063)">
<ellipse cx="1.66747" cy="2.2154" rx="1.66747" ry="2.2154" transform="matrix(0.776851 0.629234 -0.643914 0.765612 55.8616 47.9766)" fill="#B7FFBF"/>
</g>
<path d="M56.2862 48.6603C56.1677 48.6468 55.999 47.7348 56.0066 47.6365C56.0143 47.5381 56.0371 47.2431 56.3927 47.2837C56.7483 47.3243 56.7255 47.6193 56.7179 47.7176C56.7103 47.816 56.4048 48.6739 56.2862 48.6603Z" fill="#A2FFAC"/>
<path d="M55.0554 49.4782C54.9645 49.5495 54.193 48.9893 54.1275 48.9112C54.062 48.8331 53.8654 48.5988 54.1379 48.385C54.4104 48.1711 54.607 48.4054 54.6725 48.4835C54.7381 48.5616 55.1462 49.407 55.0554 49.4782Z" fill="#A2FFAC"/>
<path d="M54.0172 50.9911C53.9726 51.0956 53.036 50.9336 52.9418 50.8924C52.8477 50.8511 52.5652 50.7275 52.6989 50.4139C52.8326 50.1003 53.1151 50.224 53.2092 50.2652C53.3034 50.3064 54.0617 50.8865 54.0172 50.9911Z" fill="#A2FFAC"/>
<path d="M53.6475 52.5427C53.7005 52.6477 52.9896 53.2251 52.8988 53.2659C52.8081 53.3067 52.5358 53.4292 52.3768 53.1143C52.2178 52.7994 52.4901 52.6769 52.5809 52.6361C52.6716 52.5953 53.5945 52.4377 53.6475 52.5427Z" fill="#A2FFAC"/>
<path d="M57.6481 49.7737C57.6839 49.8849 58.6266 49.8728 58.7234 49.8467C58.8202 49.8207 59.1107 49.7425 59.0036 49.409C58.8964 49.0755 58.606 49.1536 58.5092 49.1797C58.4124 49.2057 57.6124 49.6625 57.6481 49.7737Z" fill="#A2FFAC"/>
<path d="M57.4194 48.7581C57.5117 48.8329 58.2651 48.3063 58.3283 48.2311C58.3915 48.156 58.581 47.9305 58.304 47.7061C58.027 47.4817 57.8374 47.7071 57.7742 47.7822C57.711 47.8574 57.327 48.6833 57.4194 48.7581Z" fill="#A2FFAC"/>
<path d="M57.0684 51.124C57.015 51.2241 57.7244 51.8612 57.8151 51.9097C57.9058 51.9583 58.1779 52.1039 58.3382 51.8036C58.4986 51.5033 58.2265 51.3577 58.1358 51.3091C58.0451 51.2606 57.1219 51.0239 57.0684 51.124Z" fill="#A2FFAC"/>
<path d="M55.7669 52.4215C55.67 52.4849 56.0064 53.3577 56.0653 53.4406C56.1242 53.5235 56.3009 53.7721 56.5914 53.5819C56.8819 53.3916 56.7052 53.1429 56.6463 53.0601C56.5874 52.9772 55.8637 52.358 55.7669 52.4215Z" fill="#A2FFAC"/>
<path d="M54.2963 53.0745C54.1806 53.043 53.7378 53.8371 53.7143 53.9323C53.6908 54.0276 53.6204 54.3133 53.9676 54.408C54.3148 54.5026 54.3852 54.2169 54.4087 54.1216C54.4322 54.0264 54.4121 53.1061 54.2963 53.0745Z" fill="#A2FFAC"/>
<path d="M68.6117 62.588C69.4661 63.5913 69.7698 64.5111 69.6688 65.3085C69.6678 65.4661 69.6343 65.6093 69.5717 65.7395C69.2846 66.6133 68.4851 67.311 67.3983 67.7698C66.7716 68.0344 65.4399 68.305 63.8585 68.5609C64.8312 69.2889 65.6317 70.1371 65.6427 70.9619C65.6708 73.0787 63.6094 73.9309 60.6205 73.4079C58.9846 73.1214 56.435 71.3071 54.4601 69.7245C54.4099 69.7294 54.3835 69.7328 54.3835 69.7328L51.4442 67.404C51.4468 67.3834 52.423 59.6274 54.6086 58.3008C56.7969 56.9727 59.2281 57.119 60.8133 58.9801C61.4559 59.7347 61.378 60.7292 61.0582 61.645C62.5896 61.3664 63.9362 61.1868 64.704 61.2344C65.7861 61.3013 66.798 61.5365 67.6222 61.9706C68.017 62.0878 68.3551 62.2866 68.6117 62.588Z" fill="#AEEE98"/>
<path d="M63.1857 65.0106L63.679 65.091C63.679 65.091 59.3846 66.0648 58.7175 66.2244C58.0504 66.3841 53.9306 67.304 53.9306 67.304L53.4693 67.2271C53.4693 67.2271 57.9076 66.0534 58.5087 65.8948C59.1098 65.7361 63.1857 65.0106 63.1857 65.0106Z" fill="#85DB69"/>
<path d="M47.7237 48.8764C46.2727 48.3591 45.1389 48.4054 44.3049 48.8412C44.1299 48.9075 43.9847 49.0038 43.8663 49.127C43.0253 49.7989 42.5876 50.956 42.5303 52.3274C42.4973 53.1186 42.7471 54.68 43.116 56.5074C41.9167 55.7474 40.6568 55.2249 39.7464 55.5517C37.4095 56.3909 37.3195 58.9854 39.1224 62.0256C40.1092 63.6897 43.1511 65.7212 45.7014 67.2217C45.7161 67.2762 45.7228 67.3057 45.7232 67.3073L49.4887 69.5514C49.5513 69.5186 57.6299 65.283 58.1876 62.365C58.7472 59.4359 57.5872 56.8484 54.8912 55.887C53.7984 55.4973 52.7384 55.9903 51.864 56.7147C51.5407 54.9327 51.1848 53.3926 50.8171 52.5759C50.2991 51.4254 49.6242 50.421 48.8091 49.7018C48.518 49.3194 48.1606 49.0322 47.7237 48.8764Z" fill="#6AC04D"/>
<path d="M47.2926 55.7813L47.0016 55.2771C47.0016 55.2771 47.6966 60.3541 47.7954 61.1462C47.8942 61.9383 48.5767 66.8031 48.5767 66.8031L48.8507 67.2738C48.8507 67.2738 48.3161 61.958 48.2433 61.2381C48.1706 60.5183 47.2926 55.7813 47.2926 55.7813Z" fill="#85DB69"/>
<path d="M19.044 63.2349C18.9201 63.0656 18.8086 62.8982 18.7082 62.7329C18.4182 62.3202 18.2139 61.8527 18.1109 61.3264C18.0023 60.8647 17.9899 60.4254 18.0601 60.0098C18.0731 59.8813 18.0893 59.7497 18.1122 59.6159C18.1614 59.3288 18.2942 59.08 18.4939 58.8634C19.1527 57.7812 20.4425 56.9332 22.0624 56.3868C23.035 56.0588 25.0292 55.7482 27.3823 55.4663C26.149 54.4659 25.1981 53.314 25.3852 52.2209C25.8668 49.4075 29.0809 48.3491 33.3087 49.1521C35.6193 49.591 38.8828 52.0875 41.3696 54.2594C41.4279 54.2558 41.4596 54.2531 41.4626 54.2529L45.174 57.4563C45.174 57.4563 41.8743 67.7616 38.3704 69.4484C34.8665 71.1351 31.3657 70.8517 29.5109 68.318C28.7578 67.2892 29.1136 65.9665 29.8023 64.7586C27.4859 65.0763 25.4635 65.2694 24.3501 65.178C22.7484 65.0466 21.2992 64.6805 20.1937 64.0443C19.712 63.8718 19.3182 63.6094 19.044 63.2349Z" fill="#85DB69"/>
<path d="M27.5068 60.2167L26.8074 60.0921C26.8074 60.0921 33.3037 58.9518 34.3149 58.7636C35.3262 58.5754 41.555 57.5004 41.555 57.5004L42.2086 57.6192C42.2086 57.6192 35.4538 59.0199 34.539 59.2092C33.6242 59.3985 27.5068 60.2167 27.5068 60.2167Z" fill="#6AC04D"/>
<path d="M67.3517 83.9761C69.2595 86.7056 69.835 89.4255 67.6673 90.9594C65.972 92.5138 63.3129 92.0112 60.8193 90.3748C59.9197 89.7844 58.3998 88.393 56.6792 86.7053C56.5509 88.0631 56.1221 89.2544 55.0854 89.6309C52.2561 90.6584 49.2318 88.6826 47.2185 84.9912C45.6396 82.095 46.5826 75.5575 47.0608 72.8736L47.1967 71.6532C47.1967 71.6532 58.456 68.9 62.1687 70.7786C65.881 72.6575 67.8368 75.5554 66.7498 78.3281C66.3139 79.4396 64.9412 79.849 63.453 79.9415C65.2342 81.5862 66.714 83.0639 67.3517 83.9761Z" fill="#85DB69"/>
<path d="M60.8367 84.0897L61.1677 84.7162C61.1677 84.7162 55.9728 80.1404 55.1542 79.4339C54.3357 78.7275 49.3717 74.3301 49.3717 74.3301L49.0645 73.7434C49.0645 73.7434 54.6647 78.3849 55.4227 79.0136C56.1807 79.6424 60.8367 84.0897 60.8367 84.0897Z" fill="#6AC04D"/>
<ellipse cx="4.6093" cy="4.6865" rx="4.6093" ry="4.6865" transform="matrix(0.278251 -0.959415 0.951092 0.312889 42.6877 90.7019)" fill="#FF2020"/>
<g filter="url(#filter6_i_139_2063)">
<ellipse cx="3.9179" cy="3.98353" rx="3.9179" ry="3.98353" transform="matrix(0.278251 -0.959415 0.951092 0.312889 43.5487 90.2583)" fill="#FFA4A4"/>
</g>
<g filter="url(#filter7_i_139_2063)">
<path d="M48.9004 87.8905L50.4022 90.4771C50.4022 90.4771 51.2393 90.1095 51.6234 88.7859C52.0075 87.4622 51.511 86.6561 51.511 86.6561L48.9004 87.8905Z" fill="#FF3434"/>
</g>
<g filter="url(#filter8_i_139_2063)">
<path d="M48.2955 88.1616L49.6351 90.8483C49.6351 90.8483 48.9596 91.3547 47.5076 90.8772C46.0556 90.3997 45.766 89.5759 45.766 89.5759L48.2955 88.1616Z" fill="#FF3434"/>
</g>
<g filter="url(#filter9_i_139_2063)">
<path d="M48.5597 87.3303L51.0892 85.916C51.0892 85.916 50.7835 85.1476 49.3476 84.6147C47.9117 84.0818 47.2201 84.6436 47.2201 84.6436L48.5597 87.3303Z" fill="#FF3434"/>
</g>
<g filter="url(#filter10_i_139_2063)">
<path d="M47.9546 87.6014L45.3441 88.8358C45.3441 88.8358 44.9116 87.809 45.2317 86.706C45.5517 85.603 46.4529 85.0148 46.4529 85.0148L47.9546 87.6014Z" fill="#FF3434"/>
</g>
<path d="M46.2296 87.9412C46.2608 88.0145 45.7742 88.3696 45.7132 88.3928C45.6522 88.4159 45.4692 88.4854 45.3755 88.2655C45.2818 88.0455 45.4648 87.976 45.5258 87.9528C45.5868 87.9297 46.1983 87.8678 46.2296 87.9412Z" fill="#FFC916"/>
<path d="M46.7014 86.3394C46.6365 86.3765 46.188 85.9283 46.1526 85.8702C46.1172 85.8122 46.011 85.638 46.2058 85.5267C46.4006 85.4153 46.5068 85.5895 46.5422 85.6475C46.5776 85.7056 46.7664 86.3023 46.7014 86.3394Z" fill="#FFC916"/>
<path d="M46.2746 87.2859C46.2717 87.3639 45.6684 87.469 45.6021 87.4634C45.5357 87.4577 45.3366 87.4407 45.3455 87.2066C45.3544 86.9725 45.5535 86.9895 45.6199 86.9951C45.6863 87.0008 46.2776 87.2078 46.2746 87.2859Z" fill="#FFC916"/>
<path d="M46.441 86.7836C46.4074 86.8535 45.8021 86.7138 45.7423 86.6827C45.6826 86.6516 45.5032 86.5584 45.6042 86.3486C45.7051 86.1387 45.8845 86.2319 45.9442 86.263C46.004 86.2941 46.4747 86.7136 46.441 86.7836Z" fill="#FFC916"/>
<path d="M48.7032 89.8946C48.7736 89.8678 49.1528 90.374 49.1792 90.4362C49.2057 90.4984 49.2851 90.6849 49.0739 90.7652C48.8626 90.8455 48.7832 90.6589 48.7567 90.5967C48.7302 90.5345 48.6328 89.9213 48.7032 89.8946Z" fill="#FFC916"/>
<path d="M47.0374 89.3728C47.0792 89.4414 46.6561 89.8679 46.5998 89.9001C46.5435 89.9322 46.3746 90.0287 46.2492 89.8231C46.1237 89.6176 46.2926 89.5211 46.349 89.4889C46.4053 89.4567 46.9956 89.3043 47.0374 89.3728Z" fill="#FFC916"/>
<path d="M48.0303 89.8223C48.1069 89.8288 48.2372 90.4375 48.2347 90.5037C48.2322 90.5699 48.2246 90.7684 47.9948 90.7489C47.7651 90.7293 47.7727 90.5307 47.7752 90.4646C47.7777 90.3984 47.9537 89.8158 48.0303 89.8223Z" fill="#FFC916"/>
<path d="M47.5069 89.6352C47.5755 89.6709 47.4573 90.2728 47.429 90.3318C47.4006 90.3907 47.3155 90.5676 47.1098 90.4607C46.9042 90.3538 46.9893 90.1769 47.0176 90.118C47.046 90.059 47.4384 89.5996 47.5069 89.6352Z" fill="#FFC916"/>
<path d="M49.8037 86.2101C49.8491 86.2765 50.4285 86.0923 50.4828 86.0571C50.5371 86.0219 50.6999 85.9162 50.5637 85.7169C50.4275 85.5175 50.2647 85.6232 50.2104 85.6584C50.1561 85.6937 49.7583 86.1436 49.8037 86.2101Z" fill="#FFC916"/>
<path d="M48.1432 85.6705C48.2118 85.64 48.0813 85.0311 48.0515 84.9703C48.0217 84.9094 47.9325 84.7268 47.7265 84.8185C47.5206 84.9102 47.6099 85.0928 47.6397 85.1536C47.6694 85.2145 48.0745 85.7011 48.1432 85.6705Z" fill="#FFC916"/>
<path d="M49.2077 85.88C49.2734 85.9205 49.6992 85.4922 49.732 85.4357C49.7647 85.3791 49.8629 85.2093 49.6659 85.0879C49.4689 84.9664 49.3707 85.1362 49.338 85.1927C49.3053 85.2493 49.1421 85.8395 49.2077 85.88Z" fill="#FFC916"/>
<path d="M48.6748 85.7245C48.7508 85.7366 48.9705 85.1705 48.978 85.1049C48.9855 85.0393 49.008 84.8425 48.7797 84.806C48.5515 84.7695 48.529 84.9663 48.5215 85.0319C48.514 85.0975 48.5987 85.7123 48.6748 85.7245Z" fill="#FFC916"/>
<path d="M50.0503 89.1678C49.9877 89.2084 50.2083 89.7959 50.2468 89.8522C50.2852 89.9084 50.4004 90.0772 50.5882 89.9553C50.7759 89.8334 50.6606 89.6647 50.6222 89.6084C50.5838 89.5522 50.1129 89.1272 50.0503 89.1678Z" fill="#FFC916"/>
<path d="M50.5407 87.5723C50.5758 87.644 51.1813 87.5494 51.2408 87.5229C51.3003 87.4965 51.4787 87.4171 51.3734 87.2017C51.268 86.9864 51.0896 87.0658 51.0301 87.0923C50.9706 87.1187 50.5055 87.5005 50.5407 87.5723Z" fill="#FFC916"/>
<path d="M50.3752 88.602C50.3362 88.6693 50.7749 89.1225 50.8323 89.1578C50.8897 89.1932 51.0619 89.2994 51.1787 89.0975C51.2955 88.8956 51.1233 88.7894 51.0659 88.7541C51.0085 88.7187 50.4141 88.5347 50.3752 88.602Z" fill="#FFC916"/>
<path d="M50.5082 88.0894C50.4993 88.1668 51.0753 88.4166 51.1413 88.4271C51.2072 88.4377 51.4051 88.4693 51.4316 88.2371C51.4581 88.0049 51.2602 87.9733 51.1943 87.9627C51.1283 87.9522 50.517 88.012 50.5082 88.0894Z" fill="#FFC916"/>
<path d="M33.7802 83.4299C30.8835 83.9336 27.8676 83.3051 25.7659 80.8892C23.2414 78.3289 23.5158 75.7555 25.3656 73.9786C25.9924 73.3767 27.5277 72.546 29.4037 71.66C27.6886 70.8613 26.1323 69.8373 25.5455 68.6045C23.9827 65.32 26.0519 63.3125 30.3213 63.1386C32.6679 63.0431 37.3259 65.0398 41.0466 66.856C41.0601 66.851 41.0669 66.8474 41.0669 66.8474L46.6446 69.524C46.6446 69.524 51.0605 81.8581 49.1522 84.6018C47.244 87.3454 43.9351 87.8843 40.4826 85.5036C39.1234 84.5664 38.4947 83.0653 38.2301 81.5898C36.4381 82.5285 34.8138 83.2501 33.7802 83.4299Z" fill="#6AC04D"/>
<path d="M32.9491 76.9867L32.2349 77.0205C32.2349 77.0205 37.2314 74.1245 38.0015 73.6617C38.7716 73.1988 43.5754 70.4428 43.5754 70.4428L44.2445 70.4138C44.2445 70.4138 39.2025 73.6667 38.5194 74.1068C37.8363 74.5469 32.9491 76.9867 32.9491 76.9867Z" fill="#85DB69"/>
<ellipse cx="4.6093" cy="4.6865" rx="4.6093" ry="4.6865" transform="matrix(0.278251 -0.959415 0.951092 0.312889 51.8467 66.698)" fill="#FF2020"/>
<g filter="url(#filter11_i_139_2063)">
<ellipse cx="3.91791" cy="3.98353" rx="3.91791" ry="3.98353" transform="matrix(0.278251 -0.959415 0.951092 0.312889 52.7075 66.2544)" fill="#FFA4A4"/>
</g>
<g filter="url(#filter12_i_139_2063)">
<path d="M58.0594 63.8866L59.5611 66.4732C59.5611 66.4732 60.3983 66.1056 60.7824 64.782C61.1665 63.4583 60.6699 62.6522 60.6699 62.6522L58.0594 63.8866Z" fill="#FF3434"/>
</g>
<g filter="url(#filter13_i_139_2063)">
<path d="M57.4543 64.1577L58.7939 66.8444C58.7939 66.8444 58.1184 67.3508 56.6664 66.8733C55.2144 66.3958 54.9248 65.572 54.9248 65.572L57.4543 64.1577Z" fill="#FF3434"/>
</g>
<g filter="url(#filter14_i_139_2063)">
<path d="M57.7185 63.3264L60.248 61.912C60.248 61.912 59.9423 61.1437 58.5064 60.6108C57.0705 60.0779 56.3789 60.6397 56.3789 60.6397L57.7185 63.3264Z" fill="#FF3434"/>
</g>
<g filter="url(#filter15_i_139_2063)">
<path d="M57.1136 63.5975L54.5031 64.8319C54.5031 64.8319 54.0705 63.8051 54.3906 62.7021C54.7107 61.5991 55.6118 61.0109 55.6118 61.0109L57.1136 63.5975Z" fill="#FF3434"/>
</g>
<path d="M55.3884 63.9372C55.4196 64.0106 54.933 64.3657 54.872 64.3889C54.811 64.412 54.628 64.4815 54.5343 64.2616C54.4406 64.0416 54.6236 63.9721 54.6846 63.9489C54.7456 63.9258 55.3572 63.8639 55.3884 63.9372Z" fill="#FFC916"/>
<path d="M55.8604 62.3355C55.7954 62.3726 55.347 61.9244 55.3116 61.8663C55.2762 61.8083 55.17 61.6341 55.3648 61.5228C55.5596 61.4114 55.6658 61.5856 55.7012 61.6436C55.7366 61.7017 55.9253 62.2984 55.8604 62.3355Z" fill="#FFC916"/>
<path d="M55.4337 63.282C55.4307 63.36 54.8275 63.4651 54.7611 63.4595C54.6947 63.4538 54.4956 63.4368 54.5046 63.2027C54.5135 62.9686 54.7126 62.9855 54.779 62.9912C54.8453 62.9969 55.4367 63.2039 55.4337 63.282Z" fill="#FFC916"/>
<path d="M55.6 62.7797C55.5663 62.8496 54.9611 62.7099 54.9013 62.6788C54.8415 62.6477 54.6622 62.5545 54.7631 62.3447C54.8641 62.1348 55.0434 62.228 55.1032 62.2591C55.1629 62.2902 55.6336 62.7097 55.6 62.7797Z" fill="#FFC916"/>
<path d="M57.8619 65.8907C57.9323 65.8639 58.3114 66.3701 58.3379 66.4323C58.3644 66.4944 58.4438 66.681 58.2326 66.7613C58.0213 66.8416 57.9419 66.655 57.9154 66.5928C57.8889 66.5306 57.7915 65.9174 57.8619 65.8907Z" fill="#FFC916"/>
<path d="M56.1962 65.3689C56.2381 65.4374 55.8149 65.864 55.7586 65.8962C55.7023 65.9283 55.5334 66.0248 55.408 65.8192C55.2825 65.6137 55.4515 65.5172 55.5078 65.485C55.5641 65.4528 56.1544 65.3004 56.1962 65.3689Z" fill="#FFC916"/>
<path d="M57.1892 65.8184C57.2658 65.8249 57.3962 66.4336 57.3936 66.4998C57.3911 66.566 57.3835 66.7645 57.1537 66.745C56.924 66.7254 56.9316 66.5268 56.9341 66.4607C56.9367 66.3945 57.1126 65.8119 57.1892 65.8184Z" fill="#FFC916"/>
<path d="M56.6659 65.6313C56.7344 65.667 56.6163 66.2689 56.5879 66.3279C56.5595 66.3868 56.4745 66.5637 56.2688 66.4568C56.0631 66.3499 56.1482 66.173 56.1766 66.1141C56.2049 66.0551 56.5973 65.5957 56.6659 65.6313Z" fill="#FFC916"/>
<path d="M58.9626 62.2062C59.008 62.2726 59.5874 62.0884 59.6417 62.0532C59.696 62.018 59.8589 61.9123 59.7227 61.7129C59.5865 61.5136 59.4236 61.6193 59.3693 61.6545C59.315 61.6898 58.9172 62.1397 58.9626 62.2062Z" fill="#FFC916"/>
<path d="M57.3021 61.6666C57.3707 61.6361 57.2402 61.0272 57.2104 60.9664C57.1807 60.9055 57.0914 60.7229 56.8855 60.8146C56.6796 60.9063 56.7688 61.0889 56.7986 61.1497C56.8284 61.2106 57.2335 61.6972 57.3021 61.6666Z" fill="#FFC916"/>
<path d="M58.3666 61.8761C58.4323 61.9166 58.8582 61.4883 58.8909 61.4318C58.9236 61.3752 59.0218 61.2054 58.8248 61.084C58.6279 60.9625 58.5297 61.1323 58.497 61.1888C58.4642 61.2454 58.301 61.8356 58.3666 61.8761Z" fill="#FFC916"/>
<path d="M57.8337 61.7206C57.9098 61.7327 58.1294 61.1666 58.1369 61.101C58.1444 61.0354 58.1669 60.8386 57.9387 60.8021C57.7104 60.7656 57.6879 60.9624 57.6805 61.028C57.673 61.0936 57.7576 61.7084 57.8337 61.7206Z" fill="#FFC916"/>
<path d="M59.2092 65.1639C59.1467 65.2045 59.3673 65.792 59.4057 65.8483C59.4441 65.9045 59.5594 66.0733 59.7471 65.9514C59.9348 65.8295 59.8196 65.6608 59.7811 65.6045C59.7427 65.5482 59.2718 65.1232 59.2092 65.1639Z" fill="#FFC916"/>
<path d="M59.6996 63.5684C59.7347 63.6401 60.3403 63.5455 60.3998 63.519C60.4592 63.4926 60.6377 63.4132 60.5323 63.1978C60.4269 62.9825 60.2485 63.0619 60.189 63.0884C60.1296 63.1148 59.6645 63.4966 59.6996 63.5684Z" fill="#FFC916"/>
<path d="M59.5341 64.5981C59.4952 64.6654 59.9339 65.1186 59.9913 65.1539C60.0487 65.1893 60.2208 65.2955 60.3376 65.0936C60.4544 64.8917 60.2822 64.7855 60.2248 64.7501C60.1674 64.7148 59.573 64.5308 59.5341 64.5981Z" fill="#FFC916"/>
<path d="M59.6671 64.0855C59.6583 64.1629 60.2342 64.4127 60.3002 64.4232C60.3662 64.4338 60.564 64.4654 60.5906 64.2332C60.6171 64.001 60.4192 63.9694 60.3532 63.9588C60.2873 63.9483 59.6759 64.0081 59.6671 64.0855Z" fill="#FFC916"/>
<ellipse cx="3.8551" cy="5.50231" rx="3.8551" ry="5.50231" transform="matrix(0.383069 -0.922934 0.914145 0.407407 31.4106 59.2048)" fill="#00720D"/>
<ellipse cx="3.35395" cy="4.78979" rx="3.35395" ry="4.78979" transform="matrix(0.383069 -0.922934 0.914145 0.407407 32.926 59.2861)" fill="#C9FFD0"/>
<g filter="url(#filter16_f_139_2063)">
<ellipse cx="1.61907" cy="2.29585" rx="1.61907" ry="2.29585" transform="matrix(0.383066 -0.922935 0.914144 0.40741 35.8191 58.7202)" fill="#B7FFBF"/>
</g>
<path d="M36.3354 58.1276C36.3602 58.2431 35.5227 58.6208 35.4241 58.6371C35.3256 58.6533 35.0299 58.7022 34.9555 58.3556C34.8812 58.009 35.1769 57.9602 35.2755 57.9439C35.374 57.9276 36.3107 58.0121 36.3354 58.1276Z" fill="#A2FFAC"/>
<path d="M37.53 59.0909C37.6264 59.1585 37.3246 60.0186 37.2696 60.0991C37.2147 60.1796 37.0498 60.4212 36.7606 60.2183C36.4713 60.0153 36.6362 59.7738 36.6912 59.6932C36.7461 59.6127 37.4336 59.0232 37.53 59.0909Z" fill="#A2FFAC"/>
<path d="M39.3513 59.7084C39.4675 59.7254 39.6072 60.6484 39.5969 60.7472C39.5866 60.846 39.5557 61.1423 39.2072 61.0914C38.8587 61.0405 38.8896 60.7441 38.8999 60.6453C38.9102 60.5465 39.2351 59.6914 39.3513 59.7084Z" fill="#A2FFAC"/>
<path d="M40.9925 59.6869C41.0775 59.6122 41.8691 60.1487 41.9381 60.2249C42.0072 60.3011 42.2143 60.5297 41.9593 60.7537C41.7043 60.9777 41.4972 60.7491 41.4281 60.6729C41.3591 60.5967 40.9075 59.7616 40.9925 59.6869Z" fill="#A2FFAC"/>
<path d="M36.993 56.5835C37.0898 56.5236 36.7746 55.6355 36.718 55.5501C36.6615 55.4648 36.4919 55.2087 36.2017 55.3886C35.9114 55.5685 36.081 55.8246 36.1375 55.9099C36.194 55.9953 36.8963 56.6435 36.993 56.5835Z" fill="#A2FFAC"/>
<path d="M36.0653 57.0368C36.1097 56.9298 35.3598 56.3421 35.2666 56.3006C35.1733 56.259 34.8937 56.1345 34.7603 56.4556C34.6269 56.7767 34.9066 56.9013 34.9998 56.9428C35.093 56.9843 36.0208 57.1438 36.0653 57.0368Z" fill="#A2FFAC"/>
<path d="M38.5038 56.8079C38.6185 56.8343 39.0151 56.0116 39.0337 55.9144C39.0522 55.8171 39.108 55.5253 38.7639 55.4462C38.4199 55.367 38.3642 55.6588 38.3456 55.7561C38.327 55.8534 38.3891 56.7815 38.5038 56.8079Z" fill="#A2FFAC"/>
<path d="M40.198 57.7244C40.2918 57.8017 41.0361 57.2779 41.098 57.2025C41.1598 57.1271 41.3454 56.901 41.0639 56.6691C40.7825 56.4371 40.5969 56.6633 40.5351 56.7387C40.4732 56.814 40.1041 57.6471 40.198 57.7244Z" fill="#A2FFAC"/>
<path d="M41.3081 58.953C41.3143 59.0701 42.2323 59.299 42.3329 59.2984C42.4336 59.2978 42.7355 59.296 42.717 58.9446C42.6985 58.5932 42.3966 58.595 42.296 58.5956C42.1954 58.5962 41.302 58.8358 41.3081 58.953Z" fill="#A2FFAC"/>
<path d="M35.5819 72.8151C34.5836 71.6428 34.2284 70.568 34.3464 69.6363C34.3477 69.4517 34.3873 69.284 34.4608 69.1315C34.7967 68.1114 35.7306 67.2964 36.9997 66.7607C37.732 66.4516 39.2878 66.1353 41.1355 65.8364C39.9991 64.9858 39.0648 63.9952 39.0519 63.0317C39.0189 60.5583 41.4263 59.5619 44.9187 60.1731C46.8302 60.5076 49.8099 62.6285 52.1176 64.4778C52.1746 64.4723 52.2047 64.4682 52.2058 64.4681L55.6399 67.1886C55.6308 67.2607 54.4901 76.2785 51.9433 77.8244C49.3864 79.3763 46.5458 79.2051 44.6937 77.0303C43.9429 76.1486 44.0344 74.987 44.408 73.9169C42.6186 74.2425 41.0453 74.4529 40.148 74.3974C38.884 74.3192 37.7017 74.044 36.7389 73.5371C36.2772 73.4002 35.8819 73.1675 35.5819 72.8151Z" fill="#AEEE98"/>
<path d="M41.9219 69.985L41.3456 69.891C41.3456 69.891 46.363 68.7532 47.1425 68.5667C47.9219 68.3802 52.7355 67.3053 52.7355 67.3053L53.2744 67.3952C53.2744 67.3952 48.0887 68.7665 47.3864 68.9519C46.6841 69.1373 41.9219 69.985 41.9219 69.985Z" fill="#85DB69"/>
<ellipse cx="4.6093" cy="4.6865" rx="4.6093" ry="4.6865" transform="matrix(0.278251 -0.959415 0.951092 0.312889 22.884 72.0845)" fill="#FF2020"/>
<g filter="url(#filter17_i_139_2063)">
<ellipse cx="3.91791" cy="3.98353" rx="3.91791" ry="3.98353" transform="matrix(0.278251 -0.959415 0.951092 0.312889 23.745 71.6409)" fill="#FFA4A4"/>
</g>
<g filter="url(#filter18_i_139_2063)">
<path d="M29.0967 69.273L30.5985 71.8596C30.5985 71.8596 31.4356 71.4921 31.8197 70.1684C32.2038 68.8448 31.7072 68.0387 31.7072 68.0387L29.0967 69.273Z" fill="#FF3434"/>
</g>
<g filter="url(#filter19_i_139_2063)">
<path d="M28.4918 69.5442L29.8314 72.2309C29.8314 72.2309 29.1559 72.7373 27.7039 72.2598C26.2519 71.7822 25.9623 70.9585 25.9623 70.9585L28.4918 69.5442Z" fill="#FF3434"/>
</g>
<g filter="url(#filter20_i_139_2063)">
<path d="M28.7559 68.7129L31.2854 67.2985C31.2854 67.2985 30.9798 66.5302 29.5439 65.9973C28.108 65.4644 27.4164 66.0261 27.4164 66.0261L28.7559 68.7129Z" fill="#FF3434"/>
</g>
<g filter="url(#filter21_i_139_2063)">
<path d="M28.1511 68.984L25.5405 70.2183C25.5405 70.2183 25.108 69.1916 25.4281 68.0886C25.7482 66.9855 26.6493 66.3974 26.6493 66.3974L28.1511 68.984Z" fill="#FF3434"/>
</g>
<path d="M26.4259 69.3237C26.4571 69.397 25.9705 69.7522 25.9095 69.7753C25.8485 69.7985 25.6655 69.868 25.5718 69.648C25.478 69.4281 25.6611 69.3586 25.7221 69.3354C25.7831 69.3122 26.3946 69.2504 26.4259 69.3237Z" fill="#FFC916"/>
<path d="M26.8977 67.7219C26.8328 67.7591 26.3843 67.3108 26.3489 67.2528C26.3135 67.1947 26.2073 67.0206 26.4021 66.9092C26.5969 66.7979 26.7031 66.972 26.7385 67.0301C26.7739 67.0881 26.9627 67.6848 26.8977 67.7219Z" fill="#FFC916"/>
<path d="M26.4709 68.6685C26.468 68.7465 25.8647 68.8516 25.7983 68.8459C25.732 68.8403 25.5329 68.8233 25.5418 68.5892C25.5507 68.355 25.7498 68.372 25.8162 68.3777C25.8826 68.3833 26.4739 68.5904 26.4709 68.6685Z" fill="#FFC916"/>
<path d="M26.6373 68.1661C26.6037 68.2361 25.9984 68.0963 25.9386 68.0653C25.8789 68.0342 25.6995 67.941 25.8005 67.7311C25.9014 67.5213 26.0807 67.6145 26.1405 67.6456C26.2003 67.6767 26.671 68.0962 26.6373 68.1661Z" fill="#FFC916"/>
<path d="M28.8995 71.2771C28.9699 71.2504 29.349 71.7565 29.3755 71.8187C29.402 71.8809 29.4814 72.0675 29.2702 72.1478C29.0589 72.228 28.9795 72.0415 28.953 71.9793C28.9265 71.9171 28.8291 71.3039 28.8995 71.2771Z" fill="#FFC916"/>
<path d="M27.2337 70.7554C27.2755 70.8239 26.8524 71.2505 26.7961 71.2826C26.7398 71.3148 26.5709 71.4113 26.4455 71.2057C26.32 71.0001 26.4889 70.9036 26.5452 70.8715C26.6015 70.8393 27.1919 70.6869 27.2337 70.7554Z" fill="#FFC916"/>
<path d="M28.2266 71.2049C28.3032 71.2114 28.4335 71.8201 28.431 71.8863C28.4285 71.9525 28.4208 72.151 28.1911 72.1314C27.9613 72.1119 27.9689 71.9133 27.9715 71.8471C27.974 71.7809 28.15 71.1984 28.2266 71.2049Z" fill="#FFC916"/>
<path d="M27.7034 71.0178C27.7719 71.0534 27.6538 71.6554 27.6254 71.7144C27.597 71.7733 27.5119 71.9502 27.3063 71.8433C27.1006 71.7364 27.1857 71.5595 27.214 71.5005C27.2424 71.4416 27.6348 70.9822 27.7034 71.0178Z" fill="#FFC916"/>
<path d="M30 67.5926C30.0454 67.6591 30.6248 67.4749 30.6791 67.4397C30.7334 67.4044 30.8962 67.2988 30.76 67.0994C30.6238 66.9001 30.4609 67.0058 30.4067 67.041C30.3524 67.0762 29.9546 67.5262 30 67.5926Z" fill="#FFC916"/>
<path d="M28.3393 67.0531C28.408 67.0225 28.2774 66.4137 28.2477 66.3528C28.2179 66.292 28.1286 66.1094 27.9227 66.2011C27.7168 66.2928 27.8061 66.4754 27.8358 66.5362C27.8656 66.5971 28.2707 67.0837 28.3393 67.0531Z" fill="#FFC916"/>
<path d="M29.4041 67.2626C29.4698 67.3031 29.8956 66.8748 29.9284 66.8182C29.9611 66.7616 30.0593 66.5919 29.8623 66.4704C29.6653 66.349 29.5672 66.5187 29.5344 66.5753C29.5017 66.6319 29.3385 67.2221 29.4041 67.2626Z" fill="#FFC916"/>
<path d="M28.8711 67.107C28.9471 67.1192 29.1668 66.5531 29.1743 66.4875C29.1818 66.4219 29.2043 66.2251 28.976 66.1886C28.7478 66.1521 28.7253 66.3489 28.7178 66.4145C28.7103 66.4801 28.795 67.0949 28.8711 67.107Z" fill="#FFC916"/>
<path d="M30.2465 70.5503C30.1839 70.591 30.4045 71.1785 30.4429 71.2347C30.4813 71.291 30.5966 71.4597 30.7843 71.3379C30.972 71.216 30.8568 71.0472 30.8184 70.991C30.78 70.9347 30.3091 70.5097 30.2465 70.5503Z" fill="#FFC916"/>
<path d="M30.7368 68.9548C30.772 69.0266 31.3775 68.932 31.437 68.9055C31.4965 68.879 31.6749 68.7996 31.5695 68.5843C31.4642 68.369 31.2857 68.4484 31.2263 68.4749C31.1668 68.5013 30.7017 68.8831 30.7368 68.9548Z" fill="#FFC916"/>
<path d="M30.5714 69.9846C30.5325 70.0519 30.9712 70.505 31.0286 70.5404C31.086 70.5758 31.2582 70.682 31.375 70.4801C31.4918 70.2782 31.3196 70.172 31.2622 70.1366C31.2048 70.1012 30.6104 69.9173 30.5714 69.9846Z" fill="#FFC916"/>
<path d="M30.7044 69.472C30.6956 69.5494 31.2716 69.7991 31.3376 69.8097C31.4035 69.8202 31.6014 69.8519 31.6279 69.6197C31.6544 69.3875 31.4565 69.3558 31.3906 69.3453C31.3246 69.3347 30.7133 69.3945 30.7044 69.472Z" fill="#FFC916"/>
<ellipse cx="3.84527" cy="5.5132" rx="3.84527" ry="5.5132" transform="matrix(-0.701009 0.71419 -0.73288 -0.67962 70.9856 79.5657)" fill="#00720D"/>
<ellipse cx="3.3454" cy="4.79927" rx="3.3454" ry="4.79927" transform="matrix(-0.701009 0.71419 -0.73288 -0.67962 69.5615 78.9746)" fill="#C9FFD0"/>
<g filter="url(#filter22_f_139_2063)">
<ellipse cx="1.61495" cy="2.30041" rx="1.61495" ry="2.30041" transform="matrix(-0.701011 0.714188 -0.732882 -0.679618 66.573 78.512)" fill="#B7FFBF"/>
</g>
<path d="M65.8342 78.8829C65.8515 78.7703 66.7927 78.7118 66.8935 78.7303C66.9942 78.7489 67.2964 78.8044 67.2444 79.1423C67.1925 79.4801 66.8903 79.4245 66.7896 79.406C66.6888 79.3875 65.8169 78.9955 65.8342 78.8829Z" fill="#A2FFAC"/>
<path d="M65.0353 77.5839C64.966 77.4887 65.568 76.8023 65.6503 76.7472C65.7326 76.692 65.9795 76.5267 66.1876 76.8122C66.3957 77.0977 66.1488 77.263 66.0665 77.3181C65.9842 77.3733 65.1047 77.6791 65.0353 77.5839Z" fill="#A2FFAC"/>
<path d="M63.5269 76.3889C63.4193 76.3331 63.6103 75.4431 63.6555 75.3567C63.7006 75.2702 63.836 75.0108 64.1587 75.1783C64.4814 75.3458 64.346 75.6052 64.3009 75.6917C64.2558 75.7782 63.6345 76.4447 63.5269 76.3889Z" fill="#A2FFAC"/>
<path d="M61.9587 75.8504C61.8485 75.8906 61.2778 75.1364 61.2389 75.0437C61.2 74.951 61.0832 74.6728 61.4138 74.5523C61.7444 74.4319 61.8612 74.71 61.9001 74.8028C61.939 74.8955 62.0689 75.8103 61.9587 75.8504Z" fill="#A2FFAC"/>
<path d="M64.6669 80.0915C64.5509 80.1139 64.5317 81.0315 64.5554 81.1285C64.579 81.2254 64.65 81.5164 64.998 81.4491C65.346 81.3817 65.275 81.0908 65.2514 80.9939C65.2277 80.8969 64.7829 80.069 64.6669 80.0915Z" fill="#A2FFAC"/>
<path d="M65.7068 79.9859C65.6257 80.0685 66.1371 80.8586 66.2119 80.928C66.2868 80.9974 66.5113 81.2057 66.7545 80.9578C66.9976 80.71 66.7731 80.5017 66.6983 80.4323C66.6235 80.3628 65.7878 79.9033 65.7068 79.9859Z" fill="#A2FFAC"/>
<path d="M63.3102 79.3715C63.2072 79.3073 62.5279 79.9185 62.4753 80.0006C62.4228 80.0828 62.265 80.3293 62.5742 80.5217C62.8834 80.7142 63.0411 80.4677 63.0937 80.3856C63.1462 80.3034 63.4133 79.4356 63.3102 79.3715Z" fill="#A2FFAC"/>
<path d="M62.0276 77.9428C61.9663 77.8426 61.0612 78.0751 60.9742 78.1232C60.8873 78.1714 60.6264 78.3157 60.8102 78.6163C60.994 78.9169 61.2549 78.7726 61.3419 78.7245C61.4288 78.6764 62.0889 78.043 62.0276 77.9428Z" fill="#A2FFAC"/>
<path d="M61.4043 76.4276C61.4398 76.32 60.6361 75.802 60.5389 75.7683C60.4417 75.7347 60.1502 75.6338 60.0437 75.9567C59.9372 76.2796 60.2288 76.3805 60.326 76.4141C60.4231 76.4478 61.3688 76.5352 61.4043 76.4276Z" fill="#A2FFAC"/>
<ellipse cx="3.93164" cy="5.35006" rx="3.93164" ry="5.35006" transform="matrix(-0.933105 -0.362454 0.332827 -0.942049 43.2836 85.9619)" fill="#00720D"/>
<ellipse cx="3.42051" cy="4.65723" rx="3.42051" ry="4.65723" transform="matrix(-0.933105 -0.362453 0.332827 -0.942048 43.2327 84.4636)" fill="#C9FFD0"/>
<g filter="url(#filter23_f_139_2063)">
<ellipse cx="1.65137" cy="2.23248" rx="1.65137" ry="2.23248" transform="matrix(-0.933104 -0.362457 0.332823 -0.94205 42.4132 81.5884)" fill="#B7FFBF"/>
</g>
<path d="M41.7869 81.0358C41.8996 81.0112 42.3605 81.8403 42.3867 81.9379C42.4128 82.0355 42.4913 82.3283 42.1532 82.4023C41.8151 82.4763 41.7366 82.1835 41.7104 82.0859C41.6842 81.9883 41.6741 81.0605 41.7869 81.0358Z" fill="#A2FFAC"/>
<path d="M42.6659 79.8568C42.7262 79.7573 43.6238 80.0491 43.7101 80.1037C43.7965 80.1582 44.0555 80.3218 43.8746 80.6203C43.6937 80.9187 43.4347 80.7551 43.3484 80.7006C43.262 80.6461 42.6056 79.9563 42.6659 79.8568Z" fill="#A2FFAC"/>
<path d="M43.1261 78.0751C43.1321 77.9582 44.0486 77.8109 44.1491 77.8205C44.2496 77.8301 44.5511 77.859 44.5332 78.2097C44.5153 78.5604 44.2138 78.5316 44.1132 78.5219C44.0127 78.5123 43.1201 78.192 43.1261 78.0751Z" fill="#A2FFAC"/>
<path d="M42.9519 76.4707C42.8661 76.3847 43.3212 75.5978 43.3909 75.5295C43.4605 75.4612 43.6694 75.2562 43.9268 75.5143C44.1841 75.7723 43.9752 75.9773 43.9056 76.0456C43.8359 76.1139 43.0377 76.5567 42.9519 76.4707Z" fill="#A2FFAC"/>
<path d="M40.1413 80.4133C40.0698 80.316 39.2037 80.6255 39.1234 80.6815C39.043 80.7376 38.802 80.9056 39.0165 81.1976C39.231 81.4896 39.472 81.3215 39.5524 81.2655C39.6327 81.2095 40.2128 80.5107 40.1413 80.4133Z" fill="#A2FFAC"/>
<path d="M40.6967 81.3078C40.587 81.2652 40.0713 82.0176 40.0383 82.1106C40.0054 82.2037 39.9067 82.4828 40.2359 82.6106C40.5651 82.7383 40.6638 82.4592 40.6967 82.3661C40.7296 82.273 40.8064 81.3504 40.6967 81.3078Z" fill="#A2FFAC"/>
<path d="M40.2288 78.9343C40.2445 78.8186 39.3788 78.4271 39.2791 78.4093C39.1794 78.3915 38.8802 78.3381 38.8329 78.6851C38.7855 79.032 39.0846 79.0854 39.1844 79.1032C39.2841 79.121 40.213 79.0499 40.2288 78.9343Z" fill="#A2FFAC"/>
<path d="M41.0125 77.2777C41.0787 77.1872 40.4674 76.4496 40.3848 76.3878C40.3022 76.326 40.0544 76.1405 39.856 76.4121C39.6575 76.6837 39.9054 76.8692 39.988 76.931C40.0706 76.9929 40.9464 77.3682 41.0125 77.2777Z" fill="#A2FFAC"/>
<path d="M42.1644 76.1758C42.2805 76.1692 42.4187 75.2582 42.4083 75.1585C42.3979 75.0587 42.3666 74.7594 42.0185 74.7792C41.6704 74.7989 41.7016 75.0982 41.7121 75.198C41.7225 75.2977 42.0484 76.1824 42.1644 76.1758Z" fill="#A2FFAC"/>
<path d="M54.4562 63.9652C54.3546 67.2448 51.9513 69.7266 49.0884 69.5085C46.2254 69.2905 43.9869 66.4551 44.0885 63.1756C44.1901 59.8961 46.6412 55.8704 49.5041 56.0884C52.3671 56.3065 54.5578 60.6857 54.4562 63.9652Z" fill="white"/>
<ellipse cx="3.40353" cy="3.57448" rx="3.40353" ry="3.57448" transform="matrix(0.998945 0.0761178 -0.0308734 0.997786 45.9617 60.3271)" fill="#FFC916"/>
<path d="M72.2405 84.8864C71.8299 85.8207 72.8856 86.2879 73.2375 85.4704C74.9384 81.2072 76.2873 77.0024 78.4574 73.0313C80.0996 69.9945 83.9119 70.0529 85.5541 73.0313C86.4925 74.7833 87.6655 76.8272 88.7212 79.28C88.4866 80.6232 88.3106 82.1416 88.076 83.6016C87.8414 84.6528 89.1317 85.0031 89.3077 83.8352C90.1875 77.5864 90.6567 71.2209 92.0056 65.0306C92.944 60.709 94.8795 57.2635 99.7474 57.2635C104.733 57.2635 107.489 60.709 107.548 65.0306C107.841 76.068 106.14 88.8575 103.912 99.3694C102.856 103.983 100.334 107.195 95.9352 107.195C93.0027 107.195 91.1259 106.027 89.9528 104.275C87.0203 99.9534 84.7916 94.2887 82.6802 88.8575C82.3283 88.0983 81.6832 88.0983 81.3899 88.8575C79.2785 94.347 77.0498 99.9534 74.1173 104.275C72.8856 106.027 71.1261 107.195 68.1349 107.195C63.6775 107.195 61.1556 103.983 60.1585 99.3694C57.8711 88.8575 56.2289 76.068 56.5222 65.0306C56.6395 60.709 59.3961 57.2635 64.264 57.2635C69.1906 57.2635 71.1261 60.709 72.0645 65.0306C72.9443 69.2353 73.6481 74.9585 74.2346 79.572C73.2962 81.4408 72.8856 82.5504 72.2405 84.8864Z" fill="#FFC916"/>
<path d="M117.808 66.193C113.82 66.193 110.125 63.2731 110.125 58.0755C110.125 53.2284 113.879 49.958 117.808 49.958C122.09 49.958 125.491 54.046 125.491 58.2507C125.491 62.5723 122.266 66.193 117.808 66.193ZM109.949 95.5679C111.501 88.6768 114.167 81.0265 109.949 74.1353C110.36 71.449 112.823 69.2298 117.808 69.2298C122.618 69.2298 125.022 71.449 125.491 74.1353C121.333 81.0265 123.999 88.6768 125.491 95.5679C125.022 98.3127 122.618 100.473 117.808 100.473C112.823 100.473 110.36 98.3127 109.949 95.5679Z" fill="#FFC916"/>
<path d="M144.48 83.7768C144.89 84.7112 146.298 84.1856 145.77 83.1928C143.952 79.6304 140.433 75.5425 134.626 74.5497C129.113 73.5569 125.653 71.2793 125.653 66.3154C125.653 60.8258 132.339 57.2635 141.195 57.2635C147.823 57.2635 157.617 59.4242 157.148 66.0234C156.855 70.2865 153.395 71.6881 149.934 71.6881C147.354 71.6881 145.301 70.4033 143.424 68.9433C141.371 67.3666 140.081 66.2569 138.028 64.3298C137.266 63.629 136.269 64.6218 136.972 65.2058C139.318 67.5417 143.189 71.2209 150.521 73.9073C154.802 75.4257 158.79 78.7544 158.321 84.7112C157.793 90.9599 150.579 94.5807 142.075 94.5807C133.395 94.5807 126.474 90.9599 125.418 84.4776C124.656 79.9224 126.415 75.5425 132.75 75.5425C138.849 75.5425 142.016 79.7472 144.48 83.7768Z" fill="#FFC916"/>
<path d="M176.527 86.6063C176.351 89.7014 176.175 92.7966 175.882 95.8334C175.413 100.213 173.008 103.659 168.14 103.659C163.155 103.659 160.809 100.213 160.339 95.8334C159.929 91.979 159.753 88.183 159.636 84.3287V82.2847C159.577 75.6272 159.988 67.1009 160.398 60.8522C160.809 54.8954 163.272 53.669 167.905 53.669C172.421 53.669 174.826 54.8954 175.413 60.8522C175.588 62.5457 175.764 66.4001 175.823 68.3857C173.594 70.0792 172.304 71.8312 171.19 74.4008C170.603 75.8608 171.952 76.5032 172.539 75.452C173.125 74.2256 173.888 73.0576 174.709 71.8896C177.231 68.4441 180.691 66.7505 184.445 66.7505C192.011 66.7505 195.764 73.116 195.823 80.7663C195.882 86.1391 195.53 90.4022 194.943 95.8334C194.533 100.213 192.069 103.659 187.201 103.659C182.216 103.659 179.87 100.213 179.401 95.8334C179.049 92.7966 178.873 89.8182 178.756 86.7815C178.638 86.0807 178.11 85.7887 177.641 85.7887C177.172 85.7887 176.703 86.0807 176.527 86.6063Z" fill="#FFC916"/>
<defs>
<filter id="filter0_i_139_2063" x="38.4839" y="46.571" width="7.88684" height="7.92236" filterUnits="userSpaceOnUse" color-interpolation-filters="sRGB">
<feFlood flood-opacity="0" result="BackgroundImageFix"/>
<feBlend mode="normal" in="SourceGraphic" in2="BackgroundImageFix" result="shape"/>
<feColorMatrix in="SourceAlpha" type="matrix" values="0 0 0 0 0 0 0 0 0 0 0 0 0 0 0 0 0 0 127 0" result="hardAlpha"/>
<feMorphology radius="3" operator="erode" in="SourceAlpha" result="effect1_innerShadow_139_2063"/>
<feOffset/>
<feGaussianBlur stdDeviation="6.7"/>
<feComposite in2="hardAlpha" operator="arithmetic" k2="-1" k3="1"/>
<feColorMatrix type="matrix" values="0 0 0 0 1 0 0 0 0 0.483333 0 0 0 0 0.483333 0 0 0 1 0"/>
<feBlend mode="normal" in2="shape" result="effect1_innerShadow_139_2063"/>
</filter>
<filter id="filter1_i_139_2063" x="42.9001" y="49.4424" width="2.86877" height="3.82104" filterUnits="userSpaceOnUse" color-interpolation-filters="sRGB">
<feFlood flood-opacity="0" result="BackgroundImageFix"/>
<feBlend mode="normal" in="SourceGraphic" in2="BackgroundImageFix" result="shape"/>
<feColorMatrix in="SourceAlpha" type="matrix" values="0 0 0 0 0 0 0 0 0 0 0 0 0 0 0 0 0 0 127 0" result="hardAlpha"/>
<feOffset/>
<feGaussianBlur stdDeviation="2"/>
<feComposite in2="hardAlpha" operator="arithmetic" k2="-1" k3="1"/>
<feColorMatrix type="matrix" values="0 0 0 0 1 0 0 0 0 0 0 0 0 0 0 0 0 0 1 0"/>
<feBlend mode="normal" in2="shape" result="effect1_innerShadow_139_2063"/>
</filter>
<filter id="filter2_i_139_2063" x="39.7657" y="50.948" width="3.86914" height="2.92065" filterUnits="userSpaceOnUse" color-interpolation-filters="sRGB">
<feFlood flood-opacity="0" result="BackgroundImageFix"/>
<feBlend mode="normal" in="SourceGraphic" in2="BackgroundImageFix" result="shape"/>
<feColorMatrix in="SourceAlpha" type="matrix" values="0 0 0 0 0 0 0 0 0 0 0 0 0 0 0 0 0 0 127 0" result="hardAlpha"/>
<feOffset/>
<feGaussianBlur stdDeviation="2"/>
<feComposite in2="hardAlpha" operator="arithmetic" k2="-1" k3="1"/>
<feColorMatrix type="matrix" values="0 0 0 0 1 0 0 0 0 0 0 0 0 0 0 0 0 0 1 0"/>
<feBlend mode="normal" in2="shape" result="effect1_innerShadow_139_2063"/>
</filter>
<filter id="filter3_i_139_2063" x="41.2198" y="47.1714" width="3.86902" height="2.94531" filterUnits="userSpaceOnUse" color-interpolation-filters="sRGB">
<feFlood flood-opacity="0" result="BackgroundImageFix"/>
<feBlend mode="normal" in="SourceGraphic" in2="BackgroundImageFix" result="shape"/>
<feColorMatrix in="SourceAlpha" type="matrix" values="0 0 0 0 0 0 0 0 0 0 0 0 0 0 0 0 0 0 127 0" result="hardAlpha"/>
<feOffset/>
<feGaussianBlur stdDeviation="2"/>
<feComposite in2="hardAlpha" operator="arithmetic" k2="-1" k3="1"/>
<feColorMatrix type="matrix" values="0 0 0 0 1 0 0 0 0 0 0 0 0 0 0 0 0 0 1 0"/>
<feBlend mode="normal" in2="shape" result="effect1_innerShadow_139_2063"/>
</filter>
<filter id="filter4_i_139_2063" x="39.1135" y="47.8013" width="2.84094" height="3.8208" filterUnits="userSpaceOnUse" color-interpolation-filters="sRGB">
<feFlood flood-opacity="0" result="BackgroundImageFix"/>
<feBlend mode="normal" in="SourceGraphic" in2="BackgroundImageFix" result="shape"/>
<feColorMatrix in="SourceAlpha" type="matrix" values="0 0 0 0 0 0 0 0 0 0 0 0 0 0 0 0 0 0 127 0" result="hardAlpha"/>
<feOffset/>
<feGaussianBlur stdDeviation="2"/>
<feComposite in2="hardAlpha" operator="arithmetic" k2="-1" k3="1"/>
<feColorMatrix type="matrix" values="0 0 0 0 1 0 0 0 0 0 0 0 0 0 0 0 0 0 1 0"/>
<feBlend mode="normal" in2="shape" result="effect1_innerShadow_139_2063"/>
</filter>
<filter id="filter5_f_139_2063" x="49.8035" y="44.7273" width="11.8538" height="11.9893" filterUnits="userSpaceOnUse" color-interpolation-filters="sRGB">
<feFlood flood-opacity="0" result="BackgroundImageFix"/>
<feBlend mode="normal" in="SourceGraphic" in2="BackgroundImageFix" result="shape"/>
<feGaussianBlur stdDeviation="2" result="effect1_foregroundBlur_139_2063"/>
</filter>
<filter id="filter6_i_139_2063" x="44.4841" y="83.7847" width="7.88696" height="7.92236" filterUnits="userSpaceOnUse" color-interpolation-filters="sRGB">
<feFlood flood-opacity="0" result="BackgroundImageFix"/>
<feBlend mode="normal" in="SourceGraphic" in2="BackgroundImageFix" result="shape"/>
<feColorMatrix in="SourceAlpha" type="matrix" values="0 0 0 0 0 0 0 0 0 0 0 0 0 0 0 0 0 0 127 0" result="hardAlpha"/>
<feMorphology radius="3" operator="erode" in="SourceAlpha" result="effect1_innerShadow_139_2063"/>
<feOffset/>
<feGaussianBlur stdDeviation="6.7"/>
<feComposite in2="hardAlpha" operator="arithmetic" k2="-1" k3="1"/>
<feColorMatrix type="matrix" values="0 0 0 0 1 0 0 0 0 0.483333 0 0 0 0 0.483333 0 0 0 1 0"/>
<feBlend mode="normal" in2="shape" result="effect1_innerShadow_139_2063"/>
</filter>
<filter id="filter7_i_139_2063" x="48.9004" y="86.656" width="2.8689" height="3.82104" filterUnits="userSpaceOnUse" color-interpolation-filters="sRGB">
<feFlood flood-opacity="0" result="BackgroundImageFix"/>
<feBlend mode="normal" in="SourceGraphic" in2="BackgroundImageFix" result="shape"/>
<feColorMatrix in="SourceAlpha" type="matrix" values="0 0 0 0 0 0 0 0 0 0 0 0 0 0 0 0 0 0 127 0" result="hardAlpha"/>
<feOffset/>
<feGaussianBlur stdDeviation="2"/>
<feComposite in2="hardAlpha" operator="arithmetic" k2="-1" k3="1"/>
<feColorMatrix type="matrix" values="0 0 0 0 1 0 0 0 0 0 0 0 0 0 0 0 0 0 1 0"/>
<feBlend mode="normal" in2="shape" result="effect1_innerShadow_139_2063"/>
</filter>
<filter id="filter8_i_139_2063" x="45.766" y="88.1616" width="3.86902" height="2.92065" filterUnits="userSpaceOnUse" color-interpolation-filters="sRGB">
<feFlood flood-opacity="0" result="BackgroundImageFix"/>
<feBlend mode="normal" in="SourceGraphic" in2="BackgroundImageFix" result="shape"/>
<feColorMatrix in="SourceAlpha" type="matrix" values="0 0 0 0 0 0 0 0 0 0 0 0 0 0 0 0 0 0 127 0" result="hardAlpha"/>
<feOffset/>
<feGaussianBlur stdDeviation="2"/>
<feComposite in2="hardAlpha" operator="arithmetic" k2="-1" k3="1"/>
<feColorMatrix type="matrix" values="0 0 0 0 1 0 0 0 0 0 0 0 0 0 0 0 0 0 1 0"/>
<feBlend mode="normal" in2="shape" result="effect1_innerShadow_139_2063"/>
</filter>
<filter id="filter9_i_139_2063" x="47.22" y="84.385" width="3.86914" height="2.94531" filterUnits="userSpaceOnUse" color-interpolation-filters="sRGB">
<feFlood flood-opacity="0" result="BackgroundImageFix"/>
<feBlend mode="normal" in="SourceGraphic" in2="BackgroundImageFix" result="shape"/>
<feColorMatrix in="SourceAlpha" type="matrix" values="0 0 0 0 0 0 0 0 0 0 0 0 0 0 0 0 0 0 127 0" result="hardAlpha"/>
<feOffset/>
<feGaussianBlur stdDeviation="2"/>
<feComposite in2="hardAlpha" operator="arithmetic" k2="-1" k3="1"/>
<feColorMatrix type="matrix" values="0 0 0 0 1 0 0 0 0 0 0 0 0 0 0 0 0 0 1 0"/>
<feBlend mode="normal" in2="shape" result="effect1_innerShadow_139_2063"/>
</filter>
<filter id="filter10_i_139_2063" x="45.1136" y="85.0149" width="2.84094" height="3.8208" filterUnits="userSpaceOnUse" color-interpolation-filters="sRGB">
<feFlood flood-opacity="0" result="BackgroundImageFix"/>
<feBlend mode="normal" in="SourceGraphic" in2="BackgroundImageFix" result="shape"/>
<feColorMatrix in="SourceAlpha" type="matrix" values="0 0 0 0 0 0 0 0 0 0 0 0 0 0 0 0 0 0 127 0" result="hardAlpha"/>
<feOffset/>
<feGaussianBlur stdDeviation="2"/>
<feComposite in2="hardAlpha" operator="arithmetic" k2="-1" k3="1"/>
<feColorMatrix type="matrix" values="0 0 0 0 1 0 0 0 0 0 0 0 0 0 0 0 0 0 1 0"/>
<feBlend mode="normal" in2="shape" result="effect1_innerShadow_139_2063"/>
</filter>
<filter id="filter11_i_139_2063" x="53.6428" y="59.7808" width="7.88696" height="7.92236" filterUnits="userSpaceOnUse" color-interpolation-filters="sRGB">
<feFlood flood-opacity="0" result="BackgroundImageFix"/>
<feBlend mode="normal" in="SourceGraphic" in2="BackgroundImageFix" result="shape"/>
<feColorMatrix in="SourceAlpha" type="matrix" values="0 0 0 0 0 0 0 0 0 0 0 0 0 0 0 0 0 0 127 0" result="hardAlpha"/>
<feMorphology radius="3" operator="erode" in="SourceAlpha" result="effect1_innerShadow_139_2063"/>
<feOffset/>
<feGaussianBlur stdDeviation="6.7"/>
<feComposite in2="hardAlpha" operator="arithmetic" k2="-1" k3="1"/>
<feColorMatrix type="matrix" values="0 0 0 0 1 0 0 0 0 0.483333 0 0 0 0 0.483333 0 0 0 1 0"/>
<feBlend mode="normal" in2="shape" result="effect1_innerShadow_139_2063"/>
</filter>
<filter id="filter12_i_139_2063" x="58.0593" y="62.6521" width="2.8689" height="3.82104" filterUnits="userSpaceOnUse" color-interpolation-filters="sRGB">
<feFlood flood-opacity="0" result="BackgroundImageFix"/>
<feBlend mode="normal" in="SourceGraphic" in2="BackgroundImageFix" result="shape"/>
<feColorMatrix in="SourceAlpha" type="matrix" values="0 0 0 0 0 0 0 0 0 0 0 0 0 0 0 0 0 0 127 0" result="hardAlpha"/>
<feOffset/>
<feGaussianBlur stdDeviation="2"/>
<feComposite in2="hardAlpha" operator="arithmetic" k2="-1" k3="1"/>
<feColorMatrix type="matrix" values="0 0 0 0 1 0 0 0 0 0 0 0 0 0 0 0 0 0 1 0"/>
<feBlend mode="normal" in2="shape" result="effect1_innerShadow_139_2063"/>
</filter>
<filter id="filter13_i_139_2063" x="54.9248" y="64.1577" width="3.86914" height="2.92065" filterUnits="userSpaceOnUse" color-interpolation-filters="sRGB">
<feFlood flood-opacity="0" result="BackgroundImageFix"/>
<feBlend mode="normal" in="SourceGraphic" in2="BackgroundImageFix" result="shape"/>
<feColorMatrix in="SourceAlpha" type="matrix" values="0 0 0 0 0 0 0 0 0 0 0 0 0 0 0 0 0 0 127 0" result="hardAlpha"/>
<feOffset/>
<feGaussianBlur stdDeviation="2"/>
<feComposite in2="hardAlpha" operator="arithmetic" k2="-1" k3="1"/>
<feColorMatrix type="matrix" values="0 0 0 0 1 0 0 0 0 0 0 0 0 0 0 0 0 0 1 0"/>
<feBlend mode="normal" in2="shape" result="effect1_innerShadow_139_2063"/>
</filter>
<filter id="filter14_i_139_2063" x="56.3789" y="60.3811" width="3.86914" height="2.94531" filterUnits="userSpaceOnUse" color-interpolation-filters="sRGB">
<feFlood flood-opacity="0" result="BackgroundImageFix"/>
<feBlend mode="normal" in="SourceGraphic" in2="BackgroundImageFix" result="shape"/>
<feColorMatrix in="SourceAlpha" type="matrix" values="0 0 0 0 0 0 0 0 0 0 0 0 0 0 0 0 0 0 127 0" result="hardAlpha"/>
<feOffset/>
<feGaussianBlur stdDeviation="2"/>
<feComposite in2="hardAlpha" operator="arithmetic" k2="-1" k3="1"/>
<feColorMatrix type="matrix" values="0 0 0 0 1 0 0 0 0 0 0 0 0 0 0 0 0 0 1 0"/>
<feBlend mode="normal" in2="shape" result="effect1_innerShadow_139_2063"/>
</filter>
<filter id="filter15_i_139_2063" x="54.2727" y="61.011" width="2.84082" height="3.8208" filterUnits="userSpaceOnUse" color-interpolation-filters="sRGB">
<feFlood flood-opacity="0" result="BackgroundImageFix"/>
<feBlend mode="normal" in="SourceGraphic" in2="BackgroundImageFix" result="shape"/>
<feColorMatrix in="SourceAlpha" type="matrix" values="0 0 0 0 0 0 0 0 0 0 0 0 0 0 0 0 0 0 127 0" result="hardAlpha"/>
<feOffset/>
<feGaussianBlur stdDeviation="2"/>
<feComposite in2="hardAlpha" operator="arithmetic" k2="-1" k3="1"/>
<feColorMatrix type="matrix" values="0 0 0 0 1 0 0 0 0 0 0 0 0 0 0 0 0 0 1 0"/>
<feBlend mode="normal" in2="shape" result="effect1_innerShadow_139_2063"/>
</filter>
<filter id="filter16_f_139_2063" x="32.349" y="52.3982" width="12.3781" height="11.5261" filterUnits="userSpaceOnUse" color-interpolation-filters="sRGB">
<feFlood flood-opacity="0" result="BackgroundImageFix"/>
<feBlend mode="normal" in="SourceGraphic" in2="BackgroundImageFix" result="shape"/>
<feGaussianBlur stdDeviation="2" result="effect1_foregroundBlur_139_2063"/>
</filter>
<filter id="filter17_i_139_2063" x="24.6804" y="65.1672" width="7.88684" height="7.92236" filterUnits="userSpaceOnUse" color-interpolation-filters="sRGB">
<feFlood flood-opacity="0" result="BackgroundImageFix"/>
<feBlend mode="normal" in="SourceGraphic" in2="BackgroundImageFix" result="shape"/>
<feColorMatrix in="SourceAlpha" type="matrix" values="0 0 0 0 0 0 0 0 0 0 0 0 0 0 0 0 0 0 127 0" result="hardAlpha"/>
<feMorphology radius="3" operator="erode" in="SourceAlpha" result="effect1_innerShadow_139_2063"/>
<feOffset/>
<feGaussianBlur stdDeviation="6.7"/>
<feComposite in2="hardAlpha" operator="arithmetic" k2="-1" k3="1"/>
<feColorMatrix type="matrix" values="0 0 0 0 1 0 0 0 0 0.483333 0 0 0 0 0.483333 0 0 0 1 0"/>
<feBlend mode="normal" in2="shape" result="effect1_innerShadow_139_2063"/>
</filter>
<filter id="filter18_i_139_2063" x="29.0967" y="68.0386" width="2.86877" height="3.82104" filterUnits="userSpaceOnUse" color-interpolation-filters="sRGB">
<feFlood flood-opacity="0" result="BackgroundImageFix"/>
<feBlend mode="normal" in="SourceGraphic" in2="BackgroundImageFix" result="shape"/>
<feColorMatrix in="SourceAlpha" type="matrix" values="0 0 0 0 0 0 0 0 0 0 0 0 0 0 0 0 0 0 127 0" result="hardAlpha"/>
<feOffset/>
<feGaussianBlur stdDeviation="2"/>
<feComposite in2="hardAlpha" operator="arithmetic" k2="-1" k3="1"/>
<feColorMatrix type="matrix" values="0 0 0 0 1 0 0 0 0 0 0 0 0 0 0 0 0 0 1 0"/>
<feBlend mode="normal" in2="shape" result="effect1_innerShadow_139_2063"/>
</filter>
<filter id="filter19_i_139_2063" x="25.9623" y="69.5442" width="3.86914" height="2.92065" filterUnits="userSpaceOnUse" color-interpolation-filters="sRGB">
<feFlood flood-opacity="0" result="BackgroundImageFix"/>
<feBlend mode="normal" in="SourceGraphic" in2="BackgroundImageFix" result="shape"/>
<feColorMatrix in="SourceAlpha" type="matrix" values="0 0 0 0 0 0 0 0 0 0 0 0 0 0 0 0 0 0 127 0" result="hardAlpha"/>
<feOffset/>
<feGaussianBlur stdDeviation="2"/>
<feComposite in2="hardAlpha" operator="arithmetic" k2="-1" k3="1"/>
<feColorMatrix type="matrix" values="0 0 0 0 1 0 0 0 0 0 0 0 0 0 0 0 0 0 1 0"/>
<feBlend mode="normal" in2="shape" result="effect1_innerShadow_139_2063"/>
</filter>
<filter id="filter20_i_139_2063" x="27.4164" y="65.7676" width="3.86902" height="2.94531" filterUnits="userSpaceOnUse" color-interpolation-filters="sRGB">
<feFlood flood-opacity="0" result="BackgroundImageFix"/>
<feBlend mode="normal" in="SourceGraphic" in2="BackgroundImageFix" result="shape"/>
<feColorMatrix in="SourceAlpha" type="matrix" values="0 0 0 0 0 0 0 0 0 0 0 0 0 0 0 0 0 0 127 0" result="hardAlpha"/>
<feOffset/>
<feGaussianBlur stdDeviation="2"/>
<feComposite in2="hardAlpha" operator="arithmetic" k2="-1" k3="1"/>
<feColorMatrix type="matrix" values="0 0 0 0 1 0 0 0 0 0 0 0 0 0 0 0 0 0 1 0"/>
<feBlend mode="normal" in2="shape" result="effect1_innerShadow_139_2063"/>
</filter>
<filter id="filter21_i_139_2063" x="25.3101" y="66.3975" width="2.84094" height="3.8208" filterUnits="userSpaceOnUse" color-interpolation-filters="sRGB">
<feFlood flood-opacity="0" result="BackgroundImageFix"/>
<feBlend mode="normal" in="SourceGraphic" in2="BackgroundImageFix" result="shape"/>
<feColorMatrix in="SourceAlpha" type="matrix" values="0 0 0 0 0 0 0 0 0 0 0 0 0 0 0 0 0 0 127 0" result="hardAlpha"/>
<feOffset/>
<feGaussianBlur stdDeviation="2"/>
<feComposite in2="hardAlpha" operator="arithmetic" k2="-1" k3="1"/>
<feColorMatrix type="matrix" values="0 0 0 0 1 0 0 0 0 0 0 0 0 0 0 0 0 0 1 0"/>
<feBlend mode="normal" in2="shape" result="effect1_innerShadow_139_2063"/>
</filter>
<filter id="filter22_f_139_2063" x="57.7241" y="72.1589" width="12.0618" height="11.886" filterUnits="userSpaceOnUse" color-interpolation-filters="sRGB">
<feFlood flood-opacity="0" result="BackgroundImageFix"/>
<feBlend mode="normal" in="SourceGraphic" in2="BackgroundImageFix" result="shape"/>
<feGaussianBlur stdDeviation="2" result="effect1_foregroundBlur_139_2063"/>
</filter>
<filter id="filter23_f_139_2063" x="35.9043" y="72.6995" width="11.4221" height="12.3745" filterUnits="userSpaceOnUse" color-interpolation-filters="sRGB">
<feFlood flood-opacity="0" result="BackgroundImageFix"/>
<feBlend mode="normal" in="SourceGraphic" in2="BackgroundImageFix" result="shape"/>
<feGaussianBlur stdDeviation="2" result="effect1_foregroundBlur_139_2063"/>
</filter>
</defs>
</svg>
