<svg width="380" height="272" viewBox="0 0 380 272" fill="none" xmlns="http://www.w3.org/2000/svg">
<g clip-path="url(#clip0_253_1947)">
<rect width="380" height="272" rx="20" fill="#FFF0BE"/>
<path fill-rule="evenodd" clip-rule="evenodd" d="M277.582 156.714C283.137 161.565 282.001 168.918 275.777 175.491C272.355 179.103 263.424 181.542 256.074 183.005C256.06 183.032 256.054 183.046 256.054 183.046L245.079 185.339C245.079 185.339 226.397 165.017 226.571 156.302C226.745 147.586 231.173 141.616 238.674 141.765C241.627 141.824 244.039 144.162 245.879 146.976C247.644 142.342 249.37 138.422 250.742 136.533C254.59 131.236 259.724 128.219 265.239 130.41C271.52 132.297 273.624 138.272 272.593 144.805C272.243 147.018 270.763 151.048 268.822 155.688C272.17 154.932 275.499 154.895 277.582 156.714Z" fill="#85DB69"/>
<path d="M258.29 149.291L259.327 148.182C259.327 148.182 254.677 161.709 253.976 163.829C253.276 165.95 248.777 178.894 248.777 178.894L247.804 179.928C247.804 179.928 252.173 165.561 252.765 163.616C253.358 161.671 258.29 149.291 258.29 149.291Z" fill="#6AC04D"/>
<path d="M340.873 200.402C352.894 200.175 362.844 204.304 365.37 214.675C369.16 225.82 362.406 235.392 351.502 241.041C347.808 242.955 340.191 245.218 331.171 247.482C335.84 251.497 339.408 256.273 338.873 261.274C337.447 274.608 325.2 281.004 308.756 279.187C299.718 278.189 286.633 267.937 276.677 258.908C276.62 258.918 276.59 258.925 276.59 258.925L261.563 245.562C261.59 245.437 272.4 196.321 285.662 187.057C298.941 177.781 312.585 177.66 320.276 188.67C323.304 193.004 322.336 199.049 320.05 204.786C328.875 202.273 336.587 200.483 340.873 200.402Z" fill="#6AC04D"/>
<path d="M329.669 225.263L332.43 225.549C332.43 225.549 307.198 233.611 303.272 234.916C299.346 236.221 275.15 243.865 275.15 243.865L272.569 243.587C272.569 243.587 298.766 234.201 302.314 232.931C305.862 231.662 329.669 225.263 329.669 225.263Z" fill="#85DB69"/>
<path d="M36.7534 2.93213C37.3736 -7.07664 41.5337 -15.1984 50.4661 -16.9099C60.1428 -19.645 67.778 -13.6628 71.8159 -4.37496C73.1835 -1.22925 74.5821 5.19452 75.8861 12.7853C79.5946 9.05212 83.8718 6.2634 88.0624 6.89773C99.2345 8.58896 103.812 19.0207 101.166 32.6341C99.7119 40.1166 90.1647 50.6166 81.8617 58.5582C81.8666 58.6065 81.8695 58.6312 81.8695 58.6312L69.5613 70.6294C69.5613 70.6294 28.6883 59.7642 21.7464 48.365C14.8044 36.9658 15.6232 25.6082 25.4475 19.6254C29.3149 17.2702 34.3571 18.3041 39.0505 20.4233C37.5234 12.9852 36.5323 6.50134 36.7534 2.93213Z" fill="#BFECB0"/>
<path d="M57.0072 13.1944L57.4354 10.9075C57.4354 10.9075 62.5442 32.2069 63.3818 35.5226C64.2194 38.8383 69.045 59.2601 69.045 59.2601L68.6357 61.3972C68.6357 61.3972 62.473 39.2448 61.6399 36.2448C60.8069 33.2448 57.0072 13.1944 57.0072 13.1944Z" fill="#85DB69"/>
<path d="M50.0291 30.3208L57.8563 48.6605L-1.1404 131.744L-19.9342 224.708L-41.1796 234.764L-77.4866 200.398L-15.2472 112.748L50.0291 30.3208Z" fill="#FCC5A9"/>
<path d="M254.682 175.642L234.787 174.297L175.79 257.381L94.2146 305.764L91.7222 329.137L136.135 352.088L198.374 264.438L254.682 175.642Z" fill="#FCC5A9"/>
<circle cx="106.853" cy="168.789" r="130" transform="rotate(35.3782 106.853 168.789)" fill="#D6A173"/>
<circle cx="106.853" cy="168.789" r="117" transform="rotate(35.3782 106.853 168.789)" fill="#BF8D62"/>
<path d="M43.8477 28.4617L48.4882 44.7006L6.6656 84.8582L-25.2819 135.336L-51.6179 210.942L-77.736 200.776L-58.793 125.808L43.8477 28.4617Z" fill="#FFD5BF"/>
<path d="M-10.0365 105.41L-1.50882 113.918L-28.0471 162.206L-36.7217 220.714L-71.6078 203.346L-52.2013 147.518L-10.0365 105.41Z" fill="#FCC5A9"/>
<path d="M-9.74695 105.002L2.66561 113.816L-24.1785 161.597L-34.5984 218.588L-70.9106 203.228L-46.3532 148.304L-9.74695 105.002Z" fill="#FFD5BF"/>
<path d="M259.35 181.488L242.489 182.459L218.359 235.18L181.232 281.979L118.53 331.762L136.736 353.07L201.272 310.477L259.35 181.488Z" fill="#FFD5BF"/>
<path d="M203.328 256.598L198.065 252.861L159.118 291.837L105.365 316.517L131.791 345.159L179.971 310.924L203.328 256.598Z" fill="#FCC5A9"/>
<path d="M203.756 255.995L191.344 247.181L155.08 288.274L104.708 316.895L131.178 346.115L174.939 304.828L203.756 255.995Z" fill="#FFD5BF"/>
<path fill-rule="evenodd" clip-rule="evenodd" d="M196.357 218.252C195.102 229.709 183.614 233.565 168.119 229.643C159.602 227.488 147.211 216.669 137.777 207.361C137.726 207.362 137.699 207.363 137.699 207.363L123.462 193.547C123.462 193.547 133.322 152.035 145.762 145.808C158.203 139.581 171.049 141.409 178.364 152.128C181.243 156.347 180.373 161.495 178.259 166.186C186.551 165.241 193.799 164.771 197.834 165.308C209.15 166.815 218.547 171.835 220.996 181.261C224.64 191.545 218.342 198.958 208.113 202.351C204.648 203.5 197.491 204.401 189.014 205.101C193.436 209.274 196.827 213.955 196.357 218.252Z" fill="#6AC04D"/>
<path d="M187.451 185.458L190.053 186.1C190.053 186.1 166.349 189.57 162.661 190.154C158.974 190.738 136.243 193.99 136.243 193.99L133.811 193.381C133.811 193.381 158.414 188.89 161.746 188.283C165.078 187.676 187.451 185.458 187.451 185.458Z" fill="#85DB69"/>
<path d="M73.5304 59.9139C80.4596 48.9396 90.7389 43.0342 103.164 48.4021C117.162 53.2054 123.215 66.3344 122.66 80.3028C122.472 85.034 120.313 93.5516 117.318 103.33C124.33 102.091 131.486 102.401 136.433 106.567C149.622 117.675 149.053 133.4 137.333 146.847C130.892 154.238 112.294 158.449 96.8505 160.747C96.8278 160.805 96.8165 160.835 96.8158 160.837L73.7838 164.502C73.7838 164.502 28.4009 118.496 26.5531 99.7221C24.7054 80.9479 32.7142 68.5894 48.8935 69.787C55.2628 70.2586 61.0495 75.5831 65.7261 81.8658C68.3439 72.0791 71.0596 63.8274 73.5304 59.9139Z" fill="#AEEE98"/>
<path d="M93.0261 88.3074L94.974 86.0352C94.974 86.0352 88.415 114.663 87.4478 119.155C86.4806 123.646 80.0993 151.035 80.0993 151.035L78.2673 153.151C78.2673 153.151 84.0074 122.679 84.7868 118.554C85.5661 114.429 93.0261 88.3074 93.0261 88.3074Z" fill="#85DB69"/>
<path fill-rule="evenodd" clip-rule="evenodd" d="M206.197 154.742C211.186 169.609 201.059 180.04 182.362 182.763C172.084 184.26 152.888 176.879 137.683 169.928C137.629 169.954 137.601 169.968 137.601 169.968L114.78 159.765C114.78 159.765 102.373 103.291 112.206 89.4422C122.04 75.5938 136.756 71.5676 150.48 81.3127C155.882 85.1489 157.796 91.9795 158.132 98.8526C166.457 93.6097 173.931 89.4696 178.532 88.1588C191.437 84.4825 204.236 86.1182 212.054 96.6428C221.621 107.648 218.997 119.958 209.957 129.196C206.895 132.325 199.757 136.956 191.099 141.985C198.122 145.006 204.325 149.166 206.197 154.742Z" fill="#85DB69"/>
<path d="M178.583 118.317L181.713 117.839C181.713 117.839 158.34 133.782 154.729 136.318C151.117 138.853 128.661 154.048 128.661 154.048L125.73 154.483C125.73 154.483 149.499 136.828 152.719 134.439C155.938 132.05 178.583 118.317 178.583 118.317Z" fill="#6AC04D"/>
<circle cx="76.5851" cy="104.472" r="20" transform="rotate(-72.1009 76.5851 104.472)" fill="#FF2020"/>
<g filter="url(#filter0_i_253_1947)">
<circle cx="76.5851" cy="104.472" r="17" transform="rotate(-72.1009 76.5851 104.472)" fill="#FFA4A4"/>
</g>
<g filter="url(#filter1_i_253_1947)">
<path d="M78.4882 105.086L84.6289 116.17C84.6289 116.17 88.3013 114.561 90.1453 108.851C91.9894 103.142 89.9522 99.6883 89.9522 99.6883L78.4882 105.086Z" fill="#FF3434"/>
</g>
<g filter="url(#filter2_i_253_1947)">
<path d="M75.9703 106.375L81.3685 117.839C81.3685 117.839 78.3908 120.03 72.2054 118.032C66.02 116.034 64.8863 112.516 64.8863 112.516L75.9703 106.375Z" fill="#FF3434"/>
</g>
<g filter="url(#filter3_i_253_1947)">
<path d="M77.1998 102.569L88.2838 96.428C88.2838 96.428 87.0733 93.1472 80.9648 90.9116C74.8562 88.6759 71.8017 91.1047 71.8017 91.1047L77.1998 102.569Z" fill="#FF3434"/>
</g>
<g filter="url(#filter4_i_253_1947)">
<path d="M74.6818 103.857L63.2179 109.255C63.2179 109.255 61.488 104.85 63.0248 100.092C64.5615 95.3341 68.5412 92.7731 68.5412 92.7731L74.6818 103.857Z" fill="#FF3434"/>
</g>
<path d="M67.2114 105.412C67.3322 105.723 65.177 107.276 64.9106 107.379C64.6443 107.483 63.8454 107.793 63.4831 106.861C63.1209 105.929 63.9198 105.618 64.1861 105.515C64.4524 105.411 67.0906 105.101 67.2114 105.412Z" fill="#FFC916"/>
<path d="M69.4302 98.4085C69.1411 98.5745 67.2825 96.6765 67.1402 96.4288C66.9979 96.181 66.5711 95.4377 67.4383 94.9397C68.3055 94.4418 68.7323 95.1851 68.8746 95.4328C69.0169 95.6806 69.7192 98.2425 69.4302 98.4085Z" fill="#FFC916"/>
<path d="M67.4974 102.558C67.4727 102.89 64.859 103.365 64.5741 103.344C64.2892 103.323 63.4344 103.259 63.5083 102.262C63.5822 101.265 64.437 101.328 64.722 101.349C65.0069 101.37 67.522 102.225 67.4974 102.558Z" fill="#FFC916"/>
<path d="M68.2838 100.361C68.1309 100.657 65.54 100.07 65.2861 99.9394C65.0322 99.8085 64.2704 99.4155 64.7288 98.5268C65.1873 97.6381 65.949 98.031 66.203 98.162C66.4569 98.293 68.4366 100.064 68.2838 100.361Z" fill="#FFC916"/>
<path d="M77.4528 113.822C77.7635 113.702 79.3165 115.857 79.42 116.123C79.5235 116.389 79.834 117.188 78.902 117.551C77.9699 117.913 77.6594 117.114 77.5559 116.848C77.4523 116.581 77.1421 113.943 77.4528 113.822Z" fill="#FFC916"/>
<path d="M70.4494 111.603C70.6154 111.892 68.7174 113.751 68.4697 113.893C68.2219 114.036 67.4786 114.462 66.9806 113.595C66.4826 112.728 67.226 112.301 67.4737 112.159C67.7215 112.017 70.2834 111.314 70.4494 111.603Z" fill="#FFC916"/>
<path d="M74.5988 113.536C74.9312 113.561 75.406 116.174 75.3848 116.459C75.3637 116.744 75.3004 117.599 74.3031 117.525C73.3058 117.451 73.3692 116.596 73.3903 116.311C73.4114 116.027 74.2664 113.511 74.5988 113.536Z" fill="#FFC916"/>
<path d="M72.4014 112.75C72.6977 112.903 72.1113 115.493 71.9803 115.747C71.8494 116.001 71.4564 116.763 70.5677 116.305C69.679 115.846 70.0719 115.084 70.2029 114.83C70.3339 114.577 72.1052 112.597 72.4014 112.75Z" fill="#FFC916"/>
<path d="M82.6481 97.7371C82.8294 98.0168 85.3497 97.1771 85.5894 97.0217C85.8291 96.8662 86.5483 96.3999 86.0042 95.5608C85.4602 94.7218 84.741 95.1881 84.5013 95.3436C84.2615 95.499 82.4667 97.4574 82.6481 97.7371Z" fill="#FFC916"/>
<path d="M75.6697 95.4402C75.9734 95.3029 75.5212 92.6852 75.4035 92.4249C75.2857 92.1645 74.9325 91.3835 74.0214 91.7956C73.1102 92.2077 73.4634 92.9887 73.5812 93.249C73.6989 93.5093 75.366 95.5776 75.6697 95.4402Z" fill="#FFC916"/>
<path d="M80.1658 96.2997C80.4499 96.4742 82.3637 94.632 82.5133 94.3885C82.6628 94.145 83.1114 93.4147 82.2593 92.8913C81.4072 92.3679 80.9586 93.0983 80.8091 93.3418C80.6595 93.5852 79.8818 96.1253 80.1658 96.2997Z" fill="#FFC916"/>
<path d="M77.9236 95.6523C78.2532 95.7016 79.2932 93.2572 79.3355 92.9746C79.3777 92.6921 79.5046 91.8444 78.5156 91.6964C77.5266 91.5483 77.3998 92.396 77.3575 92.6786C77.3152 92.9612 77.5939 95.603 77.9236 95.6523Z" fill="#FFC916"/>
<path d="M83.2965 110.607C83.0168 110.788 83.8565 113.309 84.0119 113.548C84.1673 113.788 84.6337 114.507 85.4727 113.963C86.3118 113.419 85.8454 112.7 85.69 112.46C85.5345 112.22 83.5761 110.426 83.2965 110.607Z" fill="#FFC916"/>
<path d="M85.5932 103.629C85.7306 103.932 88.3483 103.48 88.6086 103.362C88.8689 103.245 89.6499 102.891 89.2378 101.98C88.8257 101.069 88.0448 101.422 87.7844 101.54C87.5241 101.658 85.4559 103.325 85.5932 103.629Z" fill="#FFC916"/>
<path d="M84.734 108.125C84.5595 108.409 86.4017 110.323 86.6452 110.472C86.8886 110.622 87.619 111.07 88.1424 110.218C88.6658 109.366 87.9354 108.917 87.6919 108.768C87.4485 108.618 84.9084 107.841 84.734 108.125Z" fill="#FFC916"/>
<path d="M85.3813 105.883C85.3319 106.212 87.7764 107.252 88.0589 107.294C88.3415 107.337 89.1892 107.464 89.3372 106.475C89.4852 105.486 88.6375 105.359 88.355 105.316C88.0724 105.274 85.4306 105.553 85.3813 105.883Z" fill="#FFC916"/>
<ellipse cx="135.091" cy="102.555" rx="16.7779" ry="23.3213" transform="rotate(40.193 135.091 102.555)" fill="#00720D"/>
<ellipse cx="133.27" cy="104.97" rx="14.5968" ry="20.3013" transform="rotate(40.193 133.27 104.97)" fill="#C9FFD0"/>
<g filter="url(#filter5_f_253_1947)">
<ellipse cx="133.25" cy="104.733" rx="7.04673" ry="9.73119" transform="rotate(40.193 133.25 104.733)" fill="#B7FFBF"/>
</g>
<path d="M135.917 95.7559C135.416 95.702 134.832 91.7336 134.878 91.3046C134.924 90.8757 135.063 89.5888 136.564 89.7506C138.065 89.9125 137.927 91.1993 137.881 91.6282C137.834 92.0572 136.417 95.8098 135.917 95.7559Z" fill="#A2FFAC"/>
<path d="M130.552 99.3651C130.158 99.6779 126.957 97.2607 126.688 96.9226C126.42 96.5846 125.616 95.5704 126.8 94.6322C127.983 93.6941 128.787 94.7083 129.055 95.0463C129.323 95.3844 130.947 99.0524 130.552 99.3651Z" fill="#A2FFAC"/>
<path d="M125.901 105.979C125.696 106.439 121.739 105.777 121.345 105.601C120.951 105.425 119.769 104.898 120.385 103.519C121 102.14 122.182 102.667 122.576 102.843C122.97 103.019 126.106 105.52 125.901 105.979Z" fill="#A2FFAC"/>
<path d="M124.102 112.738C124.314 113.195 121.213 115.74 120.822 115.921C120.43 116.102 119.256 116.646 118.621 115.276C117.987 113.906 119.161 113.362 119.553 113.181C119.944 112.999 123.891 112.281 124.102 112.738Z" fill="#A2FFAC"/>
<path d="M141.567 100.529C141.703 101.013 145.714 100.927 146.129 100.81C146.544 100.693 147.79 100.341 147.379 98.8879C146.969 97.4347 145.723 97.7864 145.308 97.9036C144.893 98.0208 141.43 100.045 141.567 100.529Z" fill="#A2FFAC"/>
<path d="M140.741 96.1266C141.126 96.4514 144.4 94.1351 144.679 93.8055C144.957 93.4759 145.793 92.4873 144.639 91.5128C143.486 90.5383 142.65 91.5269 142.372 91.8565C142.094 92.1861 140.357 95.8018 140.741 96.1266Z" fill="#A2FFAC"/>
<path d="M138.904 106.421C138.661 106.862 141.579 109.615 141.957 109.823C142.335 110.03 143.47 110.654 144.197 109.33C144.924 108.007 143.79 107.384 143.412 107.176C143.034 106.968 139.146 105.98 138.904 106.421Z" fill="#A2FFAC"/>
<path d="M133.159 112.112C132.74 112.391 134.054 116.181 134.293 116.54C134.533 116.899 135.25 117.976 136.507 117.14C137.764 116.303 137.046 115.225 136.807 114.866C136.568 114.507 133.578 111.833 133.159 112.112Z" fill="#A2FFAC"/>
<path d="M126.796 115.014C126.31 114.882 124.319 118.364 124.205 118.78C124.092 119.196 123.752 120.445 125.209 120.842C126.666 121.238 127.006 119.99 127.119 119.573C127.233 119.157 127.281 115.146 126.796 115.014Z" fill="#A2FFAC"/>
<path fill-rule="evenodd" clip-rule="evenodd" d="M172.349 192.582C172.208 201.954 163.451 205.834 150.965 203.672C144.102 202.484 133.549 194.525 125.436 187.598C125.395 187.602 125.375 187.604 125.375 187.604L113.147 177.337C113.147 177.337 117.839 143.032 127.171 137.167C136.502 131.301 146.749 131.94 153.298 140.15C155.877 143.382 155.572 147.613 154.255 151.556C160.712 150.245 166.382 149.388 169.598 149.559C178.616 150.038 186.385 153.492 189.008 160.974C192.635 169.072 188.226 175.496 180.426 178.918C177.784 180.077 172.217 181.277 165.596 182.401C169.386 185.494 172.401 189.067 172.349 192.582Z" fill="#AEEE98"/>
<path d="M162.914 166.578L165.01 166.927C165.01 166.927 146.609 171.297 143.75 172.013C140.891 172.728 123.24 176.857 123.24 176.857L121.28 176.523C121.28 176.523 140.314 171.266 142.891 170.556C145.469 169.845 162.914 166.578 162.914 166.578Z" fill="#85DB69"/>
<path fill-rule="evenodd" clip-rule="evenodd" d="M64.2187 126.761C53.9348 130.525 53.0267 141.679 60.2198 154.62C64.1735 161.733 77.0164 170.309 87.782 176.591C87.7931 176.638 87.7988 176.661 87.7988 176.661L103.833 186.196C103.833 186.196 139.868 167.81 142.745 155.258C145.622 142.705 140.971 131.648 129.392 127.585C124.834 125.985 120.284 127.951 116.442 130.922C115.401 123.295 114.163 116.71 112.737 113.228C108.736 103.465 101.935 96.226 92.6716 96.2128C82.3409 95.3291 76.9522 102.666 76.1808 112.589C75.9196 115.95 76.7396 122.553 78.049 130.289C73.178 127.3 68.0757 125.35 64.2187 126.761Z" fill="#6AC04D"/>
<path d="M96.537 127.154L95.3446 124.978C95.3446 124.978 97.6099 146.958 97.9214 150.387C98.2329 153.817 100.476 174.878 100.476 174.878L101.599 176.911C101.599 176.911 100.068 153.891 99.8594 150.774C99.6506 147.657 96.537 127.154 96.537 127.154Z" fill="#85DB69"/>
<path fill-rule="evenodd" clip-rule="evenodd" d="M4.00138 112.189C6.38869 99.715 20.036 94.8572 37.7017 98.1767C47.4118 100.001 60.9143 110.971 71.1066 120.481C71.1666 120.477 71.1972 120.475 71.1972 120.475L86.599 134.578C86.599 134.578 71.7795 180.09 56.8339 187.572C41.8883 195.053 27.1268 193.84 19.5084 182.676C16.5095 178.282 17.9383 172.659 20.7736 167.456C11.0722 168.973 2.62109 169.914 -2.01814 169.573C-15.0294 168.618 -25.5284 163.745 -27.6037 153.69C-30.9973 142.778 -23.0852 134.38 -10.9361 130.098C-6.82111 128.647 1.55853 127.246 11.455 125.983C6.66141 121.731 3.10602 116.867 4.00138 112.189Z" fill="#85DB69"/>
<path d="M11.6717 147.148L8.70392 146.608C8.70392 146.608 36.4979 141.439 40.8253 140.587C45.1528 139.735 71.8003 134.86 71.8003 134.86L74.5736 135.374C74.5736 135.374 45.6523 141.702 41.7357 142.557C37.819 143.413 11.6717 147.148 11.6717 147.148Z" fill="#6AC04D"/>
<path d="M178.513 248.514C185.702 259.353 187.907 270.231 180.376 277.115C172.905 285.493 160.664 283.578 149.415 276.151C145.605 273.635 139.208 267.704 131.995 260.496C131.226 266.519 129.155 271.877 124.502 273.601C112.096 278.197 99.4176 269.879 91.4281 254.111C87.0368 245.444 88.3244 229.003 90.3717 215.952C90.3318 215.907 90.3098 215.883 90.3076 215.881L93.166 196.298C93.166 196.298 142.201 184.385 157.979 192.37C173.757 200.354 181.801 212.718 176.716 224.584C174.715 229.255 168.904 231.046 162.593 231.501C169.909 238.422 175.949 244.65 178.513 248.514Z" fill="#85DB69"/>
<path d="M150.411 249.307L151.769 251.946C151.769 251.946 130.091 232.547 126.674 229.551C123.257 226.555 102.544 207.913 102.544 207.913L101.284 205.441C101.284 205.441 124.673 225.134 127.839 227.801C131.005 230.469 150.411 249.307 150.411 249.307Z" fill="#6AC04D"/>
<circle cx="96.797" cy="266" r="20" transform="rotate(-72.1009 96.797 266)" fill="#FF2020"/>
<g filter="url(#filter6_i_253_1947)">
<circle cx="96.797" cy="266" r="17" transform="rotate(-72.1009 96.797 266)" fill="#FFA4A4"/>
</g>
<g filter="url(#filter7_i_253_1947)">
<path d="M98.7002 266.615L104.841 277.699C104.841 277.699 108.513 276.09 110.357 270.38C112.201 264.67 110.164 261.217 110.164 261.217L98.7002 266.615Z" fill="#FF3434"/>
</g>
<g filter="url(#filter8_i_253_1947)">
<path d="M96.1823 267.904L101.58 279.368C101.58 279.368 98.6027 281.558 92.4173 279.561C86.2319 277.563 85.0982 274.044 85.0982 274.044L96.1823 267.904Z" fill="#FF3434"/>
</g>
<g filter="url(#filter9_i_253_1947)">
<path d="M97.4117 264.097L108.496 257.957C108.496 257.957 107.285 254.676 101.177 252.44C95.0681 250.204 92.0136 252.633 92.0136 252.633L97.4117 264.097Z" fill="#FF3434"/>
</g>
<g filter="url(#filter10_i_253_1947)">
<path d="M94.8938 265.386L83.4298 270.784C83.4298 270.784 81.7 266.379 83.2367 261.621C84.7734 256.863 88.7531 254.302 88.7531 254.302L94.8938 265.386Z" fill="#FF3434"/>
</g>
<path d="M87.4233 266.94C87.5441 267.251 85.3889 268.804 85.1226 268.908C84.8563 269.011 84.0573 269.322 83.6951 268.39C83.3328 267.458 84.1317 267.147 84.398 267.044C84.6643 266.94 87.3026 266.63 87.4233 266.94Z" fill="#FFC916"/>
<path d="M89.6421 259.937C89.353 260.103 87.4944 258.205 87.3521 257.957C87.2098 257.71 86.783 256.966 87.6502 256.468C88.5174 255.97 88.9442 256.714 89.0865 256.961C89.2288 257.209 89.9311 259.771 89.6421 259.937Z" fill="#FFC916"/>
<path d="M87.7093 264.086C87.6846 264.419 85.0709 264.894 84.786 264.872C84.5011 264.851 83.6463 264.788 83.7202 263.791C83.7942 262.793 84.6489 262.857 84.9339 262.878C85.2188 262.899 87.7339 263.754 87.7093 264.086Z" fill="#FFC916"/>
<path d="M88.4957 261.889C88.3429 262.185 85.7519 261.599 85.498 261.468C85.2441 261.337 84.4823 260.944 84.9408 260.055C85.3992 259.167 86.161 259.56 86.4149 259.691C86.6688 259.822 88.6485 261.593 88.4957 261.889Z" fill="#FFC916"/>
<path d="M102.86 259.266C103.041 259.545 105.562 258.706 105.801 258.55C106.041 258.395 106.76 257.928 106.216 257.089C105.672 256.25 104.953 256.717 104.713 256.872C104.473 257.028 102.679 258.986 102.86 259.266Z" fill="#FFC916"/>
<path d="M95.8816 256.969C96.1853 256.831 95.7331 254.214 95.6154 253.953C95.4976 253.693 95.1444 252.912 94.2333 253.324C93.3221 253.736 93.6753 254.517 93.7931 254.778C93.9108 255.038 95.5779 257.106 95.8816 256.969Z" fill="#FFC916"/>
<path d="M100.378 257.828C100.662 258.003 102.576 256.161 102.725 255.917C102.875 255.674 103.323 254.943 102.471 254.42C101.619 253.897 101.171 254.627 101.021 254.87C100.871 255.114 100.094 257.654 100.378 257.828Z" fill="#FFC916"/>
<path d="M98.1355 257.181C98.4651 257.23 99.5051 254.786 99.5474 254.503C99.5897 254.221 99.7165 253.373 98.7275 253.225C97.7386 253.077 97.6117 253.925 97.5694 254.207C97.5271 254.49 97.8058 257.132 98.1355 257.181Z" fill="#FFC916"/>
<path d="M103.508 272.135C103.229 272.317 104.068 274.837 104.224 275.077C104.379 275.317 104.846 276.036 105.685 275.492C106.524 274.948 106.057 274.228 105.902 273.989C105.746 273.749 103.788 271.954 103.508 272.135Z" fill="#FFC916"/>
<path d="M105.805 265.157C105.943 265.461 108.56 265.009 108.821 264.891C109.081 264.773 109.862 264.42 109.45 263.509C109.038 262.598 108.257 262.951 107.996 263.069C107.736 263.186 105.668 264.854 105.805 265.157Z" fill="#FFC916"/>
<path d="M104.946 269.653C104.771 269.937 106.614 271.851 106.857 272.001C107.101 272.15 107.831 272.599 108.354 271.747C108.878 270.895 108.147 270.446 107.904 270.296C107.66 270.147 105.12 269.369 104.946 269.653Z" fill="#FFC916"/>
<path d="M105.593 267.411C105.544 267.741 107.988 268.781 108.271 268.823C108.553 268.865 109.401 268.992 109.549 268.003C109.697 267.014 108.849 266.887 108.567 266.845C108.284 266.803 105.643 267.081 105.593 267.411Z" fill="#FFC916"/>
<path fill-rule="evenodd" clip-rule="evenodd" d="M2.04012 183.75C-4.14686 169.537 4.96046 160.723 23.1798 159.786C33.1942 159.272 52.7638 167.748 68.3589 175.487C68.4105 175.467 68.4369 175.457 68.4369 175.457L91.8235 186.858C91.8235 186.858 108.865 240.292 100.338 252.3C91.8111 264.309 77.6315 266.793 63.2608 256.588C57.6038 252.571 55.1343 246.073 54.2193 239.67C46.4493 243.826 39.4261 247.03 34.9969 247.855C22.5746 250.168 9.80553 247.564 1.1965 237.138C-9.17978 226.119 -7.6361 214.924 0.499826 207.124C3.25556 204.482 9.90614 200.794 18.0225 196.865C10.8356 193.466 4.36056 189.081 2.04012 183.75Z" fill="#6AC04D"/>
<path d="M32.3845 219.88L29.336 220.057C29.336 220.057 51.0456 207.256 54.3941 205.211C57.7426 203.167 78.6111 190.982 78.6111 190.982L81.4667 190.827C81.4667 190.827 59.5117 205.182 56.5373 207.124C53.5629 209.067 32.3845 219.88 32.3845 219.88Z" fill="#85DB69"/>
<circle cx="139.285" cy="161.259" r="20" transform="rotate(-72.1009 139.285 161.259)" fill="#FF2020"/>
<g filter="url(#filter11_i_253_1947)">
<circle cx="139.285" cy="161.259" r="17" transform="rotate(-72.1009 139.285 161.259)" fill="#FFA4A4"/>
</g>
<g filter="url(#filter12_i_253_1947)">
<path d="M141.188 161.873L147.328 172.957C147.328 172.957 151.001 171.348 152.845 165.638C154.689 159.929 152.652 156.475 152.652 156.475L141.188 161.873Z" fill="#FF3434"/>
</g>
<g filter="url(#filter13_i_253_1947)">
<path d="M138.67 163.162L144.068 174.626C144.068 174.626 141.09 176.817 134.905 174.819C128.719 172.821 127.586 169.303 127.586 169.303L138.67 163.162Z" fill="#FF3434"/>
</g>
<g filter="url(#filter14_i_253_1947)">
<path d="M139.899 159.356L150.983 153.215C150.983 153.215 149.773 149.934 143.664 147.699C137.556 145.463 134.501 147.892 134.501 147.892L139.899 159.356Z" fill="#FF3434"/>
</g>
<g filter="url(#filter15_i_253_1947)">
<path d="M137.381 160.644L125.917 166.042C125.917 166.042 124.188 161.637 125.724 156.879C127.261 152.121 131.241 149.56 131.241 149.56L137.381 160.644Z" fill="#FF3434"/>
</g>
<path d="M129.911 162.199C130.032 162.51 127.876 164.063 127.61 164.166C127.344 164.27 126.545 164.58 126.183 163.648C125.82 162.716 126.619 162.405 126.886 162.302C127.152 162.198 129.79 161.888 129.911 162.199Z" fill="#FFC916"/>
<path d="M132.13 155.195C131.841 155.361 129.982 153.464 129.84 153.216C129.697 152.968 129.271 152.225 130.138 151.727C131.005 151.229 131.432 151.972 131.574 152.22C131.716 152.468 132.419 155.029 132.13 155.195Z" fill="#FFC916"/>
<path d="M130.197 159.345C130.172 159.677 127.558 160.152 127.274 160.131C126.989 160.11 126.134 160.046 126.208 159.049C126.282 158.052 127.136 158.115 127.421 158.136C127.706 158.157 130.221 159.012 130.197 159.345Z" fill="#FFC916"/>
<path d="M130.983 157.148C130.83 157.444 128.239 156.857 127.986 156.726C127.732 156.595 126.97 156.203 127.428 155.314C127.887 154.425 128.649 154.818 128.902 154.949C129.156 155.08 131.136 156.851 130.983 157.148Z" fill="#FFC916"/>
<path d="M140.152 170.609C140.463 170.489 142.016 172.644 142.119 172.91C142.223 173.176 142.533 173.975 141.601 174.338C140.669 174.7 140.359 173.901 140.255 173.635C140.152 173.368 139.842 170.73 140.152 170.609Z" fill="#FFC916"/>
<path d="M133.149 168.39C133.315 168.679 131.417 170.538 131.169 170.68C130.921 170.823 130.178 171.249 129.68 170.382C129.182 169.515 129.925 169.088 130.173 168.946C130.421 168.804 132.983 168.101 133.149 168.39Z" fill="#FFC916"/>
<path d="M137.298 170.323C137.631 170.348 138.105 172.961 138.084 173.246C138.063 173.531 138 174.386 137.003 174.312C136.005 174.238 136.069 173.383 136.09 173.098C136.111 172.814 136.966 170.298 137.298 170.323Z" fill="#FFC916"/>
<path d="M135.101 169.537C135.397 169.689 134.811 172.28 134.68 172.534C134.549 172.788 134.156 173.55 133.267 173.092C132.378 172.633 132.771 171.871 132.902 171.617C133.033 171.364 134.805 169.384 135.101 169.537Z" fill="#FFC916"/>
<path d="M145.348 154.524C145.529 154.804 148.049 153.964 148.289 153.809C148.529 153.653 149.248 153.187 148.704 152.348C148.16 151.509 147.44 151.975 147.201 152.131C146.961 152.286 145.166 154.244 145.348 154.524Z" fill="#FFC916"/>
<path d="M138.369 152.227C138.673 152.09 138.221 149.472 138.103 149.212C137.985 148.952 137.632 148.171 136.721 148.583C135.81 148.995 136.163 149.776 136.281 150.036C136.398 150.296 138.065 152.365 138.369 152.227Z" fill="#FFC916"/>
<path d="M142.865 153.087C143.149 153.261 145.063 151.419 145.213 151.175C145.362 150.932 145.811 150.202 144.959 149.678C144.107 149.155 143.658 149.885 143.509 150.129C143.359 150.372 142.581 152.912 142.865 153.087Z" fill="#FFC916"/>
<path d="M140.623 152.439C140.953 152.489 141.993 150.044 142.035 149.762C142.077 149.479 142.204 148.631 141.215 148.483C140.226 148.335 140.099 149.183 140.057 149.466C140.015 149.748 140.293 152.39 140.623 152.439Z" fill="#FFC916"/>
<path d="M145.996 167.394C145.716 167.575 146.556 170.096 146.711 170.335C146.867 170.575 147.333 171.294 148.172 170.75C149.011 170.206 148.545 169.487 148.389 169.247C148.234 169.007 146.276 167.213 145.996 167.394Z" fill="#FFC916"/>
<path d="M148.293 160.416C148.43 160.719 151.048 160.267 151.308 160.149C151.568 160.032 152.349 159.678 151.937 158.767C151.525 157.856 150.744 158.209 150.484 158.327C150.224 158.445 148.155 160.112 148.293 160.416Z" fill="#FFC916"/>
<path d="M147.433 164.912C147.259 165.196 149.101 167.11 149.345 167.259C149.588 167.409 150.318 167.857 150.842 167.005C151.365 166.153 150.635 165.704 150.391 165.555C150.148 165.405 147.608 164.628 147.433 164.912Z" fill="#FFC916"/>
<path d="M148.081 162.67C148.031 162.999 150.476 164.039 150.758 164.081C151.041 164.124 151.889 164.251 152.037 163.262C152.185 162.273 151.337 162.146 151.054 162.103C150.772 162.061 148.13 162.34 148.081 162.67Z" fill="#FFC916"/>
<ellipse cx="56.3073" cy="136.642" rx="16.7779" ry="23.3213" transform="rotate(-66.0138 56.3073 136.642)" fill="#00720D"/>
<ellipse cx="59.1348" cy="137.716" rx="14.5968" ry="20.3013" transform="rotate(-66.0138 59.1348 137.716)" fill="#C9FFD0"/>
<g filter="url(#filter16_f_253_1947)">
<ellipse cx="58.9132" cy="137.802" rx="7.04673" ry="9.73119" transform="rotate(-66.0138 58.9132 137.802)" fill="#B7FFBF"/>
</g>
<path d="M49.5483 137.746C49.6362 138.242 45.9887 139.911 45.5639 139.986C45.1391 140.062 43.8647 140.288 43.601 138.801C43.3374 137.314 44.6118 137.088 45.0366 137.013C45.4614 136.937 49.4604 137.251 49.5483 137.746Z" fill="#A2FFAC"/>
<path d="M54.5114 141.89C54.9217 142.182 53.4941 145.93 53.2443 146.282C52.9945 146.634 52.245 147.689 51.0139 146.815C49.7828 145.94 50.5322 144.885 50.7821 144.533C51.0319 144.182 54.101 141.599 54.5114 141.89Z" fill="#A2FFAC"/>
<path d="M62.1612 144.511C62.6598 144.58 63.1278 148.564 63.069 148.991C63.0101 149.418 62.8337 150.701 61.3378 150.495C59.8419 150.289 60.0183 149.007 60.0771 148.579C60.1359 148.152 61.6626 144.442 62.1612 144.511Z" fill="#A2FFAC"/>
<path d="M69.1531 144.352C69.5327 144.021 72.8419 146.288 73.1253 146.613C73.4086 146.939 74.2586 147.915 73.1199 148.906C71.9812 149.898 71.1312 148.922 70.8478 148.597C70.5645 148.271 68.7735 144.682 69.1531 144.352Z" fill="#A2FFAC"/>
<path d="M52.5549 130.989C52.9819 130.722 51.7798 126.896 51.5513 126.53C51.3229 126.164 50.6375 125.066 49.3566 125.865C48.0756 126.665 48.761 127.763 48.9894 128.129C49.2179 128.495 52.1279 131.256 52.5549 130.989Z" fill="#A2FFAC"/>
<path d="M48.5577 133.01C48.7623 132.55 45.624 130.052 45.2298 129.877C44.8356 129.701 43.6531 129.175 43.0392 130.555C42.4254 131.935 43.6079 132.461 44.0021 132.636C44.3963 132.811 48.3531 133.47 48.5577 133.01Z" fill="#A2FFAC"/>
<path d="M58.9559 131.901C59.4471 132.011 61.2759 128.441 61.3699 128.02C61.4639 127.599 61.746 126.336 60.2723 126.006C58.7986 125.677 58.5165 126.94 58.4225 127.362C58.3285 127.783 58.4647 131.792 58.9559 131.901Z" fill="#A2FFAC"/>
<path d="M66.024 135.829C66.4088 136.154 69.6814 133.834 69.9595 133.504C70.2376 133.174 71.072 132.185 69.9176 131.211C68.7632 130.238 67.9288 131.228 67.6507 131.557C67.3726 131.887 65.6392 135.505 66.024 135.829Z" fill="#A2FFAC"/>
<path d="M70.5865 141.13C70.5951 141.633 74.4945 142.574 74.9259 142.566C75.3573 142.559 76.6514 142.537 76.6257 141.027C76.6 139.517 75.3059 139.539 74.8745 139.547C74.4431 139.554 70.5779 140.627 70.5865 141.13Z" fill="#A2FFAC"/>
<path d="M63.8779 208.898C53.3406 208.339 44.2655 204.303 41.2006 195.56C36.963 186.098 42.1129 178.594 51.2267 174.595C54.3139 173.241 60.8176 171.84 68.553 170.526C64.1254 166.913 60.6026 162.737 60.6641 158.63C60.8283 147.681 71.0597 143.147 85.6477 145.673C93.666 147.062 105.994 156.362 115.473 164.455C115.519 164.45 115.544 164.447 115.547 164.447L129.834 176.442C129.834 176.442 124.352 216.524 113.449 223.377C102.546 230.23 90.5746 229.483 82.9221 219.89C79.9094 216.114 80.2669 211.17 81.8066 206.563C74.2612 208.095 67.6351 209.097 63.8779 208.898Z" fill="#AEEE98"/>
<path d="M71.6869 189.014L69.2386 188.605C69.2386 188.605 90.7374 183.5 94.0781 182.663C97.4188 181.827 118.042 177.003 118.042 177.003L120.331 177.394C120.331 177.394 98.0934 183.536 95.0816 184.366C92.0698 185.196 71.6869 189.014 71.6869 189.014Z" fill="#85DB69"/>
<circle cx="15.0841" cy="185.901" r="20" transform="rotate(-72.1009 15.0841 185.901)" fill="#FF2020"/>
<g filter="url(#filter17_i_253_1947)">
<circle cx="15.0841" cy="185.901" r="17" transform="rotate(-72.1009 15.0841 185.901)" fill="#FFA4A4"/>
</g>
<g filter="url(#filter18_i_253_1947)">
<path d="M16.9873 186.515L23.1279 197.599C23.1279 197.599 26.8003 195.99 28.6444 190.28C30.4884 184.57 28.4512 181.117 28.4512 181.117L16.9873 186.515Z" fill="#FF3434"/>
</g>
<g filter="url(#filter19_i_253_1947)">
<path d="M14.4694 187.804L19.8675 199.268C19.8675 199.268 16.8898 201.459 10.7044 199.461C4.51903 197.463 3.38536 193.944 3.38536 193.944L14.4694 187.804Z" fill="#FF3434"/>
</g>
<g filter="url(#filter20_i_253_1947)">
<path d="M15.6989 183.997L26.7829 177.857C26.7829 177.857 25.5724 174.576 19.4638 172.34C13.3552 170.105 10.3007 172.533 10.3007 172.533L15.6989 183.997Z" fill="#FF3434"/>
</g>
<g filter="url(#filter21_i_253_1947)">
<path d="M13.1809 185.286L1.71691 190.684C1.71691 190.684 -0.0129393 186.279 1.52378 181.521C3.0605 176.763 7.04024 174.202 7.04024 174.202L13.1809 185.286Z" fill="#FF3434"/>
</g>
<path d="M5.71043 186.841C5.83119 187.151 3.67597 188.704 3.40967 188.808C3.14336 188.911 2.34445 189.222 1.98216 188.29C1.61988 187.358 2.41879 187.047 2.6851 186.944C2.9514 186.84 5.58967 186.53 5.71043 186.841Z" fill="#FFC916"/>
<path d="M7.92919 179.837C7.64013 180.003 5.7815 178.105 5.63922 177.857C5.49694 177.61 5.07011 176.866 5.9373 176.368C6.80449 175.87 7.23132 176.614 7.3736 176.862C7.51588 177.109 8.21826 179.671 7.92919 179.837Z" fill="#FFC916"/>
<path d="M5.99638 183.987C5.97173 184.319 3.35805 184.794 3.07312 184.773C2.78819 184.751 1.93339 184.688 2.00733 183.691C2.08126 182.694 2.93606 182.757 3.22099 182.778C3.50592 182.799 6.02102 183.654 5.99638 183.987Z" fill="#FFC916"/>
<path d="M6.78278 181.789C6.62996 182.085 4.03904 181.499 3.78512 181.368C3.5312 181.237 2.76943 180.844 3.22786 179.956C3.6863 179.067 4.44807 179.46 4.70199 179.591C4.95591 179.722 6.93559 181.493 6.78278 181.789Z" fill="#FFC916"/>
<path d="M15.9518 195.251C16.2625 195.13 17.8155 197.285 17.919 197.552C18.0225 197.818 18.3331 198.617 17.401 198.979C16.4689 199.342 16.1584 198.543 16.0549 198.276C15.9514 198.01 15.6412 195.372 15.9518 195.251Z" fill="#FFC916"/>
<path d="M8.94841 193.032C9.11441 193.321 7.21647 195.18 6.9687 195.322C6.72093 195.464 5.97762 195.891 5.47965 195.024C4.98167 194.157 5.72498 193.73 5.97275 193.588C6.22052 193.445 8.78242 192.743 8.94841 193.032Z" fill="#FFC916"/>
<path d="M13.0978 194.965C13.4303 194.989 13.905 197.603 13.8839 197.888C13.8627 198.173 13.7994 199.028 12.8021 198.954C11.8049 198.88 11.8682 198.025 11.8893 197.74C11.9105 197.455 12.7654 194.94 13.0978 194.965Z" fill="#FFC916"/>
<path d="M10.9004 194.178C11.1967 194.331 10.6103 196.922 10.4794 197.176C10.3484 197.43 9.95544 198.192 9.06671 197.733C8.17798 197.275 8.57092 196.513 8.70191 196.259C8.83289 196.005 10.6042 194.026 10.9004 194.178Z" fill="#FFC916"/>
<path d="M21.1471 179.166C21.3285 179.446 23.8487 178.606 24.0884 178.45C24.3281 178.295 25.0473 177.829 24.5033 176.99C23.9592 176.151 23.24 176.617 23.0003 176.772C22.7606 176.928 20.9657 178.886 21.1471 179.166Z" fill="#FFC916"/>
<path d="M14.1687 176.869C14.4724 176.732 14.0202 174.114 13.9025 173.854C13.7847 173.593 13.4315 172.812 12.5204 173.224C11.6092 173.636 11.9625 174.417 12.0802 174.678C12.1979 174.938 13.865 177.006 14.1687 176.869Z" fill="#FFC916"/>
<path d="M18.6649 177.728C18.9489 177.903 20.8628 176.061 21.0123 175.817C21.1618 175.574 21.6104 174.843 20.7583 174.32C19.9062 173.797 19.4576 174.527 19.3081 174.77C19.1585 175.014 18.3808 177.554 18.6649 177.728Z" fill="#FFC916"/>
<path d="M16.4226 177.081C16.7522 177.13 17.7922 174.686 17.8345 174.403C17.8768 174.121 18.0036 173.273 17.0147 173.125C16.0257 172.977 15.8988 173.825 15.8565 174.107C15.8142 174.39 16.0929 177.032 16.4226 177.081Z" fill="#FFC916"/>
<path d="M21.7955 192.036C21.5158 192.217 22.3555 194.737 22.5109 194.977C22.6664 195.217 23.1327 195.936 23.9718 195.392C24.8108 194.848 24.3445 194.129 24.189 193.889C24.0336 193.649 22.0752 191.854 21.7955 192.036Z" fill="#FFC916"/>
<path d="M24.0923 185.057C24.2296 185.361 26.8473 184.909 27.1076 184.791C27.3679 184.673 28.1489 184.32 27.7368 183.409C27.3248 182.498 26.5438 182.851 26.2835 182.969C26.0231 183.087 23.9549 184.754 24.0923 185.057Z" fill="#FFC916"/>
<path d="M23.233 189.553C23.0585 189.837 24.9007 191.751 25.1442 191.901C25.3877 192.05 26.118 192.499 26.6414 191.647C27.1648 190.795 26.4344 190.346 26.1909 190.197C25.9475 190.047 23.4074 189.269 23.233 189.553Z" fill="#FFC916"/>
<path d="M23.8803 187.311C23.831 187.641 26.2754 188.681 26.558 188.723C26.8405 188.765 27.6882 188.892 27.8362 187.903C27.9843 186.914 27.1366 186.787 26.854 186.745C26.5714 186.703 23.9296 186.982 23.8803 187.311Z" fill="#FFC916"/>
<ellipse cx="165.545" cy="225.419" rx="16.7779" ry="23.3213" transform="rotate(134.302 165.545 225.419)" fill="#00720D"/>
<ellipse cx="163.266" cy="223.429" rx="14.5968" ry="20.3013" transform="rotate(134.302 163.266 223.429)" fill="#C9FFD0"/>
<g filter="url(#filter22_f_253_1947)">
<ellipse cx="163.504" cy="223.427" rx="7.04673" ry="9.73119" transform="rotate(134.302 163.504 223.427)" fill="#B7FFBF"/>
</g>
<path d="M172.267 226.73C172.356 226.235 176.357 225.936 176.781 226.013C177.206 226.089 178.479 226.32 178.21 227.806C177.941 229.292 176.668 229.061 176.243 228.984C175.819 228.907 172.177 227.225 172.267 226.73Z" fill="#A2FFAC"/>
<path d="M169.051 221.12C168.768 220.705 171.408 217.685 171.764 217.442C172.121 217.199 173.19 216.469 174.041 217.717C174.892 218.964 173.823 219.693 173.466 219.937C173.11 220.18 169.335 221.536 169.051 221.12Z" fill="#A2FFAC"/>
<path d="M162.787 216.007C162.343 215.769 163.288 211.871 163.491 211.49C163.695 211.11 164.306 209.969 165.637 210.681C166.968 211.394 166.358 212.535 166.154 212.915C165.951 213.296 163.231 216.244 162.787 216.007Z" fill="#A2FFAC"/>
<path d="M156.175 213.729C155.704 213.907 153.388 210.632 153.235 210.229C153.082 209.825 152.624 208.615 154.036 208.08C155.449 207.545 155.907 208.756 156.06 209.159C156.212 209.563 156.646 213.551 156.175 213.729Z" fill="#A2FFAC"/>
<path d="M167.101 232.023C166.608 232.125 166.407 236.131 166.494 236.553C166.581 236.976 166.843 238.244 168.322 237.938C169.8 237.633 169.539 236.366 169.452 235.943C169.365 235.521 167.594 231.921 167.101 232.023Z" fill="#A2FFAC"/>
<path d="M171.552 231.515C171.2 231.875 173.276 235.308 173.585 235.609C173.893 235.911 174.82 236.815 175.874 235.734C176.929 234.653 176.003 233.749 175.694 233.448C175.385 233.147 171.903 231.155 171.552 231.515Z" fill="#A2FFAC"/>
<path d="M161.415 228.945C160.992 228.672 158.038 231.385 157.804 231.747C157.569 232.109 156.866 233.196 158.134 234.016C159.402 234.836 160.105 233.75 160.339 233.387C160.574 233.025 161.838 229.218 161.415 228.945Z" fill="#A2FFAC"/>
<path d="M156.15 222.807C155.902 222.37 152.028 223.409 151.652 223.621C151.277 223.834 150.151 224.472 150.896 225.786C151.64 227.1 152.766 226.461 153.142 226.249C153.517 226.036 156.399 223.245 156.15 222.807Z" fill="#A2FFAC"/>
<path d="M153.712 216.252C153.879 215.778 150.548 213.542 150.141 213.399C149.734 213.256 148.513 212.827 148.013 214.252C147.513 215.677 148.734 216.106 149.141 216.248C149.548 216.391 153.545 216.727 153.712 216.252Z" fill="#A2FFAC"/>
<ellipse cx="68.0177" cy="230.435" rx="16.7779" ry="23.3213" transform="rotate(-158.95 68.0177 230.435)" fill="#00720D"/>
<ellipse cx="68.9458" cy="227.556" rx="14.5968" ry="20.3013" transform="rotate(-158.95 68.9458 227.556)" fill="#C9FFD0"/>
<g filter="url(#filter23_f_253_1947)">
<ellipse cx="69.0424" cy="227.773" rx="7.04672" ry="9.73119" transform="rotate(-158.95 69.0424 227.773)" fill="#B7FFBF"/>
</g>
<path d="M69.4667 237.129C69.9572 237.016 71.811 240.573 71.9079 240.993C72.0049 241.414 72.2959 242.675 70.8245 243.014C69.3532 243.354 69.0622 242.093 68.9652 241.672C68.8682 241.252 68.9763 237.242 69.4667 237.129Z" fill="#A2FFAC"/>
<path d="M73.3512 231.96C73.6212 231.535 77.438 232.769 77.8021 233C78.1662 233.232 79.2584 233.926 78.4483 235.201C77.6381 236.475 76.5459 235.78 76.1818 235.549C75.8177 235.317 73.0811 232.385 73.3512 231.96Z" fill="#A2FFAC"/>
<path d="M75.5765 224.186C75.6195 223.684 79.5741 223.013 80.004 223.05C80.4338 223.087 81.7234 223.197 81.5945 224.702C81.4655 226.206 80.1759 226.096 79.7461 226.059C79.3162 226.022 75.5335 224.687 75.5765 224.186Z" fill="#A2FFAC"/>
<path d="M75.0592 217.211C74.7096 216.849 76.8041 213.428 77.1145 213.129C77.4249 212.829 78.3561 211.93 79.4049 213.016C80.4536 214.103 79.5224 215.002 79.212 215.301C78.9016 215.601 75.4088 217.573 75.0592 217.211Z" fill="#A2FFAC"/>
<path d="M62.5643 234.472C62.2763 234.059 58.516 235.456 58.1622 235.703C57.8084 235.95 56.747 236.69 57.6111 237.929C58.4752 239.167 59.5366 238.426 59.8904 238.18C60.2442 237.933 62.8524 234.885 62.5643 234.472Z" fill="#A2FFAC"/>
<path d="M64.7875 238.361C64.3178 238.18 61.9836 241.442 61.8287 241.845C61.6737 242.247 61.2088 243.455 62.618 243.998C64.0273 244.54 64.4922 243.332 64.6471 242.929C64.8021 242.527 65.2573 238.541 64.7875 238.361Z" fill="#A2FFAC"/>
<path d="M63.1475 228.033C63.2319 227.537 59.5727 225.893 59.1474 225.821C58.7221 225.748 57.4461 225.531 57.1929 227.02C56.9397 228.509 58.2157 228.726 58.641 228.798C59.0664 228.87 63.0631 228.529 63.1475 228.033Z" fill="#A2FFAC"/>
<path d="M66.7081 220.773C67.0125 220.372 64.5283 217.222 64.1847 216.962C63.841 216.701 62.8101 215.918 61.8971 217.121C60.9841 218.324 62.0151 219.106 62.3587 219.367C62.7024 219.628 66.4038 221.174 66.7081 220.773Z" fill="#A2FFAC"/>
<path d="M71.7682 215.945C72.2704 215.911 73.0099 211.968 72.9804 211.538C72.951 211.107 72.8627 209.816 71.3562 209.919C69.8497 210.022 69.938 211.313 69.9674 211.744C69.9969 212.174 71.266 215.979 71.7682 215.945Z" fill="#A2FFAC"/>
<path d="M126.152 162.3C125.222 176.443 114.494 187.253 102.19 186.445C89.8851 185.636 80.6637 173.515 81.593 159.372C82.5224 145.229 93.6882 127.761 105.993 128.57C118.297 129.378 127.081 148.157 126.152 162.3Z" fill="white"/>
<ellipse cx="103.704" cy="163.397" rx="14.6283" ry="15.3982" transform="rotate(3.75967 103.704 163.397)" fill="#FFC916"/>
<path d="M209.4 56.928C209.208 60.768 208.952 64.608 208.568 68.32C208.056 73.44 204.856 76 200.376 76C195.192 76 191.736 73.056 192.312 67.296C193.976 53.536 193.976 39.712 192.376 26.528C191.736 20.192 195.192 17.184 200.376 17.184C204.856 17.184 208.056 19.744 208.568 24.992C208.888 28 209.08 31.008 209.272 34.144L211.128 33.952C214.072 33.44 215.8 36.96 215.8 45.472C215.8 54.048 214.072 57.504 211.128 57.184L209.4 56.928ZM165.56 73.504C159.608 73.504 155.96 69.088 155.704 57.952C155.448 48.032 156.728 42.976 160.312 39.648C163.512 36.64 165.432 34.08 165.432 28.192C165.432 21.472 167.8 18.976 173.56 18.976C178.808 18.976 181.496 21.472 181.496 27.936C181.496 33.312 184.504 36.256 187.704 39.712C190.136 42.336 191.864 46.816 191.48 58.592C191.032 71.456 188.984 73.76 184.504 73.76C178.744 73.76 176.76 71.712 176.76 58.528C176.76 50.848 176.12 46.048 173.56 41.76C172.792 40.48 170.808 41.376 171.96 43.104C173.944 46.24 174.84 50.848 174.84 59.488C174.84 71.456 172.536 73.504 165.56 73.504ZM260.229 76C255.045 76 251.525 73.056 252.165 67.296C253.765 53.536 253.765 39.712 252.229 26.528C251.525 20.192 255.045 17.184 260.229 17.184C264.709 17.184 267.909 19.744 268.421 24.992C269.829 38.816 269.829 54.432 268.421 68.32C267.909 73.44 264.709 76 260.229 76ZM232.069 73.76C219.205 73.76 214.789 62.944 214.789 46.368C214.789 29.728 218.565 18.976 232.069 18.976C245.573 18.976 249.349 29.728 249.349 46.368C249.349 62.944 244.933 73.76 232.069 73.76ZM231.109 50.528C231.109 51.552 233.093 51.552 233.093 50.528V42.272C233.093 41.184 231.109 41.184 231.109 42.272V50.528ZM282.129 55.2C276.241 54.368 272.849 49.376 272.849 41.184V32.032C272.849 24.864 275.089 21.216 279.633 20.896C293.841 19.872 307.473 19.872 321.617 20.448C324.177 20.512 325.073 21.984 325.073 24.16C325.073 26.144 324.177 28.32 321.617 28.32H293.713C292.497 28.32 292.497 30.624 293.713 30.624H321.041C323.601 30.624 324.497 32.032 324.497 34.144C324.497 36.256 323.601 37.344 321.041 37.408L293.713 37.536C292.433 37.536 292.433 40.16 293.713 40.16L321.105 40.032C324.049 40.032 325.841 42.976 325.841 47.584C325.841 52.064 324.049 54.56 321.105 55.008C307.153 56.992 294.353 57.056 282.129 55.2ZM278.353 74.4C273.489 73.888 270.609 71.072 270.609 65.568C270.609 61.088 273.489 57.44 278.353 57.952C292.625 59.36 305.873 59.36 320.209 57.952C325.137 57.44 327.953 61.088 327.953 65.568C327.953 71.072 325.137 73.888 320.145 74.4C305.873 75.808 292.625 75.808 278.353 74.4Z" fill="#47A827"/>
<path d="M268.512 112.816C268.192 112.816 267.872 112.752 267.552 112.752C263.904 112.496 261.664 109.936 261.664 106.032C261.664 102.832 263.904 99.568 267.552 99.888C275.296 100.656 284.192 100.976 293.088 100.848C292.704 99.952 292.512 99.056 292.576 97.968C292.832 94.064 293.792 91.44 295.392 88.688C297.12 88.368 298.528 87.984 299.872 87.536C301.088 87.152 300.576 85.488 299.424 85.872C289.12 89.2 281.696 88.752 273.824 87.536C268.704 86.704 263.904 84.144 263.904 79.024C263.904 68.848 274.592 68.208 287.008 68.208C297.888 68.208 308.64 69.36 311.968 76.208C315.936 84.272 315.104 93.36 311.904 100.016C312.288 99.952 312.672 99.952 313.056 99.888C316.768 99.632 319.008 102.832 319.008 106.032C319.008 109.936 316.768 112.496 312.992 112.752C312.672 112.752 312.416 112.816 312.096 112.816C312.48 114.032 312.608 115.504 312.608 117.424C312.608 124.592 310.368 126 302.56 126C294.816 126 292.512 124.592 292.512 117.424C292.512 115.952 292.64 114.672 292.832 113.648C291.168 113.648 289.504 113.712 287.84 113.712C288.032 114.736 288.16 115.952 288.16 117.424C288.16 124.592 285.92 126 278.176 126C270.24 126 267.936 124.592 267.936 117.424C267.936 115.504 268.128 114.032 268.512 112.816ZM327.725 82.736C327.597 82.736 327.405 82.736 327.277 82.736C322.412 82.48 319.98 80.432 319.98 77.68C319.98 74.928 322.412 72.752 327.277 72.56C327.789 72.56 328.365 72.496 328.877 72.496C328.109 71.664 327.852 70.64 327.852 69.872C327.852 67.568 331.437 65.712 336.812 65.712C342.189 65.712 345.773 67.568 345.773 69.872C345.773 70.64 345.645 71.6 344.877 72.432C345.837 72.496 346.797 72.496 347.821 72.56C352.685 72.752 354.989 74.928 354.989 77.68C354.989 80.432 352.685 82.48 347.821 82.736C347.629 82.736 347.373 82.8 347.181 82.8C348.333 83.696 349.997 84.464 351.661 85.296C354.093 86.576 355.885 88.752 355.501 94.32C355.053 100.528 352.941 101.616 348.397 101.616C342.509 101.616 340.461 100.656 340.461 94.32C340.461 90.672 339.885 88.304 337.133 86.32C335.981 85.424 334.957 86.768 336.237 87.536C338.093 88.688 338.477 91.184 338.477 94.832C338.477 100.528 336.109 101.488 328.941 101.488C322.861 101.488 319.148 99.44 318.892 94.064C318.636 89.264 319.917 86.896 323.628 85.296C325.484 84.528 326.829 83.76 327.725 82.736ZM356.909 95.536C357.933 88.432 357.933 81.264 356.972 74.672C356.333 69.424 359.661 67.12 364.845 67.12C369.325 67.12 372.461 69.104 373.037 73.392C374.189 80.624 374.189 89.136 373.037 96.304C372.461 100.592 369.325 102.576 364.845 102.576C359.661 102.576 356.333 100.336 356.909 95.536ZM331.053 117.808C324.972 117.744 320.749 116.016 320.428 112.048C320.109 108.016 325.229 105.52 332.077 104.432C341.229 102.96 353.389 101.936 362.029 103.6C368.109 104.816 371.437 107.248 372.909 109.616C374.829 113.008 374.381 117.808 371.885 120.944C369.581 123.888 365.485 125.296 358.893 125.424C351.917 125.616 347.565 123.568 346.925 120.176C346.221 116.464 347.693 113.648 350.509 111.216C351.085 110.768 349.805 110.32 349.292 110.832C344.365 115.056 337.645 117.936 331.053 117.808Z" fill="#85DB69"/>
</g>
<defs>
<filter id="filter0_i_253_1947" x="59.5806" y="87.4673" width="34.009" height="34.0092" filterUnits="userSpaceOnUse" color-interpolation-filters="sRGB">
<feFlood flood-opacity="0" result="BackgroundImageFix"/>
<feBlend mode="normal" in="SourceGraphic" in2="BackgroundImageFix" result="shape"/>
<feColorMatrix in="SourceAlpha" type="matrix" values="0 0 0 0 0 0 0 0 0 0 0 0 0 0 0 0 0 0 127 0" result="hardAlpha"/>
<feMorphology radius="3" operator="erode" in="SourceAlpha" result="effect1_innerShadow_253_1947"/>
<feOffset/>
<feGaussianBlur stdDeviation="6.7"/>
<feComposite in2="hardAlpha" operator="arithmetic" k2="-1" k3="1"/>
<feColorMatrix type="matrix" values="0 0 0 0 1 0 0 0 0 0.483333 0 0 0 0 0.483333 0 0 0 1 0"/>
<feBlend mode="normal" in2="shape" result="effect1_innerShadow_253_1947"/>
</filter>
<filter id="filter1_i_253_1947" x="78.4883" y="99.6882" width="12.4294" height="16.4822" filterUnits="userSpaceOnUse" color-interpolation-filters="sRGB">
<feFlood flood-opacity="0" result="BackgroundImageFix"/>
<feBlend mode="normal" in="SourceGraphic" in2="BackgroundImageFix" result="shape"/>
<feColorMatrix in="SourceAlpha" type="matrix" values="0 0 0 0 0 0 0 0 0 0 0 0 0 0 0 0 0 0 127 0" result="hardAlpha"/>
<feOffset/>
<feGaussianBlur stdDeviation="2"/>
<feComposite in2="hardAlpha" operator="arithmetic" k2="-1" k3="1"/>
<feColorMatrix type="matrix" values="0 0 0 0 1 0 0 0 0 0 0 0 0 0 0 0 0 0 1 0"/>
<feBlend mode="normal" in2="shape" result="effect1_innerShadow_253_1947"/>
</filter>
<filter id="filter2_i_253_1947" x="64.8862" y="106.375" width="16.4822" height="12.4976" filterUnits="userSpaceOnUse" color-interpolation-filters="sRGB">
<feFlood flood-opacity="0" result="BackgroundImageFix"/>
<feBlend mode="normal" in="SourceGraphic" in2="BackgroundImageFix" result="shape"/>
<feColorMatrix in="SourceAlpha" type="matrix" values="0 0 0 0 0 0 0 0 0 0 0 0 0 0 0 0 0 0 127 0" result="hardAlpha"/>
<feOffset/>
<feGaussianBlur stdDeviation="2"/>
<feComposite in2="hardAlpha" operator="arithmetic" k2="-1" k3="1"/>
<feColorMatrix type="matrix" values="0 0 0 0 1 0 0 0 0 0 0 0 0 0 0 0 0 0 1 0"/>
<feBlend mode="normal" in2="shape" result="effect1_innerShadow_253_1947"/>
</filter>
<filter id="filter3_i_253_1947" x="71.8018" y="89.9656" width="16.4822" height="12.603" filterUnits="userSpaceOnUse" color-interpolation-filters="sRGB">
<feFlood flood-opacity="0" result="BackgroundImageFix"/>
<feBlend mode="normal" in="SourceGraphic" in2="BackgroundImageFix" result="shape"/>
<feColorMatrix in="SourceAlpha" type="matrix" values="0 0 0 0 0 0 0 0 0 0 0 0 0 0 0 0 0 0 127 0" result="hardAlpha"/>
<feOffset/>
<feGaussianBlur stdDeviation="2"/>
<feComposite in2="hardAlpha" operator="arithmetic" k2="-1" k3="1"/>
<feColorMatrix type="matrix" values="0 0 0 0 1 0 0 0 0 0 0 0 0 0 0 0 0 0 1 0"/>
<feBlend mode="normal" in2="shape" result="effect1_innerShadow_253_1947"/>
</filter>
<filter id="filter4_i_253_1947" x="62.3884" y="92.7729" width="12.2935" height="16.4823" filterUnits="userSpaceOnUse" color-interpolation-filters="sRGB">
<feFlood flood-opacity="0" result="BackgroundImageFix"/>
<feBlend mode="normal" in="SourceGraphic" in2="BackgroundImageFix" result="shape"/>
<feColorMatrix in="SourceAlpha" type="matrix" values="0 0 0 0 0 0 0 0 0 0 0 0 0 0 0 0 0 0 127 0" result="hardAlpha"/>
<feOffset/>
<feGaussianBlur stdDeviation="2"/>
<feComposite in2="hardAlpha" operator="arithmetic" k2="-1" k3="1"/>
<feColorMatrix type="matrix" values="0 0 0 0 1 0 0 0 0 0 0 0 0 0 0 0 0 0 1 0"/>
<feBlend mode="normal" in2="shape" result="effect1_innerShadow_253_1947"/>
</filter>
<filter id="filter5_f_253_1947" x="120.978" y="92.0178" width="24.5432" height="25.4309" filterUnits="userSpaceOnUse" color-interpolation-filters="sRGB">
<feFlood flood-opacity="0" result="BackgroundImageFix"/>
<feBlend mode="normal" in="SourceGraphic" in2="BackgroundImageFix" result="shape"/>
<feGaussianBlur stdDeviation="2" result="effect1_foregroundBlur_253_1947"/>
</filter>
<filter id="filter6_i_253_1947" x="79.7925" y="248.996" width="34.009" height="34.0092" filterUnits="userSpaceOnUse" color-interpolation-filters="sRGB">
<feFlood flood-opacity="0" result="BackgroundImageFix"/>
<feBlend mode="normal" in="SourceGraphic" in2="BackgroundImageFix" result="shape"/>
<feColorMatrix in="SourceAlpha" type="matrix" values="0 0 0 0 0 0 0 0 0 0 0 0 0 0 0 0 0 0 127 0" result="hardAlpha"/>
<feMorphology radius="3" operator="erode" in="SourceAlpha" result="effect1_innerShadow_253_1947"/>
<feOffset/>
<feGaussianBlur stdDeviation="6.7"/>
<feComposite in2="hardAlpha" operator="arithmetic" k2="-1" k3="1"/>
<feColorMatrix type="matrix" values="0 0 0 0 1 0 0 0 0 0.483333 0 0 0 0 0.483333 0 0 0 1 0"/>
<feBlend mode="normal" in2="shape" result="effect1_innerShadow_253_1947"/>
</filter>
<filter id="filter7_i_253_1947" x="98.7002" y="261.217" width="12.4294" height="16.4822" filterUnits="userSpaceOnUse" color-interpolation-filters="sRGB">
<feFlood flood-opacity="0" result="BackgroundImageFix"/>
<feBlend mode="normal" in="SourceGraphic" in2="BackgroundImageFix" result="shape"/>
<feColorMatrix in="SourceAlpha" type="matrix" values="0 0 0 0 0 0 0 0 0 0 0 0 0 0 0 0 0 0 127 0" result="hardAlpha"/>
<feOffset/>
<feGaussianBlur stdDeviation="2"/>
<feComposite in2="hardAlpha" operator="arithmetic" k2="-1" k3="1"/>
<feColorMatrix type="matrix" values="0 0 0 0 1 0 0 0 0 0 0 0 0 0 0 0 0 0 1 0"/>
<feBlend mode="normal" in2="shape" result="effect1_innerShadow_253_1947"/>
</filter>
<filter id="filter8_i_253_1947" x="85.0981" y="267.904" width="16.4822" height="12.4976" filterUnits="userSpaceOnUse" color-interpolation-filters="sRGB">
<feFlood flood-opacity="0" result="BackgroundImageFix"/>
<feBlend mode="normal" in="SourceGraphic" in2="BackgroundImageFix" result="shape"/>
<feColorMatrix in="SourceAlpha" type="matrix" values="0 0 0 0 0 0 0 0 0 0 0 0 0 0 0 0 0 0 127 0" result="hardAlpha"/>
<feOffset/>
<feGaussianBlur stdDeviation="2"/>
<feComposite in2="hardAlpha" operator="arithmetic" k2="-1" k3="1"/>
<feColorMatrix type="matrix" values="0 0 0 0 1 0 0 0 0 0 0 0 0 0 0 0 0 0 1 0"/>
<feBlend mode="normal" in2="shape" result="effect1_innerShadow_253_1947"/>
</filter>
<filter id="filter9_i_253_1947" x="92.0137" y="251.494" width="16.4822" height="12.6029" filterUnits="userSpaceOnUse" color-interpolation-filters="sRGB">
<feFlood flood-opacity="0" result="BackgroundImageFix"/>
<feBlend mode="normal" in="SourceGraphic" in2="BackgroundImageFix" result="shape"/>
<feColorMatrix in="SourceAlpha" type="matrix" values="0 0 0 0 0 0 0 0 0 0 0 0 0 0 0 0 0 0 127 0" result="hardAlpha"/>
<feOffset/>
<feGaussianBlur stdDeviation="2"/>
<feComposite in2="hardAlpha" operator="arithmetic" k2="-1" k3="1"/>
<feColorMatrix type="matrix" values="0 0 0 0 1 0 0 0 0 0 0 0 0 0 0 0 0 0 1 0"/>
<feBlend mode="normal" in2="shape" result="effect1_innerShadow_253_1947"/>
</filter>
<filter id="filter10_i_253_1947" x="82.6003" y="254.302" width="12.2935" height="16.4822" filterUnits="userSpaceOnUse" color-interpolation-filters="sRGB">
<feFlood flood-opacity="0" result="BackgroundImageFix"/>
<feBlend mode="normal" in="SourceGraphic" in2="BackgroundImageFix" result="shape"/>
<feColorMatrix in="SourceAlpha" type="matrix" values="0 0 0 0 0 0 0 0 0 0 0 0 0 0 0 0 0 0 127 0" result="hardAlpha"/>
<feOffset/>
<feGaussianBlur stdDeviation="2"/>
<feComposite in2="hardAlpha" operator="arithmetic" k2="-1" k3="1"/>
<feColorMatrix type="matrix" values="0 0 0 0 1 0 0 0 0 0 0 0 0 0 0 0 0 0 1 0"/>
<feBlend mode="normal" in2="shape" result="effect1_innerShadow_253_1947"/>
</filter>
<filter id="filter11_i_253_1947" x="122.28" y="144.254" width="34.009" height="34.0092" filterUnits="userSpaceOnUse" color-interpolation-filters="sRGB">
<feFlood flood-opacity="0" result="BackgroundImageFix"/>
<feBlend mode="normal" in="SourceGraphic" in2="BackgroundImageFix" result="shape"/>
<feColorMatrix in="SourceAlpha" type="matrix" values="0 0 0 0 0 0 0 0 0 0 0 0 0 0 0 0 0 0 127 0" result="hardAlpha"/>
<feMorphology radius="3" operator="erode" in="SourceAlpha" result="effect1_innerShadow_253_1947"/>
<feOffset/>
<feGaussianBlur stdDeviation="6.7"/>
<feComposite in2="hardAlpha" operator="arithmetic" k2="-1" k3="1"/>
<feColorMatrix type="matrix" values="0 0 0 0 1 0 0 0 0 0.483333 0 0 0 0 0.483333 0 0 0 1 0"/>
<feBlend mode="normal" in2="shape" result="effect1_innerShadow_253_1947"/>
</filter>
<filter id="filter12_i_253_1947" x="141.188" y="156.475" width="12.4294" height="16.4822" filterUnits="userSpaceOnUse" color-interpolation-filters="sRGB">
<feFlood flood-opacity="0" result="BackgroundImageFix"/>
<feBlend mode="normal" in="SourceGraphic" in2="BackgroundImageFix" result="shape"/>
<feColorMatrix in="SourceAlpha" type="matrix" values="0 0 0 0 0 0 0 0 0 0 0 0 0 0 0 0 0 0 127 0" result="hardAlpha"/>
<feOffset/>
<feGaussianBlur stdDeviation="2"/>
<feComposite in2="hardAlpha" operator="arithmetic" k2="-1" k3="1"/>
<feColorMatrix type="matrix" values="0 0 0 0 1 0 0 0 0 0 0 0 0 0 0 0 0 0 1 0"/>
<feBlend mode="normal" in2="shape" result="effect1_innerShadow_253_1947"/>
</filter>
<filter id="filter13_i_253_1947" x="127.586" y="163.162" width="16.4822" height="12.4976" filterUnits="userSpaceOnUse" color-interpolation-filters="sRGB">
<feFlood flood-opacity="0" result="BackgroundImageFix"/>
<feBlend mode="normal" in="SourceGraphic" in2="BackgroundImageFix" result="shape"/>
<feColorMatrix in="SourceAlpha" type="matrix" values="0 0 0 0 0 0 0 0 0 0 0 0 0 0 0 0 0 0 127 0" result="hardAlpha"/>
<feOffset/>
<feGaussianBlur stdDeviation="2"/>
<feComposite in2="hardAlpha" operator="arithmetic" k2="-1" k3="1"/>
<feColorMatrix type="matrix" values="0 0 0 0 1 0 0 0 0 0 0 0 0 0 0 0 0 0 1 0"/>
<feBlend mode="normal" in2="shape" result="effect1_innerShadow_253_1947"/>
</filter>
<filter id="filter14_i_253_1947" x="134.501" y="146.753" width="16.4822" height="12.6029" filterUnits="userSpaceOnUse" color-interpolation-filters="sRGB">
<feFlood flood-opacity="0" result="BackgroundImageFix"/>
<feBlend mode="normal" in="SourceGraphic" in2="BackgroundImageFix" result="shape"/>
<feColorMatrix in="SourceAlpha" type="matrix" values="0 0 0 0 0 0 0 0 0 0 0 0 0 0 0 0 0 0 127 0" result="hardAlpha"/>
<feOffset/>
<feGaussianBlur stdDeviation="2"/>
<feComposite in2="hardAlpha" operator="arithmetic" k2="-1" k3="1"/>
<feColorMatrix type="matrix" values="0 0 0 0 1 0 0 0 0 0 0 0 0 0 0 0 0 0 1 0"/>
<feBlend mode="normal" in2="shape" result="effect1_innerShadow_253_1947"/>
</filter>
<filter id="filter15_i_253_1947" x="125.088" y="149.56" width="12.2935" height="16.4822" filterUnits="userSpaceOnUse" color-interpolation-filters="sRGB">
<feFlood flood-opacity="0" result="BackgroundImageFix"/>
<feBlend mode="normal" in="SourceGraphic" in2="BackgroundImageFix" result="shape"/>
<feColorMatrix in="SourceAlpha" type="matrix" values="0 0 0 0 0 0 0 0 0 0 0 0 0 0 0 0 0 0 127 0" result="hardAlpha"/>
<feOffset/>
<feGaussianBlur stdDeviation="2"/>
<feComposite in2="hardAlpha" operator="arithmetic" k2="-1" k3="1"/>
<feColorMatrix type="matrix" values="0 0 0 0 1 0 0 0 0 0 0 0 0 0 0 0 0 0 1 0"/>
<feBlend mode="normal" in2="shape" result="effect1_innerShadow_253_1947"/>
</filter>
<filter id="filter16_f_253_1947" x="45.5698" y="126.244" width="26.6868" height="23.115" filterUnits="userSpaceOnUse" color-interpolation-filters="sRGB">
<feFlood flood-opacity="0" result="BackgroundImageFix"/>
<feBlend mode="normal" in="SourceGraphic" in2="BackgroundImageFix" result="shape"/>
<feGaussianBlur stdDeviation="2" result="effect1_foregroundBlur_253_1947"/>
</filter>
<filter id="filter17_i_253_1947" x="-1.92041" y="168.896" width="34.009" height="34.0092" filterUnits="userSpaceOnUse" color-interpolation-filters="sRGB">
<feFlood flood-opacity="0" result="BackgroundImageFix"/>
<feBlend mode="normal" in="SourceGraphic" in2="BackgroundImageFix" result="shape"/>
<feColorMatrix in="SourceAlpha" type="matrix" values="0 0 0 0 0 0 0 0 0 0 0 0 0 0 0 0 0 0 127 0" result="hardAlpha"/>
<feMorphology radius="3" operator="erode" in="SourceAlpha" result="effect1_innerShadow_253_1947"/>
<feOffset/>
<feGaussianBlur stdDeviation="6.7"/>
<feComposite in2="hardAlpha" operator="arithmetic" k2="-1" k3="1"/>
<feColorMatrix type="matrix" values="0 0 0 0 1 0 0 0 0 0.483333 0 0 0 0 0.483333 0 0 0 1 0"/>
<feBlend mode="normal" in2="shape" result="effect1_innerShadow_253_1947"/>
</filter>
<filter id="filter18_i_253_1947" x="16.9873" y="181.117" width="12.4294" height="16.4822" filterUnits="userSpaceOnUse" color-interpolation-filters="sRGB">
<feFlood flood-opacity="0" result="BackgroundImageFix"/>
<feBlend mode="normal" in="SourceGraphic" in2="BackgroundImageFix" result="shape"/>
<feColorMatrix in="SourceAlpha" type="matrix" values="0 0 0 0 0 0 0 0 0 0 0 0 0 0 0 0 0 0 127 0" result="hardAlpha"/>
<feOffset/>
<feGaussianBlur stdDeviation="2"/>
<feComposite in2="hardAlpha" operator="arithmetic" k2="-1" k3="1"/>
<feColorMatrix type="matrix" values="0 0 0 0 1 0 0 0 0 0 0 0 0 0 0 0 0 0 1 0"/>
<feBlend mode="normal" in2="shape" result="effect1_innerShadow_253_1947"/>
</filter>
<filter id="filter19_i_253_1947" x="3.38525" y="187.804" width="16.4822" height="12.4976" filterUnits="userSpaceOnUse" color-interpolation-filters="sRGB">
<feFlood flood-opacity="0" result="BackgroundImageFix"/>
<feBlend mode="normal" in="SourceGraphic" in2="BackgroundImageFix" result="shape"/>
<feColorMatrix in="SourceAlpha" type="matrix" values="0 0 0 0 0 0 0 0 0 0 0 0 0 0 0 0 0 0 127 0" result="hardAlpha"/>
<feOffset/>
<feGaussianBlur stdDeviation="2"/>
<feComposite in2="hardAlpha" operator="arithmetic" k2="-1" k3="1"/>
<feColorMatrix type="matrix" values="0 0 0 0 1 0 0 0 0 0 0 0 0 0 0 0 0 0 1 0"/>
<feBlend mode="normal" in2="shape" result="effect1_innerShadow_253_1947"/>
</filter>
<filter id="filter20_i_253_1947" x="10.3008" y="171.394" width="16.4822" height="12.6029" filterUnits="userSpaceOnUse" color-interpolation-filters="sRGB">
<feFlood flood-opacity="0" result="BackgroundImageFix"/>
<feBlend mode="normal" in="SourceGraphic" in2="BackgroundImageFix" result="shape"/>
<feColorMatrix in="SourceAlpha" type="matrix" values="0 0 0 0 0 0 0 0 0 0 0 0 0 0 0 0 0 0 127 0" result="hardAlpha"/>
<feOffset/>
<feGaussianBlur stdDeviation="2"/>
<feComposite in2="hardAlpha" operator="arithmetic" k2="-1" k3="1"/>
<feColorMatrix type="matrix" values="0 0 0 0 1 0 0 0 0 0 0 0 0 0 0 0 0 0 1 0"/>
<feBlend mode="normal" in2="shape" result="effect1_innerShadow_253_1947"/>
</filter>
<filter id="filter21_i_253_1947" x="0.887451" y="174.202" width="12.2935" height="16.4822" filterUnits="userSpaceOnUse" color-interpolation-filters="sRGB">
<feFlood flood-opacity="0" result="BackgroundImageFix"/>
<feBlend mode="normal" in="SourceGraphic" in2="BackgroundImageFix" result="shape"/>
<feColorMatrix in="SourceAlpha" type="matrix" values="0 0 0 0 0 0 0 0 0 0 0 0 0 0 0 0 0 0 127 0" result="hardAlpha"/>
<feOffset/>
<feGaussianBlur stdDeviation="2"/>
<feComposite in2="hardAlpha" operator="arithmetic" k2="-1" k3="1"/>
<feColorMatrix type="matrix" values="0 0 0 0 1 0 0 0 0 0 0 0 0 0 0 0 0 0 1 0"/>
<feBlend mode="normal" in2="shape" result="effect1_innerShadow_253_1947"/>
</filter>
<filter id="filter22_f_253_1947" x="150.975" y="210.963" width="25.0571" height="24.9277" filterUnits="userSpaceOnUse" color-interpolation-filters="sRGB">
<feFlood flood-opacity="0" result="BackgroundImageFix"/>
<feBlend mode="normal" in="SourceGraphic" in2="BackgroundImageFix" result="shape"/>
<feGaussianBlur stdDeviation="2" result="effect1_foregroundBlur_253_1947"/>
</filter>
<filter id="filter23_f_253_1947" x="57.5933" y="214.343" width="22.8982" height="26.8606" filterUnits="userSpaceOnUse" color-interpolation-filters="sRGB">
<feFlood flood-opacity="0" result="BackgroundImageFix"/>
<feBlend mode="normal" in="SourceGraphic" in2="BackgroundImageFix" result="shape"/>
<feGaussianBlur stdDeviation="2" result="effect1_foregroundBlur_253_1947"/>
</filter>
<clipPath id="clip0_253_1947">
<rect width="380" height="272" rx="20" fill="white"/>
</clipPath>
</defs>
</svg>
