<svg width="324" height="270" viewBox="0 0 324 270" fill="none" xmlns="http://www.w3.org/2000/svg">
<path d="M35.5 50L52.5 60.4215V162.321L91 249L79.5 269.5L30 262.5V155L35.5 50Z" fill="#FCC5A9"/>
<path d="M286.5 50L269.5 60.4215V162.321L231 249L242.5 269.5L292 262.5V155L286.5 50Z" fill="#FCC5A9"/>
<circle cx="162" cy="130" r="130" fill="#D6A173"/>
<circle cx="162" cy="130" r="117" fill="#BF8D62"/>
<path d="M29.3837 52.0631L42.5692 62.6168L31.7192 119.573L34.8957 179.227L57.1964 256.12L30.0154 262.953L2.05629 190.86L29.3837 52.0631Z" fill="#FFD5BF"/>
<path d="M30 146L41.8791 148L48.1981 202.736L75 255.463L36.5 261.5L20 204.745L30 146Z" fill="#FCC5A9"/>
<path d="M30 145.5H45.2236L51 200L75.5 252.5L37 261L25.2236 202L30 145.5Z" fill="#FFD5BF"/>
<path d="M293.691 52.0631L280.505 62.6168L291.355 119.573L288.179 179.227L265.878 256.12L293.059 262.953L321.018 190.86L293.691 52.0631Z" fill="#FFD5BF"/>
<path d="M291.5 145.74L285.045 145.74L275.856 200.067L246.318 251.312L284.447 259.365L303.909 203.556L291.5 145.74Z" fill="#FCC5A9"/>
<path d="M291.5 145H276.276L270.5 199.5L246 252L284.5 260.5L296.276 201.5L291.5 145Z" fill="#FFD5BF"/>
<path fill-rule="evenodd" clip-rule="evenodd" d="M263.614 118.51C269.225 128.578 262.091 138.372 247.186 144.147C238.994 147.32 222.627 145.673 209.547 143.546C209.505 143.577 209.484 143.592 209.484 143.592L189.876 140.571C189.876 140.571 173.881 101.015 180.419 88.7354C186.958 76.4554 198.491 70.5088 210.66 75.0129C215.451 76.786 217.721 81.4871 218.714 86.5364C224.928 80.9649 230.566 76.3851 234.166 74.4871C244.265 69.1641 254.834 67.8165 262.287 74.0842C271.213 80.3591 270.37 90.0498 263.994 98.739C261.834 101.682 256.52 106.56 250.013 112.039C256.035 112.881 261.51 114.734 263.614 118.51Z" fill="#6AC04D"/>
<path d="M237.366 96.9276L239.859 95.9444C239.859 95.9444 222.542 112.498 219.873 115.109C217.205 117.72 200.554 133.532 200.554 133.532L198.218 134.444C198.218 134.444 215.678 116.537 218.044 114.113C220.409 111.689 237.366 96.9276 237.366 96.9276Z" fill="#85DB69"/>
<path fill-rule="evenodd" clip-rule="evenodd" d="M150.093 62.1421C167.278 63.5629 175.919 76.7133 174.148 94.4628C173.175 104.219 160.452 118.423 149.19 129.239C149.205 129.298 149.212 129.328 149.212 129.328L132.555 145.651C132.555 145.651 68.9168 134.416 56.5403 120.178C44.1639 105.94 43.5387 91.2267 57.4243 82.8358C62.8902 79.5329 70.6907 80.5226 78.1408 82.9372C74.6093 73.4426 72.0461 65.1429 71.7951 60.5218C71.0909 47.5613 76.0533 36.7929 89.2936 33.9766C103.487 29.7899 116.023 36.9914 123.658 48.7012C126.243 52.6675 129.416 60.8616 132.635 70.5686C137.634 65.4988 143.648 61.6092 150.093 62.1421Z" fill="#AEEE98"/>
<path d="M104.13 72.385L104.403 69.4045C104.403 69.4045 115.63 96.5439 117.441 100.766C119.253 104.988 129.908 131.014 129.908 131.014L129.639 133.8C129.639 133.8 116.677 105.632 114.924 101.817C113.171 98.0019 104.13 72.385 104.13 72.385Z" fill="#85DB69"/>
<path fill-rule="evenodd" clip-rule="evenodd" d="M234.867 61.0301C247.543 70.2632 245.325 84.6316 231.657 97.6768C224.144 104.847 204.219 109.943 187.797 113.079C187.768 113.132 187.753 113.16 187.753 113.16L163.239 118.053C163.239 118.053 120.426 79.1903 120.426 62.2057C120.426 45.2211 130.093 33.4182 146.925 33.4182C153.551 33.4182 159.066 37.8791 163.319 43.2889C167.072 34.194 170.768 26.4913 173.761 22.7585C182.155 12.2894 193.538 6.21272 206.006 10.2675C220.177 13.7012 225.165 25.2581 223.143 38.0242C222.458 42.3483 219.319 50.2565 215.171 59.3699C222.647 57.7673 230.113 57.5672 234.867 61.0301Z" fill="#85DB69"/>
<path d="M191.263 47.3183L193.538 45.1161C193.538 45.1161 183.712 71.6478 182.236 75.806C180.759 79.9642 171.247 105.355 171.247 105.355L169.109 107.406C169.109 107.406 178.267 79.2501 179.509 75.4381C180.751 71.626 191.263 47.3183 191.263 47.3183Z" fill="#6AC04D"/>
<circle cx="100.084" cy="95.0838" r="20" transform="rotate(-107.479 100.084 95.0838)" fill="#FF2020"/>
<g filter="url(#filter0_i_51_448)">
<circle cx="100.084" cy="95.0837" r="17" transform="rotate(-107.479 100.084 95.0837)" fill="#FFA4A4"/>
</g>
<g filter="url(#filter1_i_51_448)">
<path d="M101.991 94.483L113.415 99.9651C113.415 99.9651 115.478 96.5267 113.676 90.8037C111.874 85.0807 108.213 83.4444 108.213 83.4444L101.991 94.483Z" fill="#FF3434"/>
</g>
<g filter="url(#filter2_i_51_448)">
<path d="M100.684 96.9911L111.723 103.213C111.723 103.213 110.564 106.723 104.364 108.675C98.164 110.628 95.2024 108.415 95.2024 108.415L100.684 96.9911Z" fill="#FF3434"/>
</g>
<g filter="url(#filter3_i_51_448)">
<path d="M99.483 93.1762L104.965 81.7521C104.965 81.7521 102.079 79.7779 95.8037 81.4918C89.5287 83.2057 88.4444 86.9544 88.4444 86.9544L99.483 93.1762Z" fill="#FF3434"/>
</g>
<g filter="url(#filter4_i_51_448)">
<path d="M98.1761 95.6842L91.9544 106.723C91.9544 106.723 87.9935 104.133 86.4917 99.3636C84.9899 94.5944 86.7521 90.2021 86.7521 90.2021L98.1761 95.6842Z" fill="#FF3434"/>
</g>
<path d="M92.9849 101.277C93.2633 101.461 92.4051 103.975 92.2479 104.213C92.0907 104.452 91.6191 105.168 90.7841 104.617C89.9491 104.067 90.4207 103.351 90.5779 103.113C90.7351 102.874 92.7066 101.094 92.9849 101.277Z" fill="#FFC916"/>
<path d="M90.7395 94.2821C90.5999 94.5848 87.9856 94.1134 87.7261 93.9938C87.4667 93.8742 86.6883 93.5152 87.107 92.6071C87.5258 91.699 88.3042 92.0579 88.5636 92.1776C88.8231 92.2972 90.879 93.9794 90.7395 94.2821Z" fill="#FFC916"/>
<path d="M91.5659 98.7846C91.7383 99.0699 89.8821 100.97 89.6375 101.118C89.393 101.266 88.6593 101.709 88.1422 100.853C87.6251 99.9971 88.3588 99.5539 88.6033 99.4062C88.8479 99.2584 91.3936 98.4993 91.5659 98.7846Z" fill="#FFC916"/>
<path d="M90.935 96.5374C90.9819 96.8674 88.5299 97.8894 88.247 97.9296C87.9642 97.9698 87.1155 98.0905 86.9748 97.1005C86.834 96.1104 87.6826 95.9898 87.9655 95.9495C88.2484 95.9093 90.888 96.2074 90.935 96.5374Z" fill="#FFC916"/>
<path d="M106.205 102.205C106.388 101.927 108.902 102.785 109.141 102.942C109.38 103.1 110.095 103.571 109.545 104.406C108.995 105.241 108.279 104.77 108.041 104.613C107.802 104.455 106.022 102.484 106.205 102.205Z" fill="#FFC916"/>
<path d="M99.2099 104.451C99.5126 104.591 99.0412 107.205 98.9215 107.464C98.8019 107.724 98.443 108.502 97.5349 108.083C96.6268 107.665 96.9857 106.886 97.1053 106.627C97.225 106.367 98.9072 104.311 99.2099 104.451Z" fill="#FFC916"/>
<path d="M103.712 103.624C103.997 103.452 105.898 105.308 106.045 105.553C106.193 105.797 106.636 106.531 105.781 107.048C104.925 107.565 104.481 106.832 104.334 106.587C104.186 106.343 103.427 103.797 103.712 103.624Z" fill="#FFC916"/>
<path d="M101.465 104.256C101.795 104.209 102.817 106.661 102.858 106.944C102.898 107.227 103.018 108.075 102.028 108.216C101.038 108.357 100.918 107.508 100.878 107.225C100.837 106.942 101.135 104.303 101.465 104.256Z" fill="#FFC916"/>
<path d="M101.128 86.0825C101.437 86.2055 103.006 84.0618 103.112 83.7962C103.217 83.5307 103.533 82.7341 102.604 82.3649C101.675 81.9958 101.358 82.7925 101.253 83.058C101.147 83.3235 100.818 85.9595 101.128 86.0825Z" fill="#FFC916"/>
<path d="M94.1081 88.2498C94.2762 87.9619 92.3919 86.0894 92.1452 85.9453C91.8985 85.8012 91.1583 85.369 90.654 86.2325C90.1497 87.096 90.8898 87.5283 91.1366 87.6724C91.3833 87.8165 93.94 88.5376 94.1081 88.2498Z" fill="#FFC916"/>
<path d="M98.2717 86.3474C98.6043 86.3252 99.0982 83.7151 99.0791 83.43C99.0601 83.1449 99.003 82.2897 98.0052 82.3563C97.0074 82.4229 97.0646 83.2782 97.0836 83.5633C97.1026 83.8483 97.9391 86.3696 98.2717 86.3474Z" fill="#FFC916"/>
<path d="M96.0686 87.1179C96.3659 86.9673 95.7986 84.3721 95.6695 84.1173C95.5404 83.8624 95.153 83.0977 94.261 83.5497C93.3689 84.0016 93.7562 84.7662 93.8854 85.0211C94.0145 85.2759 95.7712 87.2686 96.0686 87.1179Z" fill="#FFC916"/>
<path d="M109.108 96.2004C108.985 96.5102 111.129 98.0789 111.394 98.1844C111.66 98.2898 112.456 98.6062 112.825 97.6768C113.195 96.7474 112.398 96.4311 112.132 96.3256C111.867 96.2201 109.231 95.8906 109.108 96.2004Z" fill="#FFC916"/>
<path d="M106.94 89.1806C107.228 89.3487 109.101 87.4644 109.245 87.2177C109.389 86.971 109.821 86.2308 108.958 85.7265C108.094 85.2222 107.662 85.9624 107.518 86.2091C107.374 86.4558 106.653 89.0125 106.94 89.1806Z" fill="#FFC916"/>
<path d="M108.843 93.344C108.865 93.6766 111.475 94.1704 111.76 94.1514C112.045 94.1324 112.9 94.0753 112.834 93.0775C112.767 92.0797 111.912 92.1368 111.627 92.1558C111.342 92.1749 108.821 93.0114 108.843 93.344Z" fill="#FFC916"/>
<path d="M108.073 91.1411C108.223 91.4384 110.818 90.8711 111.073 90.742C111.328 90.6129 112.093 90.2255 111.641 89.3335C111.189 88.4414 110.424 88.8287 110.169 88.9579C109.914 89.087 107.922 90.8437 108.073 91.1411Z" fill="#FFC916"/>
<ellipse cx="146.676" cy="59.6473" rx="16.7779" ry="23.3213" transform="rotate(4.81478 146.676 59.6473)" fill="#00720D"/>
<ellipse cx="146.59" cy="62.6706" rx="14.5968" ry="20.3013" transform="rotate(4.81478 146.59 62.6706)" fill="#C9FFD0"/>
<g filter="url(#filter5_f_51_448)">
<ellipse cx="146.437" cy="62.4895" rx="7.04673" ry="9.73119" transform="rotate(4.81478 146.437 62.4895)" fill="#B7FFBF"/>
</g>
<path d="M143.414 53.6255C142.974 53.8712 140.2 50.9742 139.989 50.5976C139.779 50.2211 139.147 49.0916 140.465 48.3543C141.782 47.617 142.414 48.7466 142.625 49.1231C142.836 49.4996 143.853 53.3797 143.414 53.6255Z" fill="#A2FFAC"/>
<path d="M141.129 59.6746C140.989 60.1579 136.979 60.0404 136.565 59.92C136.151 59.7995 134.908 59.4382 135.329 57.9882C135.751 56.5382 136.994 56.8996 137.408 57.0201C137.822 57.1405 141.27 59.1913 141.129 59.6746Z" fill="#A2FFAC"/>
<path d="M141.166 67.7608C141.265 68.2543 137.656 70.0046 137.233 70.0894C136.81 70.1742 135.541 70.4286 135.244 68.9481C134.947 67.4675 136.216 67.2131 136.639 67.1283C137.062 67.0435 141.067 67.2673 141.166 67.7608Z" fill="#A2FFAC"/>
<path d="M143.613 74.3124C144.05 74.5624 142.995 78.4325 142.781 78.807C142.567 79.1815 141.924 80.3049 140.613 79.555C139.303 78.8051 139.945 77.6817 140.16 77.3072C140.374 76.9327 143.176 74.0624 143.613 74.3124Z" fill="#A2FFAC"/>
<path d="M150.784 54.2466C151.176 54.5624 154.395 52.1703 154.666 51.8343C154.937 51.4983 155.749 50.4904 154.573 49.5431C153.397 48.5958 152.585 49.6037 152.314 49.9396C152.044 50.2756 150.392 53.9309 150.784 54.2466Z" fill="#A2FFAC"/>
<path d="M147.562 51.135C148.063 51.1773 149.392 47.3926 149.429 46.9627C149.465 46.5328 149.573 45.2431 148.069 45.1163C146.564 44.9896 146.455 46.2793 146.419 46.7092C146.383 47.1391 147.06 51.0928 147.562 51.135Z" fill="#A2FFAC"/>
<path d="M152.024 60.5923C152.082 61.0924 156.054 61.6473 156.483 61.5978C156.912 61.5484 158.197 61.4 158.024 59.8999C157.851 58.3999 156.565 58.5482 156.137 58.5977C155.708 58.6472 151.966 60.0923 152.024 60.5923Z" fill="#A2FFAC"/>
<path d="M150.635 68.558C150.455 69.028 153.721 71.3574 154.123 71.5117C154.526 71.6661 155.735 72.1292 156.275 70.7192C156.815 69.3091 155.607 68.846 155.204 68.6916C154.801 68.5373 150.815 68.088 150.635 68.558Z" fill="#A2FFAC"/>
<path d="M147.127 74.6085C146.654 74.7818 147.046 78.7739 147.195 79.1789C147.343 79.5839 147.789 80.799 149.207 80.2789C150.625 79.7589 150.179 78.5438 150.03 78.1387C149.882 77.7337 147.599 74.4351 147.127 74.6085Z" fill="#A2FFAC"/>
<path fill-rule="evenodd" clip-rule="evenodd" d="M229.178 111.48C234.489 119.202 229.595 127.436 218.163 132.903C211.88 135.907 198.667 135.528 188.042 134.577C188.011 134.604 187.995 134.618 187.995 134.618L172.081 133.326C172.081 133.326 156.045 102.639 160.258 92.4537C164.47 82.2684 173.195 76.8573 183.289 79.7593C187.262 80.9017 189.463 84.5278 190.672 88.5052C195.178 83.6981 199.305 79.7163 202.026 77.9938C209.656 73.1626 217.99 71.4812 224.461 76.0634C232.107 80.566 232.231 88.3559 227.852 95.6624C226.369 98.1374 222.525 102.338 217.778 107.088C222.658 107.416 227.185 108.584 229.178 111.48Z" fill="#AEEE98"/>
<path d="M206.43 95.7394L208.34 94.8112C208.34 94.8112 195.868 109.027 193.951 111.266C192.034 113.505 180.033 127.091 180.033 127.091L178.241 127.953C178.241 127.953 190.717 112.648 192.407 110.576C194.097 108.504 206.43 95.7394 206.43 95.7394Z" fill="#85DB69"/>
<path fill-rule="evenodd" clip-rule="evenodd" d="M102.906 120.417C96.6997 129.44 102.417 139.06 115.774 145.447C123.116 148.957 138.553 148.514 150.968 147.403C151.004 147.435 151.022 147.451 151.022 147.451L169.616 145.941C169.616 145.941 188.352 110.087 183.43 98.187C178.508 86.2867 168.315 79.9644 156.521 83.3551C151.879 84.6899 149.307 88.9265 147.895 93.5735C142.63 87.9571 137.808 83.3048 134.63 81.2923C125.715 75.648 115.979 73.6833 108.418 79.0359C99.4832 84.2966 99.3374 93.3987 104.454 101.936C106.187 104.828 110.678 109.736 116.225 115.286C110.522 115.669 105.233 117.033 102.906 120.417Z" fill="#6AC04D"/>
<path d="M129.484 102.026L127.252 100.941C127.252 100.941 141.824 117.551 144.064 120.167C146.304 122.783 160.326 138.657 160.326 138.657L162.419 139.664C162.419 139.664 147.843 121.781 145.868 119.36C143.893 116.94 129.484 102.026 129.484 102.026Z" fill="#85DB69"/>
<path fill-rule="evenodd" clip-rule="evenodd" d="M45.3704 143.399C40.0949 131.847 48.4097 119.984 64.7353 112.463C73.7088 108.329 91.0691 109.455 104.885 111.308C104.932 111.27 104.956 111.251 104.956 111.251L125.679 113.832C125.679 113.832 139.946 159.521 132.092 174.274C124.237 189.027 111.499 196.584 98.8242 191.893C93.8348 190.046 91.7443 184.635 91.0436 178.75C84.0119 185.604 77.6662 191.265 73.6863 193.673C62.5243 200.427 51.1428 202.532 43.6293 195.536C34.5447 188.604 36.1332 177.175 43.5599 166.65C46.0754 163.085 52.0965 157.091 59.4341 150.331C53.0638 149.639 47.349 147.732 45.3704 143.399Z" fill="#85DB69"/>
<path d="M71.8646 167.462L69.1326 168.74C69.1326 168.74 88.8015 148.434 91.8365 145.234C94.8716 142.033 113.776 122.63 113.776 122.63L116.335 121.444C116.335 121.444 96.4179 143.348 93.7196 146.313C91.0213 149.278 71.8646 167.462 71.8646 167.462Z" fill="#6AC04D"/>
<path fill-rule="evenodd" clip-rule="evenodd" d="M237.074 205.241C229.619 216.171 214.466 216.728 198.823 208.497C190.224 203.973 181.752 189.823 175.865 177.996C175.805 177.982 175.775 177.975 175.775 177.975L166.768 160.354C166.768 160.354 199.851 122.251 217.338 119.626C234.826 117.001 248.543 122.425 251.267 135.043C252.34 140.011 248.64 144.835 243.758 148.859C253.73 150.267 262.259 151.848 266.587 153.515C278.724 158.19 286.823 165.784 284.667 175.757C283.426 186.913 272.334 192.439 258.863 192.896C254.3 193.05 245.649 191.919 235.595 190.218C238.455 195.575 239.869 201.141 237.074 205.241Z" fill="#85DB69"/>
<path d="M244.133 170.432L246.768 171.797C246.768 171.797 217.861 168.531 213.341 168.067C208.82 167.602 181.139 164.395 181.139 164.395L178.68 163.109C178.68 163.109 209.152 165.623 213.278 165.965C217.404 166.308 244.133 170.432 244.133 170.432Z" fill="#6AC04D"/>
<circle cx="210.084" cy="215.084" r="20" transform="rotate(-107.479 210.084 215.084)" fill="#FF2020"/>
<g filter="url(#filter6_i_51_448)">
<circle cx="210.084" cy="215.084" r="17" transform="rotate(-107.479 210.084 215.084)" fill="#FFA4A4"/>
</g>
<g filter="url(#filter7_i_51_448)">
<path d="M211.991 214.483L223.415 219.965C223.415 219.965 225.478 216.527 223.676 210.804C221.874 205.081 218.213 203.444 218.213 203.444L211.991 214.483Z" fill="#FF3434"/>
</g>
<g filter="url(#filter8_i_51_448)">
<path d="M210.684 216.991L221.723 223.213C221.723 223.213 220.564 226.723 214.364 228.675C208.164 230.628 205.202 228.415 205.202 228.415L210.684 216.991Z" fill="#FF3434"/>
</g>
<g filter="url(#filter9_i_51_448)">
<path d="M209.483 213.176L214.965 201.752C214.965 201.752 212.079 199.778 205.804 201.492C199.529 203.206 198.444 206.954 198.444 206.954L209.483 213.176Z" fill="#FF3434"/>
</g>
<g filter="url(#filter10_i_51_448)">
<path d="M208.176 215.684L201.954 226.723C201.954 226.723 197.994 224.133 196.492 219.364C194.99 214.594 196.752 210.202 196.752 210.202L208.176 215.684Z" fill="#FF3434"/>
</g>
<path d="M202.985 221.277C203.263 221.461 202.405 223.975 202.248 224.213C202.091 224.452 201.619 225.168 200.784 224.617C199.949 224.067 200.421 223.351 200.578 223.113C200.735 222.874 202.707 221.094 202.985 221.277Z" fill="#FFC916"/>
<path d="M200.739 214.282C200.6 214.585 197.986 214.113 197.726 213.994C197.467 213.874 196.688 213.515 197.107 212.607C197.526 211.699 198.304 212.058 198.564 212.178C198.823 212.297 200.879 213.979 200.739 214.282Z" fill="#FFC916"/>
<path d="M201.566 218.785C201.738 219.07 199.882 220.97 199.638 221.118C199.393 221.266 198.659 221.709 198.142 220.853C197.625 219.997 198.359 219.554 198.603 219.406C198.848 219.258 201.394 218.499 201.566 218.785Z" fill="#FFC916"/>
<path d="M200.935 216.537C200.982 216.867 198.53 217.889 198.247 217.93C197.964 217.97 197.116 218.091 196.975 217.1C196.834 216.11 197.683 215.99 197.965 215.95C198.248 215.909 200.888 216.207 200.935 216.537Z" fill="#FFC916"/>
<path d="M216.205 222.205C216.388 221.927 218.902 222.785 219.141 222.942C219.38 223.1 220.095 223.571 219.545 224.406C218.995 225.241 218.279 224.77 218.041 224.613C217.802 224.455 216.022 222.484 216.205 222.205Z" fill="#FFC916"/>
<path d="M209.21 224.451C209.513 224.591 209.041 227.205 208.922 227.464C208.802 227.724 208.443 228.502 207.535 228.083C206.627 227.665 206.986 226.886 207.105 226.627C207.225 226.367 208.907 224.311 209.21 224.451Z" fill="#FFC916"/>
<path d="M213.712 223.624C213.997 223.452 215.898 225.308 216.045 225.553C216.193 225.797 216.636 226.531 215.781 227.048C214.925 227.565 214.481 226.832 214.334 226.587C214.186 226.343 213.427 223.797 213.712 223.624Z" fill="#FFC916"/>
<path d="M211.465 224.256C211.795 224.209 212.817 226.661 212.858 226.944C212.898 227.227 213.018 228.075 212.028 228.216C211.038 228.357 210.918 227.508 210.878 227.225C210.837 226.942 211.135 224.303 211.465 224.256Z" fill="#FFC916"/>
<path d="M211.128 206.082C211.437 206.206 213.006 204.062 213.112 203.796C213.217 203.531 213.533 202.734 212.604 202.365C211.675 201.996 211.358 202.792 211.253 203.058C211.147 203.324 210.818 205.959 211.128 206.082Z" fill="#FFC916"/>
<path d="M204.108 208.25C204.276 207.962 202.392 206.089 202.145 205.945C201.898 205.801 201.158 205.369 200.654 206.232C200.15 207.096 200.89 207.528 201.137 207.672C201.383 207.816 203.94 208.538 204.108 208.25Z" fill="#FFC916"/>
<path d="M208.272 206.347C208.604 206.325 209.098 203.715 209.079 203.43C209.06 203.145 209.003 202.29 208.005 202.356C207.007 202.423 207.065 203.278 207.084 203.563C207.103 203.848 207.939 206.37 208.272 206.347Z" fill="#FFC916"/>
<path d="M206.069 207.118C206.366 206.967 205.799 204.372 205.669 204.117C205.54 203.862 205.153 203.098 204.261 203.55C203.369 204.002 203.756 204.766 203.885 205.021C204.014 205.276 205.771 207.269 206.069 207.118Z" fill="#FFC916"/>
<path d="M219.108 216.2C218.985 216.51 221.129 218.079 221.394 218.184C221.66 218.29 222.456 218.606 222.825 217.677C223.195 216.747 222.398 216.431 222.132 216.326C221.867 216.22 219.231 215.891 219.108 216.2Z" fill="#FFC916"/>
<path d="M216.94 209.181C217.228 209.349 219.101 207.464 219.245 207.218C219.389 206.971 219.821 206.231 218.958 205.727C218.094 205.222 217.662 205.962 217.518 206.209C217.374 206.456 216.653 209.012 216.94 209.181Z" fill="#FFC916"/>
<path d="M218.843 213.344C218.865 213.677 221.475 214.17 221.76 214.151C222.045 214.132 222.9 214.075 222.834 213.077C222.767 212.08 221.912 212.137 221.627 212.156C221.342 212.175 218.821 213.011 218.843 213.344Z" fill="#FFC916"/>
<path d="M218.073 211.141C218.223 211.438 220.818 210.871 221.073 210.742C221.328 210.613 222.093 210.226 221.641 209.333C221.189 208.441 220.424 208.829 220.169 208.958C219.914 209.087 217.922 210.844 218.073 211.141Z" fill="#FFC916"/>
<path fill-rule="evenodd" clip-rule="evenodd" d="M85.2033 202.882C71.9299 194.876 74.2524 182.416 88.5653 171.104C96.4324 164.887 117.296 160.467 134.492 157.748C134.523 157.702 134.538 157.679 134.538 157.679L160.208 153.435C160.208 153.435 205.039 187.135 205.039 201.863C205.039 216.591 194.916 226.826 177.291 226.826C170.353 226.826 164.577 222.958 160.124 218.267C156.194 226.153 152.323 232.833 149.19 236.069C140.4 245.148 128.481 250.417 115.426 246.901C100.585 243.924 95.3625 233.902 97.4801 222.832C98.1973 219.082 101.485 212.225 105.828 204.322C97.9998 205.712 90.1815 205.885 85.2033 202.882Z" fill="#6AC04D"/>
<path d="M130.863 214.772L128.48 216.682C128.48 216.682 138.769 193.675 140.315 190.069C141.862 186.464 151.822 164.446 151.822 164.446L154.061 162.667C154.061 162.667 144.471 187.083 143.171 190.388C141.87 193.694 130.863 214.772 130.863 214.772Z" fill="#85DB69"/>
<circle cx="184.084" cy="105.084" r="20" transform="rotate(-107.479 184.084 105.084)" fill="#FF2020"/>
<g filter="url(#filter11_i_51_448)">
<circle cx="184.084" cy="105.084" r="17" transform="rotate(-107.479 184.084 105.084)" fill="#FFA4A4"/>
</g>
<g filter="url(#filter12_i_51_448)">
<path d="M185.991 104.483L197.415 109.965C197.415 109.965 199.478 106.527 197.676 100.804C195.874 95.0807 192.213 93.4444 192.213 93.4444L185.991 104.483Z" fill="#FF3434"/>
</g>
<g filter="url(#filter13_i_51_448)">
<path d="M184.684 106.991L195.723 113.213C195.723 113.213 194.564 116.723 188.364 118.675C182.164 120.628 179.202 118.415 179.202 118.415L184.684 106.991Z" fill="#FF3434"/>
</g>
<g filter="url(#filter14_i_51_448)">
<path d="M183.483 103.176L188.965 91.7521C188.965 91.7521 186.079 89.7779 179.804 91.4918C173.529 93.2057 172.444 96.9544 172.444 96.9544L183.483 103.176Z" fill="#FF3434"/>
</g>
<g filter="url(#filter15_i_51_448)">
<path d="M182.176 105.684L175.954 116.723C175.954 116.723 171.994 114.133 170.492 109.364C168.99 104.594 170.752 100.202 170.752 100.202L182.176 105.684Z" fill="#FF3434"/>
</g>
<path d="M176.985 111.277C177.263 111.461 176.405 113.975 176.248 114.213C176.091 114.452 175.619 115.168 174.784 114.617C173.949 114.067 174.421 113.351 174.578 113.113C174.735 112.874 176.707 111.094 176.985 111.277Z" fill="#FFC916"/>
<path d="M174.739 104.282C174.6 104.585 171.986 104.113 171.726 103.994C171.467 103.874 170.688 103.515 171.107 102.607C171.526 101.699 172.304 102.058 172.564 102.178C172.823 102.297 174.879 103.979 174.739 104.282Z" fill="#FFC916"/>
<path d="M175.566 108.785C175.738 109.07 173.882 110.97 173.638 111.118C173.393 111.266 172.659 111.709 172.142 110.853C171.625 109.997 172.359 109.554 172.603 109.406C172.848 109.258 175.394 108.499 175.566 108.785Z" fill="#FFC916"/>
<path d="M174.935 106.537C174.982 106.867 172.53 107.889 172.247 107.93C171.964 107.97 171.116 108.091 170.975 107.1C170.834 106.11 171.683 105.99 171.965 105.95C172.248 105.909 174.888 106.207 174.935 106.537Z" fill="#FFC916"/>
<path d="M190.205 112.205C190.388 111.927 192.902 112.785 193.141 112.942C193.38 113.1 194.095 113.571 193.545 114.406C192.995 115.241 192.279 114.77 192.041 114.613C191.802 114.455 190.022 112.484 190.205 112.205Z" fill="#FFC916"/>
<path d="M183.21 114.451C183.513 114.591 183.041 117.205 182.922 117.464C182.802 117.724 182.443 118.502 181.535 118.083C180.627 117.665 180.986 116.886 181.105 116.627C181.225 116.367 182.907 114.311 183.21 114.451Z" fill="#FFC916"/>
<path d="M187.712 113.624C187.997 113.452 189.898 115.308 190.045 115.553C190.193 115.797 190.636 116.531 189.781 117.048C188.925 117.565 188.481 116.832 188.334 116.587C188.186 116.343 187.427 113.797 187.712 113.624Z" fill="#FFC916"/>
<path d="M185.465 114.256C185.795 114.209 186.817 116.661 186.858 116.944C186.898 117.227 187.018 118.075 186.028 118.216C185.038 118.357 184.918 117.508 184.878 117.225C184.837 116.942 185.135 114.303 185.465 114.256Z" fill="#FFC916"/>
<path d="M185.128 96.0825C185.437 96.2055 187.006 94.0618 187.112 93.7962C187.217 93.5307 187.533 92.7341 186.604 92.3649C185.675 91.9958 185.358 92.7925 185.253 93.058C185.147 93.3235 184.818 95.9595 185.128 96.0825Z" fill="#FFC916"/>
<path d="M178.108 98.2498C178.276 97.9619 176.392 96.0894 176.145 95.9453C175.898 95.8012 175.158 95.369 174.654 96.2325C174.15 97.096 174.89 97.5283 175.137 97.6724C175.383 97.8165 177.94 98.5376 178.108 98.2498Z" fill="#FFC916"/>
<path d="M182.272 96.3474C182.604 96.3252 183.098 93.7151 183.079 93.43C183.06 93.1449 183.003 92.2897 182.005 92.3563C181.007 92.4229 181.065 93.2782 181.084 93.5633C181.103 93.8483 181.939 96.3696 182.272 96.3474Z" fill="#FFC916"/>
<path d="M180.069 97.1179C180.366 96.9673 179.799 94.3721 179.669 94.1173C179.54 93.8624 179.153 93.0977 178.261 93.5497C177.369 94.0016 177.756 94.7662 177.885 95.0211C178.014 95.2759 179.771 97.2686 180.069 97.1179Z" fill="#FFC916"/>
<path d="M193.108 106.2C192.985 106.51 195.129 108.079 195.394 108.184C195.66 108.29 196.456 108.606 196.825 107.677C197.195 106.747 196.398 106.431 196.132 106.326C195.867 106.22 193.231 105.891 193.108 106.2Z" fill="#FFC916"/>
<path d="M190.94 99.1806C191.228 99.3487 193.101 97.4644 193.245 97.2177C193.389 96.971 193.821 96.2308 192.958 95.7265C192.094 95.2222 191.662 95.9624 191.518 96.2091C191.374 96.4558 190.653 99.0125 190.94 99.1806Z" fill="#FFC916"/>
<path d="M192.843 103.344C192.865 103.677 195.475 104.17 195.76 104.151C196.045 104.132 196.9 104.075 196.834 103.077C196.767 102.08 195.912 102.137 195.627 102.156C195.342 102.175 192.821 103.011 192.843 103.344Z" fill="#FFC916"/>
<path d="M192.073 101.141C192.223 101.438 194.818 100.871 195.073 100.742C195.328 100.613 196.093 100.226 195.641 99.3335C195.189 98.4414 194.424 98.8287 194.169 98.9579C193.914 99.087 191.922 100.844 192.073 101.141Z" fill="#FFC916"/>
<ellipse cx="102.176" cy="133.054" rx="16.7779" ry="23.3213" transform="rotate(-101.392 102.176 133.054)" fill="#00720D"/>
<ellipse cx="105.103" cy="132.293" rx="14.5968" ry="20.3013" transform="rotate(-101.392 105.103 132.293)" fill="#C9FFD0"/>
<g filter="url(#filter16_f_51_448)">
<ellipse cx="104.972" cy="132.49" rx="7.04673" ry="9.73119" transform="rotate(-101.392 104.972 132.49)" fill="#B7FFBF"/>
</g>
<path d="M97.3041 137.867C97.6626 138.22 95.6551 141.693 95.3523 142.001C95.0495 142.308 94.1413 143.23 93.0655 142.17C91.9897 141.111 92.898 140.189 93.2007 139.881C93.5035 139.574 96.9455 137.514 97.3041 137.867Z" fill="#A2FFAC"/>
<path d="M103.75 138.373C104.253 138.373 105.26 142.256 105.26 142.687C105.26 143.119 105.259 144.413 103.749 144.413C102.239 144.413 102.24 143.118 102.24 142.687C102.24 142.255 103.247 138.373 103.75 138.373Z" fill="#A2FFAC"/>
<path d="M111.505 136.081C111.951 135.848 114.639 138.825 114.839 139.208C115.038 139.59 115.637 140.738 114.298 141.436C112.959 142.134 112.36 140.987 112.161 140.604C111.961 140.222 111.058 136.313 111.505 136.081Z" fill="#A2FFAC"/>
<path d="M117.113 131.902C117.231 131.413 121.242 131.345 121.661 131.447C122.081 131.548 123.339 131.852 122.985 133.319C122.63 134.787 121.372 134.484 120.953 134.382C120.533 134.281 116.995 132.392 117.113 131.902Z" fill="#A2FFAC"/>
<path d="M95.8432 130.617C96.037 130.153 92.8413 127.728 92.4431 127.562C92.0449 127.396 90.8505 126.898 90.269 128.291C89.6875 129.685 90.882 130.183 91.2801 130.349C91.6783 130.515 95.6494 131.082 95.8432 130.617Z" fill="#A2FFAC"/>
<path d="M93.7545 134.579C93.6551 134.086 89.6498 133.866 89.2269 133.951C88.804 134.036 87.5352 134.292 87.8334 135.772C88.1317 137.253 89.4005 136.997 89.8234 136.912C90.2463 136.827 93.8539 135.073 93.7545 134.579Z" fill="#A2FFAC"/>
<path d="M101.591 127.655C102.055 127.46 101.479 123.49 101.312 123.092C101.144 122.695 100.643 121.501 99.251 122.086C97.8589 122.671 98.3602 123.864 98.5273 124.262C98.6945 124.66 101.127 127.85 101.591 127.655Z" fill="#A2FFAC"/>
<path d="M109.628 126.765C110.129 126.807 111.455 123.021 111.49 122.591C111.526 122.161 111.634 120.871 110.129 120.746C108.624 120.62 108.517 121.91 108.481 122.34C108.445 122.77 109.126 126.723 109.628 126.765Z" fill="#A2FFAC"/>
<path d="M116.417 128.446C116.715 128.851 120.439 127.36 120.786 127.104C121.134 126.849 122.176 126.081 121.281 124.865C120.386 123.649 119.344 124.416 118.996 124.672C118.649 124.928 116.118 128.04 116.417 128.446Z" fill="#A2FFAC"/>
<path fill-rule="evenodd" clip-rule="evenodd" d="M118.459 148.46C112.253 139.437 117.971 129.817 131.328 123.43C138.67 119.92 154.106 120.363 166.521 121.473C166.557 121.442 166.575 121.426 166.575 121.426L185.169 122.935C185.169 122.935 203.905 158.79 198.983 170.69C194.062 182.59 183.868 188.913 172.075 185.522C167.432 184.187 164.86 179.95 163.448 175.303C158.183 180.92 153.361 185.572 150.183 187.585C141.268 193.229 131.532 195.194 123.971 189.841C115.036 184.58 114.891 175.478 120.007 166.941C121.74 164.049 126.231 159.141 131.778 153.591C126.076 153.208 120.786 151.844 118.459 148.46Z" fill="#AEEE98"/>
<path d="M145.037 166.851L142.805 167.936C142.805 167.936 157.378 151.326 159.617 148.71C161.857 146.094 175.879 130.22 175.879 130.22L177.972 129.213C177.972 129.213 163.396 147.096 161.421 149.517C159.446 151.937 145.037 166.851 145.037 166.851Z" fill="#85DB69"/>
<circle cx="97.0836" cy="197.084" r="20" transform="rotate(-107.479 97.0836 197.084)" fill="#FF2020"/>
<g filter="url(#filter17_i_51_448)">
<circle cx="97.0836" cy="197.084" r="17" transform="rotate(-107.479 97.0836 197.084)" fill="#FFA4A4"/>
</g>
<g filter="url(#filter18_i_51_448)">
<path d="M98.9913 196.483L110.415 201.965C110.415 201.965 112.478 198.527 110.676 192.804C108.874 187.081 105.213 185.444 105.213 185.444L98.9913 196.483Z" fill="#FF3434"/>
</g>
<g filter="url(#filter19_i_51_448)">
<path d="M97.6845 198.991L108.723 205.213C108.723 205.213 107.564 208.723 101.364 210.675C95.164 212.628 92.2024 210.415 92.2024 210.415L97.6845 198.991Z" fill="#FF3434"/>
</g>
<g filter="url(#filter20_i_51_448)">
<path d="M96.483 195.176L101.965 183.752C101.965 183.752 99.0786 181.778 92.8037 183.492C86.5287 185.206 85.4444 188.954 85.4444 188.954L96.483 195.176Z" fill="#FF3434"/>
</g>
<g filter="url(#filter21_i_51_448)">
<path d="M95.1761 197.684L88.9544 208.723C88.9544 208.723 84.9935 206.133 83.4917 201.364C81.9899 196.594 83.7521 192.202 83.7521 192.202L95.1761 197.684Z" fill="#FF3434"/>
</g>
<path d="M89.9849 203.277C90.2633 203.461 89.4051 205.975 89.2479 206.213C89.0907 206.452 88.6191 207.168 87.7841 206.617C86.9491 206.067 87.4207 205.351 87.5779 205.113C87.7351 204.874 89.7066 203.094 89.9849 203.277Z" fill="#FFC916"/>
<path d="M87.7395 196.282C87.5999 196.585 84.9856 196.113 84.7261 195.994C84.4667 195.874 83.6883 195.515 84.107 194.607C84.5258 193.699 85.3042 194.058 85.5636 194.178C85.8231 194.297 87.879 195.979 87.7395 196.282Z" fill="#FFC916"/>
<path d="M88.5659 200.785C88.7383 201.07 86.8821 202.97 86.6375 203.118C86.393 203.266 85.6593 203.709 85.1422 202.853C84.6251 201.997 85.3588 201.554 85.6033 201.406C85.8479 201.258 88.3936 200.499 88.5659 200.785Z" fill="#FFC916"/>
<path d="M87.935 198.537C87.9819 198.867 85.5299 199.889 85.247 199.93C84.9642 199.97 84.1155 200.091 83.9748 199.1C83.834 198.11 84.6826 197.99 84.9655 197.95C85.2484 197.909 87.888 198.207 87.935 198.537Z" fill="#FFC916"/>
<path d="M103.205 204.205C103.388 203.927 105.902 204.785 106.141 204.942C106.38 205.1 107.095 205.571 106.545 206.406C105.995 207.241 105.279 206.77 105.041 206.613C104.802 206.455 103.022 204.484 103.205 204.205Z" fill="#FFC916"/>
<path d="M96.2099 206.451C96.5126 206.591 96.0412 209.205 95.9215 209.464C95.8019 209.724 95.443 210.502 94.5349 210.083C93.6268 209.665 93.9857 208.886 94.1053 208.627C94.225 208.367 95.9072 206.311 96.2099 206.451Z" fill="#FFC916"/>
<path d="M100.712 205.624C100.997 205.452 102.898 207.308 103.045 207.553C103.193 207.797 103.636 208.531 102.781 209.048C101.925 209.565 101.481 208.832 101.334 208.587C101.186 208.343 100.427 205.797 100.712 205.624Z" fill="#FFC916"/>
<path d="M98.4654 206.256C98.7954 206.209 99.8174 208.661 99.8576 208.944C99.8978 209.227 100.018 210.075 99.0284 210.216C98.0384 210.357 97.9177 209.508 97.8775 209.225C97.8373 208.942 98.1354 206.303 98.4654 206.256Z" fill="#FFC916"/>
<path d="M98.1276 188.082C98.4374 188.206 100.006 186.062 100.112 185.796C100.217 185.531 100.533 184.734 99.6041 184.365C98.6747 183.996 98.3583 184.792 98.2528 185.058C98.1474 185.324 97.8178 187.959 98.1276 188.082Z" fill="#FFC916"/>
<path d="M91.1081 190.25C91.2762 189.962 89.3919 188.089 89.1452 187.945C88.8985 187.801 88.1583 187.369 87.654 188.232C87.1497 189.096 87.8898 189.528 88.1366 189.672C88.3833 189.816 90.94 190.538 91.1081 190.25Z" fill="#FFC916"/>
<path d="M95.2717 188.347C95.6043 188.325 96.0982 185.715 96.0791 185.43C96.0601 185.145 96.003 184.29 95.0052 184.356C94.0074 184.423 94.0646 185.278 94.0836 185.563C94.1026 185.848 94.9391 188.37 95.2717 188.347Z" fill="#FFC916"/>
<path d="M93.0686 189.118C93.3659 188.967 92.7986 186.372 92.6695 186.117C92.5404 185.862 92.153 185.098 91.261 185.55C90.3689 186.002 90.7562 186.766 90.8854 187.021C91.0145 187.276 92.7712 189.269 93.0686 189.118Z" fill="#FFC916"/>
<path d="M106.108 198.2C105.985 198.51 108.129 200.079 108.394 200.184C108.66 200.29 109.456 200.606 109.825 199.677C110.195 198.747 109.398 198.431 109.132 198.326C108.867 198.22 106.231 197.891 106.108 198.2Z" fill="#FFC916"/>
<path d="M103.94 191.181C104.228 191.349 106.101 189.464 106.245 189.218C106.389 188.971 106.821 188.231 105.958 187.727C105.094 187.222 104.662 187.962 104.518 188.209C104.374 188.456 103.653 191.012 103.94 191.181Z" fill="#FFC916"/>
<path d="M105.843 195.344C105.865 195.677 108.475 196.17 108.76 196.151C109.045 196.132 109.9 196.075 109.834 195.077C109.767 194.08 108.912 194.137 108.627 194.156C108.342 194.175 105.821 195.011 105.843 195.344Z" fill="#FFC916"/>
<path d="M105.073 193.141C105.223 193.438 107.818 192.871 108.073 192.742C108.328 192.613 109.093 192.226 108.641 191.333C108.189 190.441 107.424 190.829 107.169 190.958C106.914 191.087 104.922 192.844 105.073 193.141Z" fill="#FFC916"/>
<ellipse cx="242.642" cy="142.193" rx="16.7779" ry="23.3213" transform="rotate(98.9238 242.642 142.193)" fill="#00720D"/>
<ellipse cx="239.632" cy="141.89" rx="14.5968" ry="20.3013" transform="rotate(98.9238 239.632 141.89)" fill="#C9FFD0"/>
<g filter="url(#filter22_f_51_448)">
<ellipse cx="239.824" cy="141.75" rx="7.04673" ry="9.73119" transform="rotate(98.9238 239.824 141.75)" fill="#B7FFBF"/>
</g>
<path d="M248.882 139.37C248.668 138.914 251.756 136.354 252.147 136.171C252.538 135.988 253.709 135.439 254.35 136.806C254.991 138.173 253.819 138.722 253.429 138.906C253.038 139.089 249.095 139.825 248.882 139.37Z" fill="#A2FFAC"/>
<path d="M243.012 136.658C242.54 136.483 242.944 132.492 243.094 132.088C243.244 131.683 243.694 130.469 245.11 130.994C246.526 131.518 246.076 132.732 245.926 133.136C245.776 133.541 243.484 136.833 243.012 136.658Z" fill="#A2FFAC"/>
<path d="M234.944 136.115C234.445 136.179 232.957 132.453 232.903 132.025C232.849 131.597 232.686 130.313 234.184 130.123C235.682 129.933 235.845 131.217 235.899 131.645C235.953 132.073 235.443 136.052 234.944 136.115Z" fill="#A2FFAC"/>
<path d="M228.234 138.086C227.953 138.504 224.168 137.175 223.81 136.934C223.452 136.694 222.377 135.972 223.219 134.719C224.061 133.465 225.136 134.187 225.494 134.427C225.852 134.668 228.514 137.668 228.234 138.086Z" fill="#A2FFAC"/>
<path d="M247.734 146.676C247.391 147.045 249.547 150.428 249.862 150.722C250.178 151.016 251.125 151.898 252.154 150.793C253.183 149.688 252.236 148.806 251.921 148.512C251.605 148.218 248.077 146.308 247.734 146.676Z" fill="#A2FFAC"/>
<path d="M251.069 143.686C250.991 144.183 254.67 145.78 255.097 145.847C255.523 145.913 256.801 146.114 257.036 144.623C257.27 143.131 255.991 142.93 255.565 142.863C255.139 142.796 251.147 143.188 251.069 143.686Z" fill="#A2FFAC"/>
<path d="M241.316 147.459C240.813 147.48 239.975 151.403 239.993 151.834C240.012 152.265 240.068 153.558 241.577 153.493C243.085 153.428 243.029 152.135 243.011 151.704C242.992 151.273 241.819 147.437 241.316 147.459Z" fill="#A2FFAC"/>
<path d="M233.47 145.503C233.014 145.289 230.457 148.38 230.274 148.77C230.091 149.161 229.542 150.334 230.91 150.973C232.278 151.613 232.826 150.441 233.009 150.05C233.192 149.66 233.926 145.716 233.47 145.503Z" fill="#A2FFAC"/>
<path d="M227.687 141.57C227.548 141.086 223.538 141.191 223.123 141.31C222.708 141.43 221.464 141.787 221.882 143.238C222.299 144.69 223.543 144.332 223.957 144.213C224.372 144.094 227.826 142.053 227.687 141.57Z" fill="#A2FFAC"/>
<ellipse cx="166.027" cy="202.748" rx="16.7779" ry="23.3213" transform="rotate(165.672 166.027 202.748)" fill="#00720D"/>
<ellipse cx="165.117" cy="199.863" rx="14.5968" ry="20.3013" transform="rotate(165.672 165.117 199.863)" fill="#C9FFD0"/>
<g filter="url(#filter23_f_51_448)">
<ellipse cx="165.322" cy="199.984" rx="7.04673" ry="9.73119" transform="rotate(165.672 165.322 199.984)" fill="#B7FFBF"/>
</g>
<path d="M171.084 207.367C171.419 206.991 174.99 208.818 175.312 209.104C175.635 209.391 176.602 210.251 175.599 211.38C174.596 212.508 173.628 211.648 173.306 211.362C172.983 211.075 170.75 207.743 171.084 207.367Z" fill="#A2FFAC"/>
<path d="M171.259 200.904C171.233 200.401 175.059 199.197 175.49 199.175C175.921 199.153 177.214 199.087 177.291 200.595C177.368 202.103 176.075 202.169 175.645 202.191C175.214 202.213 171.284 201.406 171.259 200.904Z" fill="#A2FFAC"/>
<path d="M168.572 193.276C168.317 192.842 171.153 190.005 171.525 189.787C171.897 189.568 173.012 188.911 173.778 190.213C174.544 191.514 173.428 192.17 173.057 192.389C172.685 192.608 168.828 193.71 168.572 193.276Z" fill="#A2FFAC"/>
<path d="M164.112 187.889C163.618 187.796 163.345 183.794 163.424 183.37C163.504 182.946 163.743 181.674 165.227 181.953C166.711 182.232 166.472 183.504 166.393 183.928C166.313 184.352 164.607 187.982 164.112 187.889Z" fill="#A2FFAC"/>
<path d="M163.918 209.197C163.444 209.027 161.187 212.343 161.042 212.749C160.896 213.155 160.459 214.374 161.881 214.883C163.302 215.393 163.739 214.174 163.885 213.768C164.03 213.362 164.392 209.367 163.918 209.197Z" fill="#A2FFAC"/>
<path d="M167.983 211.08C167.495 211.205 167.48 215.216 167.587 215.634C167.694 216.052 168.014 217.306 169.477 216.932C170.94 216.559 170.62 215.305 170.513 214.887C170.406 214.469 168.47 210.956 167.983 211.08Z" fill="#A2FFAC"/>
<path d="M160.666 203.609C160.447 203.155 156.512 203.934 156.123 204.121C155.735 204.308 154.569 204.87 155.224 206.231C155.88 207.591 157.046 207.029 157.434 206.842C157.823 206.655 160.884 204.062 160.666 203.609Z" fill="#A2FFAC"/>
<path d="M159.366 195.628C159.382 195.125 155.533 193.995 155.102 193.981C154.67 193.968 153.377 193.927 153.329 195.436C153.281 196.945 154.574 196.986 155.005 197C155.437 197.014 159.35 196.131 159.366 195.628Z" fill="#A2FFAC"/>
<path d="M160.696 188.762C161.086 188.443 159.406 184.801 159.133 184.467C158.86 184.133 158.04 183.131 156.871 184.087C155.703 185.044 156.522 186.045 156.795 186.379C157.069 186.713 160.306 189.081 160.696 188.762Z" fill="#A2FFAC"/>
<path d="M173.979 113.536C181.41 125.606 178.921 140.631 168.42 147.096C157.92 153.56 143.383 149.017 135.953 136.947C128.522 124.877 127.512 104.17 138.013 97.7052C148.514 91.2405 166.548 101.466 173.979 113.536Z" fill="white"/>
<ellipse cx="156.311" cy="127.427" rx="14.6283" ry="15.3982" transform="rotate(-31.6185 156.311 127.427)" fill="#FFC916"/>
<defs>
<filter id="filter0_i_51_448" x="83.0791" y="78.0791" width="34.009" height="34.0093" filterUnits="userSpaceOnUse" color-interpolation-filters="sRGB">
<feFlood flood-opacity="0" result="BackgroundImageFix"/>
<feBlend mode="normal" in="SourceGraphic" in2="BackgroundImageFix" result="shape"/>
<feColorMatrix in="SourceAlpha" type="matrix" values="0 0 0 0 0 0 0 0 0 0 0 0 0 0 0 0 0 0 127 0" result="hardAlpha"/>
<feMorphology radius="3" operator="erode" in="SourceAlpha" result="effect1_innerShadow_51_448"/>
<feOffset/>
<feGaussianBlur stdDeviation="6.7"/>
<feComposite in2="hardAlpha" operator="arithmetic" k2="-1" k3="1"/>
<feColorMatrix type="matrix" values="0 0 0 0 1 0 0 0 0 0.483333 0 0 0 0 0.483333 0 0 0 1 0"/>
<feBlend mode="normal" in2="shape" result="effect1_innerShadow_51_448"/>
</filter>
<filter id="filter1_i_51_448" x="101.991" y="83.4443" width="12.4231" height="16.521" filterUnits="userSpaceOnUse" color-interpolation-filters="sRGB">
<feFlood flood-opacity="0" result="BackgroundImageFix"/>
<feBlend mode="normal" in="SourceGraphic" in2="BackgroundImageFix" result="shape"/>
<feColorMatrix in="SourceAlpha" type="matrix" values="0 0 0 0 0 0 0 0 0 0 0 0 0 0 0 0 0 0 127 0" result="hardAlpha"/>
<feOffset/>
<feGaussianBlur stdDeviation="2"/>
<feComposite in2="hardAlpha" operator="arithmetic" k2="-1" k3="1"/>
<feColorMatrix type="matrix" values="0 0 0 0 1 0 0 0 0 0 0 0 0 0 0 0 0 0 1 0"/>
<feBlend mode="normal" in2="shape" result="effect1_innerShadow_51_448"/>
</filter>
<filter id="filter2_i_51_448" x="95.2024" y="96.9912" width="16.5208" height="12.4893" filterUnits="userSpaceOnUse" color-interpolation-filters="sRGB">
<feFlood flood-opacity="0" result="BackgroundImageFix"/>
<feBlend mode="normal" in="SourceGraphic" in2="BackgroundImageFix" result="shape"/>
<feColorMatrix in="SourceAlpha" type="matrix" values="0 0 0 0 0 0 0 0 0 0 0 0 0 0 0 0 0 0 127 0" result="hardAlpha"/>
<feOffset/>
<feGaussianBlur stdDeviation="2"/>
<feComposite in2="hardAlpha" operator="arithmetic" k2="-1" k3="1"/>
<feColorMatrix type="matrix" values="0 0 0 0 1 0 0 0 0 0 0 0 0 0 0 0 0 0 1 0"/>
<feBlend mode="normal" in2="shape" result="effect1_innerShadow_51_448"/>
</filter>
<filter id="filter3_i_51_448" x="88.4443" y="80.792" width="16.5208" height="12.3843" filterUnits="userSpaceOnUse" color-interpolation-filters="sRGB">
<feFlood flood-opacity="0" result="BackgroundImageFix"/>
<feBlend mode="normal" in="SourceGraphic" in2="BackgroundImageFix" result="shape"/>
<feColorMatrix in="SourceAlpha" type="matrix" values="0 0 0 0 0 0 0 0 0 0 0 0 0 0 0 0 0 0 127 0" result="hardAlpha"/>
<feOffset/>
<feGaussianBlur stdDeviation="2"/>
<feComposite in2="hardAlpha" operator="arithmetic" k2="-1" k3="1"/>
<feColorMatrix type="matrix" values="0 0 0 0 1 0 0 0 0 0 0 0 0 0 0 0 0 0 1 0"/>
<feBlend mode="normal" in2="shape" result="effect1_innerShadow_51_448"/>
</filter>
<filter id="filter4_i_51_448" x="85.8857" y="90.2021" width="12.2903" height="16.5205" filterUnits="userSpaceOnUse" color-interpolation-filters="sRGB">
<feFlood flood-opacity="0" result="BackgroundImageFix"/>
<feBlend mode="normal" in="SourceGraphic" in2="BackgroundImageFix" result="shape"/>
<feColorMatrix in="SourceAlpha" type="matrix" values="0 0 0 0 0 0 0 0 0 0 0 0 0 0 0 0 0 0 127 0" result="hardAlpha"/>
<feOffset/>
<feGaussianBlur stdDeviation="2"/>
<feComposite in2="hardAlpha" operator="arithmetic" k2="-1" k3="1"/>
<feColorMatrix type="matrix" values="0 0 0 0 1 0 0 0 0 0 0 0 0 0 0 0 0 0 1 0"/>
<feBlend mode="normal" in2="shape" result="effect1_innerShadow_51_448"/>
</filter>
<filter id="filter5_f_51_448" x="135.367" y="48.7744" width="22.1396" height="27.4302" filterUnits="userSpaceOnUse" color-interpolation-filters="sRGB">
<feFlood flood-opacity="0" result="BackgroundImageFix"/>
<feBlend mode="normal" in="SourceGraphic" in2="BackgroundImageFix" result="shape"/>
<feGaussianBlur stdDeviation="2" result="effect1_foregroundBlur_51_448"/>
</filter>
<filter id="filter6_i_51_448" x="193.079" y="198.079" width="34.009" height="34.0093" filterUnits="userSpaceOnUse" color-interpolation-filters="sRGB">
<feFlood flood-opacity="0" result="BackgroundImageFix"/>
<feBlend mode="normal" in="SourceGraphic" in2="BackgroundImageFix" result="shape"/>
<feColorMatrix in="SourceAlpha" type="matrix" values="0 0 0 0 0 0 0 0 0 0 0 0 0 0 0 0 0 0 127 0" result="hardAlpha"/>
<feMorphology radius="3" operator="erode" in="SourceAlpha" result="effect1_innerShadow_51_448"/>
<feOffset/>
<feGaussianBlur stdDeviation="6.7"/>
<feComposite in2="hardAlpha" operator="arithmetic" k2="-1" k3="1"/>
<feColorMatrix type="matrix" values="0 0 0 0 1 0 0 0 0 0.483333 0 0 0 0 0.483333 0 0 0 1 0"/>
<feBlend mode="normal" in2="shape" result="effect1_innerShadow_51_448"/>
</filter>
<filter id="filter7_i_51_448" x="211.991" y="203.444" width="12.4231" height="16.521" filterUnits="userSpaceOnUse" color-interpolation-filters="sRGB">
<feFlood flood-opacity="0" result="BackgroundImageFix"/>
<feBlend mode="normal" in="SourceGraphic" in2="BackgroundImageFix" result="shape"/>
<feColorMatrix in="SourceAlpha" type="matrix" values="0 0 0 0 0 0 0 0 0 0 0 0 0 0 0 0 0 0 127 0" result="hardAlpha"/>
<feOffset/>
<feGaussianBlur stdDeviation="2"/>
<feComposite in2="hardAlpha" operator="arithmetic" k2="-1" k3="1"/>
<feColorMatrix type="matrix" values="0 0 0 0 1 0 0 0 0 0 0 0 0 0 0 0 0 0 1 0"/>
<feBlend mode="normal" in2="shape" result="effect1_innerShadow_51_448"/>
</filter>
<filter id="filter8_i_51_448" x="205.202" y="216.991" width="16.5208" height="12.4893" filterUnits="userSpaceOnUse" color-interpolation-filters="sRGB">
<feFlood flood-opacity="0" result="BackgroundImageFix"/>
<feBlend mode="normal" in="SourceGraphic" in2="BackgroundImageFix" result="shape"/>
<feColorMatrix in="SourceAlpha" type="matrix" values="0 0 0 0 0 0 0 0 0 0 0 0 0 0 0 0 0 0 127 0" result="hardAlpha"/>
<feOffset/>
<feGaussianBlur stdDeviation="2"/>
<feComposite in2="hardAlpha" operator="arithmetic" k2="-1" k3="1"/>
<feColorMatrix type="matrix" values="0 0 0 0 1 0 0 0 0 0 0 0 0 0 0 0 0 0 1 0"/>
<feBlend mode="normal" in2="shape" result="effect1_innerShadow_51_448"/>
</filter>
<filter id="filter9_i_51_448" x="198.444" y="200.792" width="16.5208" height="12.3843" filterUnits="userSpaceOnUse" color-interpolation-filters="sRGB">
<feFlood flood-opacity="0" result="BackgroundImageFix"/>
<feBlend mode="normal" in="SourceGraphic" in2="BackgroundImageFix" result="shape"/>
<feColorMatrix in="SourceAlpha" type="matrix" values="0 0 0 0 0 0 0 0 0 0 0 0 0 0 0 0 0 0 127 0" result="hardAlpha"/>
<feOffset/>
<feGaussianBlur stdDeviation="2"/>
<feComposite in2="hardAlpha" operator="arithmetic" k2="-1" k3="1"/>
<feColorMatrix type="matrix" values="0 0 0 0 1 0 0 0 0 0 0 0 0 0 0 0 0 0 1 0"/>
<feBlend mode="normal" in2="shape" result="effect1_innerShadow_51_448"/>
</filter>
<filter id="filter10_i_51_448" x="195.886" y="210.202" width="12.2903" height="16.5205" filterUnits="userSpaceOnUse" color-interpolation-filters="sRGB">
<feFlood flood-opacity="0" result="BackgroundImageFix"/>
<feBlend mode="normal" in="SourceGraphic" in2="BackgroundImageFix" result="shape"/>
<feColorMatrix in="SourceAlpha" type="matrix" values="0 0 0 0 0 0 0 0 0 0 0 0 0 0 0 0 0 0 127 0" result="hardAlpha"/>
<feOffset/>
<feGaussianBlur stdDeviation="2"/>
<feComposite in2="hardAlpha" operator="arithmetic" k2="-1" k3="1"/>
<feColorMatrix type="matrix" values="0 0 0 0 1 0 0 0 0 0 0 0 0 0 0 0 0 0 1 0"/>
<feBlend mode="normal" in2="shape" result="effect1_innerShadow_51_448"/>
</filter>
<filter id="filter11_i_51_448" x="167.079" y="88.0791" width="34.009" height="34.0093" filterUnits="userSpaceOnUse" color-interpolation-filters="sRGB">
<feFlood flood-opacity="0" result="BackgroundImageFix"/>
<feBlend mode="normal" in="SourceGraphic" in2="BackgroundImageFix" result="shape"/>
<feColorMatrix in="SourceAlpha" type="matrix" values="0 0 0 0 0 0 0 0 0 0 0 0 0 0 0 0 0 0 127 0" result="hardAlpha"/>
<feMorphology radius="3" operator="erode" in="SourceAlpha" result="effect1_innerShadow_51_448"/>
<feOffset/>
<feGaussianBlur stdDeviation="6.7"/>
<feComposite in2="hardAlpha" operator="arithmetic" k2="-1" k3="1"/>
<feColorMatrix type="matrix" values="0 0 0 0 1 0 0 0 0 0.483333 0 0 0 0 0.483333 0 0 0 1 0"/>
<feBlend mode="normal" in2="shape" result="effect1_innerShadow_51_448"/>
</filter>
<filter id="filter12_i_51_448" x="185.991" y="93.4443" width="12.4231" height="16.521" filterUnits="userSpaceOnUse" color-interpolation-filters="sRGB">
<feFlood flood-opacity="0" result="BackgroundImageFix"/>
<feBlend mode="normal" in="SourceGraphic" in2="BackgroundImageFix" result="shape"/>
<feColorMatrix in="SourceAlpha" type="matrix" values="0 0 0 0 0 0 0 0 0 0 0 0 0 0 0 0 0 0 127 0" result="hardAlpha"/>
<feOffset/>
<feGaussianBlur stdDeviation="2"/>
<feComposite in2="hardAlpha" operator="arithmetic" k2="-1" k3="1"/>
<feColorMatrix type="matrix" values="0 0 0 0 1 0 0 0 0 0 0 0 0 0 0 0 0 0 1 0"/>
<feBlend mode="normal" in2="shape" result="effect1_innerShadow_51_448"/>
</filter>
<filter id="filter13_i_51_448" x="179.202" y="106.991" width="16.5208" height="12.4893" filterUnits="userSpaceOnUse" color-interpolation-filters="sRGB">
<feFlood flood-opacity="0" result="BackgroundImageFix"/>
<feBlend mode="normal" in="SourceGraphic" in2="BackgroundImageFix" result="shape"/>
<feColorMatrix in="SourceAlpha" type="matrix" values="0 0 0 0 0 0 0 0 0 0 0 0 0 0 0 0 0 0 127 0" result="hardAlpha"/>
<feOffset/>
<feGaussianBlur stdDeviation="2"/>
<feComposite in2="hardAlpha" operator="arithmetic" k2="-1" k3="1"/>
<feColorMatrix type="matrix" values="0 0 0 0 1 0 0 0 0 0 0 0 0 0 0 0 0 0 1 0"/>
<feBlend mode="normal" in2="shape" result="effect1_innerShadow_51_448"/>
</filter>
<filter id="filter14_i_51_448" x="172.444" y="90.792" width="16.5208" height="12.3843" filterUnits="userSpaceOnUse" color-interpolation-filters="sRGB">
<feFlood flood-opacity="0" result="BackgroundImageFix"/>
<feBlend mode="normal" in="SourceGraphic" in2="BackgroundImageFix" result="shape"/>
<feColorMatrix in="SourceAlpha" type="matrix" values="0 0 0 0 0 0 0 0 0 0 0 0 0 0 0 0 0 0 127 0" result="hardAlpha"/>
<feOffset/>
<feGaussianBlur stdDeviation="2"/>
<feComposite in2="hardAlpha" operator="arithmetic" k2="-1" k3="1"/>
<feColorMatrix type="matrix" values="0 0 0 0 1 0 0 0 0 0 0 0 0 0 0 0 0 0 1 0"/>
<feBlend mode="normal" in2="shape" result="effect1_innerShadow_51_448"/>
</filter>
<filter id="filter15_i_51_448" x="169.886" y="100.202" width="12.2903" height="16.5205" filterUnits="userSpaceOnUse" color-interpolation-filters="sRGB">
<feFlood flood-opacity="0" result="BackgroundImageFix"/>
<feBlend mode="normal" in="SourceGraphic" in2="BackgroundImageFix" result="shape"/>
<feColorMatrix in="SourceAlpha" type="matrix" values="0 0 0 0 0 0 0 0 0 0 0 0 0 0 0 0 0 0 127 0" result="hardAlpha"/>
<feOffset/>
<feGaussianBlur stdDeviation="2"/>
<feComposite in2="hardAlpha" operator="arithmetic" k2="-1" k3="1"/>
<feColorMatrix type="matrix" values="0 0 0 0 1 0 0 0 0 0 0 0 0 0 0 0 0 0 1 0"/>
<feBlend mode="normal" in2="shape" result="effect1_innerShadow_51_448"/>
</filter>
<filter id="filter16_f_51_448" x="91.3301" y="121.318" width="27.2834" height="22.3442" filterUnits="userSpaceOnUse" color-interpolation-filters="sRGB">
<feFlood flood-opacity="0" result="BackgroundImageFix"/>
<feBlend mode="normal" in="SourceGraphic" in2="BackgroundImageFix" result="shape"/>
<feGaussianBlur stdDeviation="2" result="effect1_foregroundBlur_51_448"/>
</filter>
<filter id="filter17_i_51_448" x="80.0791" y="180.079" width="34.009" height="34.0093" filterUnits="userSpaceOnUse" color-interpolation-filters="sRGB">
<feFlood flood-opacity="0" result="BackgroundImageFix"/>
<feBlend mode="normal" in="SourceGraphic" in2="BackgroundImageFix" result="shape"/>
<feColorMatrix in="SourceAlpha" type="matrix" values="0 0 0 0 0 0 0 0 0 0 0 0 0 0 0 0 0 0 127 0" result="hardAlpha"/>
<feMorphology radius="3" operator="erode" in="SourceAlpha" result="effect1_innerShadow_51_448"/>
<feOffset/>
<feGaussianBlur stdDeviation="6.7"/>
<feComposite in2="hardAlpha" operator="arithmetic" k2="-1" k3="1"/>
<feColorMatrix type="matrix" values="0 0 0 0 1 0 0 0 0 0.483333 0 0 0 0 0.483333 0 0 0 1 0"/>
<feBlend mode="normal" in2="shape" result="effect1_innerShadow_51_448"/>
</filter>
<filter id="filter18_i_51_448" x="98.9912" y="185.444" width="12.4231" height="16.521" filterUnits="userSpaceOnUse" color-interpolation-filters="sRGB">
<feFlood flood-opacity="0" result="BackgroundImageFix"/>
<feBlend mode="normal" in="SourceGraphic" in2="BackgroundImageFix" result="shape"/>
<feColorMatrix in="SourceAlpha" type="matrix" values="0 0 0 0 0 0 0 0 0 0 0 0 0 0 0 0 0 0 127 0" result="hardAlpha"/>
<feOffset/>
<feGaussianBlur stdDeviation="2"/>
<feComposite in2="hardAlpha" operator="arithmetic" k2="-1" k3="1"/>
<feColorMatrix type="matrix" values="0 0 0 0 1 0 0 0 0 0 0 0 0 0 0 0 0 0 1 0"/>
<feBlend mode="normal" in2="shape" result="effect1_innerShadow_51_448"/>
</filter>
<filter id="filter19_i_51_448" x="92.2024" y="198.991" width="16.5208" height="12.4893" filterUnits="userSpaceOnUse" color-interpolation-filters="sRGB">
<feFlood flood-opacity="0" result="BackgroundImageFix"/>
<feBlend mode="normal" in="SourceGraphic" in2="BackgroundImageFix" result="shape"/>
<feColorMatrix in="SourceAlpha" type="matrix" values="0 0 0 0 0 0 0 0 0 0 0 0 0 0 0 0 0 0 127 0" result="hardAlpha"/>
<feOffset/>
<feGaussianBlur stdDeviation="2"/>
<feComposite in2="hardAlpha" operator="arithmetic" k2="-1" k3="1"/>
<feColorMatrix type="matrix" values="0 0 0 0 1 0 0 0 0 0 0 0 0 0 0 0 0 0 1 0"/>
<feBlend mode="normal" in2="shape" result="effect1_innerShadow_51_448"/>
</filter>
<filter id="filter20_i_51_448" x="85.4443" y="182.792" width="16.5208" height="12.3843" filterUnits="userSpaceOnUse" color-interpolation-filters="sRGB">
<feFlood flood-opacity="0" result="BackgroundImageFix"/>
<feBlend mode="normal" in="SourceGraphic" in2="BackgroundImageFix" result="shape"/>
<feColorMatrix in="SourceAlpha" type="matrix" values="0 0 0 0 0 0 0 0 0 0 0 0 0 0 0 0 0 0 127 0" result="hardAlpha"/>
<feOffset/>
<feGaussianBlur stdDeviation="2"/>
<feComposite in2="hardAlpha" operator="arithmetic" k2="-1" k3="1"/>
<feColorMatrix type="matrix" values="0 0 0 0 1 0 0 0 0 0 0 0 0 0 0 0 0 0 1 0"/>
<feBlend mode="normal" in2="shape" result="effect1_innerShadow_51_448"/>
</filter>
<filter id="filter21_i_51_448" x="82.8857" y="192.202" width="12.2903" height="16.5205" filterUnits="userSpaceOnUse" color-interpolation-filters="sRGB">
<feFlood flood-opacity="0" result="BackgroundImageFix"/>
<feBlend mode="normal" in="SourceGraphic" in2="BackgroundImageFix" result="shape"/>
<feColorMatrix in="SourceAlpha" type="matrix" values="0 0 0 0 0 0 0 0 0 0 0 0 0 0 0 0 0 0 127 0" result="hardAlpha"/>
<feOffset/>
<feGaussianBlur stdDeviation="2"/>
<feComposite in2="hardAlpha" operator="arithmetic" k2="-1" k3="1"/>
<feColorMatrix type="matrix" values="0 0 0 0 1 0 0 0 0 0 0 0 0 0 0 0 0 0 1 0"/>
<feBlend mode="normal" in2="shape" result="effect1_innerShadow_51_448"/>
</filter>
<filter id="filter22_f_51_448" x="226.147" y="130.625" width="27.3525" height="22.2495" filterUnits="userSpaceOnUse" color-interpolation-filters="sRGB">
<feFlood flood-opacity="0" result="BackgroundImageFix"/>
<feBlend mode="normal" in="SourceGraphic" in2="BackgroundImageFix" result="shape"/>
<feGaussianBlur stdDeviation="2" result="effect1_foregroundBlur_51_448"/>
</filter>
<filter id="filter23_f_51_448" x="154.08" y="186.394" width="22.4836" height="27.1802" filterUnits="userSpaceOnUse" color-interpolation-filters="sRGB">
<feFlood flood-opacity="0" result="BackgroundImageFix"/>
<feBlend mode="normal" in="SourceGraphic" in2="BackgroundImageFix" result="shape"/>
<feGaussianBlur stdDeviation="2" result="effect1_foregroundBlur_51_448"/>
</filter>
</defs>
</svg>
