<svg width="1440" height="1024" viewBox="0 0 1440 1024" fill="none" xmlns="http://www.w3.org/2000/svg">
<g clip-path="url(#clip0_202_9418)">
<rect width="1440" height="1024" fill="#FFF0BE"/>
<path d="M838.619 855.046C857.424 843.982 877.716 841.469 893.076 855.187C911.303 868.983 911.077 889.766 899.971 908.198C896.21 914.44 886.613 924.721 874.791 936.252C886.589 938.276 897.475 942.454 902.103 950.638C914.442 972.459 902.03 993.235 873.968 1005.1C858.544 1011.62 826.57 1007.49 800.899 1002.45C800.826 1002.51 800.788 1002.54 800.784 1002.55L762.326 995.35C762.326 995.35 725.576 909.836 736.471 883.703C747.367 857.57 768.867 845.217 793.117 855.327C802.663 859.307 807.746 869.486 810.403 880.365C821.644 868.624 831.912 858.992 838.619 855.046Z" fill="#85DB69"/>
<path d="M848.078 903.348L852.77 901.327C852.77 901.327 821.592 936.247 816.797 941.758C812.002 947.268 782.009 980.621 782.009 980.621L777.613 982.494C777.613 982.494 808.87 944.673 813.105 939.554C817.34 934.434 848.078 903.348 848.078 903.348Z" fill="#6AC04D"/>
<path d="M731.881 447.463C723.061 429.384 708.384 416.696 688.725 418.398C666.769 418.622 655.58 433.777 654.279 453.057C653.838 459.588 655.803 472.167 658.844 486.841C648.405 481.987 637.51 479.178 629.373 482.621C607.675 491.799 606.125 513.478 621.829 537.089C630.46 550.067 658.007 564.206 681.067 574.309C681.092 574.397 681.104 574.442 681.104 574.442L715.456 589.834C715.584 589.762 791.312 547.629 796.988 522.907C802.669 498.164 792.424 477.711 767.714 472.038C757.986 469.804 748.397 474.446 740.344 480.893C737.877 466.379 735.027 453.91 731.881 447.463Z" fill="#AEEE98"/>
<path d="M697.973 477.343L695.369 473.368C695.369 473.368 700.921 515.331 701.698 521.886C702.475 528.441 707.947 568.636 707.947 568.636L710.4 572.345C710.4 572.345 706.372 528.241 705.824 522.269C705.275 516.297 697.973 477.343 697.973 477.343Z" fill="#85DB69"/>
<path d="M53.4356 272.099C54.2129 246.243 64.1158 225.32 86.6332 221.049C110.955 214.146 130.795 229.74 141.773 253.811C145.491 261.963 149.55 278.588 153.461 298.227C162.568 288.643 173.192 281.51 183.87 283.22C212.337 287.781 224.777 314.817 219.148 349.955C216.054 369.269 192.677 396.248 172.251 416.631C172.266 416.747 172.275 416.808 172.276 416.812L142.016 447.61C141.765 447.541 37.4762 418.802 18.9872 389.26C0.476311 359.683 1.64959 330.344 26.0885 315.049C35.7095 309.028 48.5798 311.786 60.6511 317.343C56.1872 298.094 53.1584 281.32 53.4356 272.099Z" fill="#6AC04D"/>
<path d="M105.614 298.965L106.518 293.063C106.518 293.063 121.167 348.195 123.555 356.778C125.942 365.361 139.803 418.22 139.803 418.22L138.935 423.736C138.935 423.736 121.546 366.382 119.195 358.615C116.844 350.848 105.614 298.965 105.614 298.965Z" fill="#85DB69"/>
<path d="M185.663 125.633C185.452 130.495 185.031 135.356 184.504 140.113C183.766 148.039 179.341 154.275 170.595 154.275C161.638 154.275 157.318 148.039 156.581 140.113C154.473 120.031 154.473 97.9421 156.581 77.9666C157.318 70.1455 161.638 63.9098 170.595 63.9098C179.341 63.9098 183.766 70.1455 184.504 77.9666C185.031 82.7227 185.452 87.5845 185.663 92.4462C191.037 91.1779 196.938 91.0722 202.312 92.3405C202.628 87.4788 202.944 82.7227 203.471 77.9666C204.314 70.1455 208.634 63.9098 217.38 63.9098C226.231 63.9098 230.656 70.1455 231.499 77.9666C233.501 97.9421 233.501 120.031 231.499 140.113C230.656 148.039 226.231 154.275 217.38 154.275C208.634 154.275 204.314 148.039 203.471 140.113C202.944 135.356 202.628 130.6 202.312 125.739C196.938 127.007 191.037 126.901 185.663 125.633Z" fill="#6AC04D"/>
<path d="M249.549 148.645C240.065 142.62 235.429 131.629 235.218 120.742C235.007 107.637 240.697 94.5312 251.551 89.4581C256.819 87.0272 262.72 85.8646 268.305 85.8646C283.267 85.8646 296.123 93.2629 295.174 109.962C294.647 120.003 289.59 124.653 278.947 127.19C273.468 128.564 265.038 128.141 261.877 123.068C261.35 122.222 258.927 122.222 259.243 124.23C259.664 127.295 264.933 131.523 272.414 131.523C273.784 131.523 275.786 131.1 277.05 130.783C286.534 128.035 290.643 127.929 293.594 136.702C295.912 143.36 292.329 148.328 281.897 151.604C276.84 153.189 273.573 153.401 268.41 153.401C261.666 153.401 255.028 152.132 249.549 148.645ZM263.563 109.011C268.937 107.531 273.362 107.743 278.42 108.799C280.106 109.011 281.055 105.417 278.631 104.995C273.679 103.938 267.989 103.092 263.247 105.1C261.139 105.946 261.877 109.434 263.563 109.011Z" fill="#6AC04D"/>
<path d="M337.568 159.348C332.827 166.535 325.556 168.966 317.337 168.966C305.325 168.966 295.841 162.625 295.841 150.999C295.841 140.43 303.955 133.771 314.703 131.657C324.502 129.649 331.351 125.21 334.829 119.926C336.198 117.812 333.143 115.698 331.773 117.706C327.663 123.731 319.444 128.17 310.383 128.17C302.164 128.17 297.843 123.836 297.843 117.918C297.843 107.243 311.647 100.373 327.98 100.373C344.734 100.373 354.322 106.292 358.643 118.552C362.331 128.909 362.225 145.608 359.275 158.503C357.905 164.738 354.322 168.015 348.316 168.015C342.415 168.015 338.833 165.056 337.568 159.348ZM319.655 151.844C324.713 151.21 329.455 147.828 333.353 144.552C335.461 142.861 332.827 140.324 331.457 141.381C327.453 144.763 323.659 146.982 318.075 148.356C316.389 148.779 317.232 152.161 319.655 151.844Z" fill="#6AC04D"/>
<path d="M393.253 131.388C400.629 132.128 405.371 134.031 405.371 142.38C405.371 153.689 389.881 155.38 379.239 155.274C370.282 155.169 365.014 149.039 364.276 141.112C362.274 121.031 362.274 98.9414 364.276 78.9659C365.014 71.1448 369.439 64.9091 378.396 64.9091C387.036 64.9091 391.462 71.1448 392.199 78.9659C393.78 94.3967 394.307 115.323 393.253 131.388Z" fill="#6AC04D"/>
<path d="M408.407 129.438C405.983 129.438 403.876 128.698 402.401 127.853C398.924 125.844 397.343 121.934 397.343 116.332C397.343 107.983 401.663 105.763 408.723 104.495C408.828 103.121 408.828 101.747 408.934 100.373C409.777 89.5926 414.097 87.3731 422.421 87.3731C430.535 87.3731 434.855 89.5926 435.909 100.373C435.909 100.479 435.909 100.584 435.909 100.69C440.334 100.479 444.76 100.796 447.289 102.275C450.766 104.284 452.347 108.3 452.347 113.901C452.347 122.04 448.132 125.105 440.65 125.95L437.805 126.267C437.805 128.804 437.7 131.129 437.384 133.031C432.537 134.3 428.533 138.316 427.374 141.169C426.741 142.966 428.954 143.6 429.587 142.332C432.115 137.47 436.962 134.511 441.81 134.934C448.026 135.357 453.927 140.113 453.19 150.999C452.557 160.405 442.442 165.584 431.062 165.584C410.725 165.584 409.039 151.844 408.407 131.023C408.407 130.495 408.407 129.966 408.407 129.438Z" fill="#6AC04D"/>
<path d="M485.252 118.609C484.935 124.211 484.619 129.813 484.093 135.308C483.25 143.235 478.929 149.471 470.184 149.471C461.227 149.471 457.012 143.235 456.169 135.308C455.432 128.333 455.116 121.463 454.905 114.487V110.788C454.799 98.7396 455.537 83.3088 456.275 71.9999C457.012 61.2195 461.438 59 469.762 59C477.876 59 482.196 61.2195 483.25 71.9999C483.566 75.0649 483.882 82.0405 483.987 85.634C479.983 88.699 477.665 91.8697 475.663 96.5201C474.609 99.1624 477.033 100.325 478.086 98.4225C479.14 96.203 480.51 94.0892 481.985 91.9754C486.516 85.7397 492.733 82.6746 499.477 82.6746C513.07 82.6746 519.813 94.1949 519.919 108.04C520.024 117.764 519.392 125.479 518.338 135.308C517.601 143.235 513.175 149.471 504.429 149.471C495.473 149.471 491.258 143.235 490.415 135.308C489.783 129.813 489.466 124.422 489.256 118.926C489.045 117.658 488.097 117.13 487.254 117.13C486.411 117.13 485.568 117.658 485.252 118.609Z" fill="#6AC04D"/>
<path d="M563.869 145.464C565.028 143.033 562.394 142.188 561.446 143.985C557.442 150.537 552.595 153.92 544.903 153.92C532.363 153.92 518.771 144.513 520.562 128.025L522.985 107.099C523.723 100.757 528.359 96.6354 534.682 96.6354H541.636C547.958 96.6354 551.119 100.757 549.855 106.887L545.219 129.082C544.586 131.09 547.537 132.359 548.38 129.717L553.543 106.887C554.913 100.757 560.287 96.6354 566.609 96.6354H573.142C580.729 96.6354 585.892 101.709 585.892 109.318L585.997 139.017C586.103 152.229 583.152 163.22 577.146 171.993C570.824 181.082 560.076 185.098 549.117 185.098C545.851 185.098 536.894 184.253 531.415 182.245C523.723 179.497 523.407 171.993 525.514 165.757C527.516 160.155 530.994 155.082 537.843 156.033C539.845 156.35 543.638 156.562 546.167 156.562C555.018 156.562 559.971 152.017 563.869 145.464Z" fill="#6AC04D"/>
<path d="M273.824 212.626C273.086 214.317 274.983 215.163 275.615 213.683C278.671 205.968 281.094 198.358 284.993 191.171C287.944 185.675 294.793 185.781 297.743 191.171C299.429 194.342 301.536 198.041 303.433 202.48C303.012 204.911 302.695 207.659 302.274 210.301C301.853 212.203 304.171 212.838 304.487 210.724C306.067 199.415 306.91 187.895 309.334 176.691C311.02 168.87 314.497 162.635 323.243 162.635C332.199 162.635 337.152 168.87 337.257 176.691C337.784 196.667 334.728 219.813 330.724 238.837C328.828 247.187 324.297 253 316.394 253C311.125 253 307.753 250.886 305.646 247.715C300.377 239.894 296.373 229.642 292.58 219.813C291.948 218.439 290.789 218.439 290.262 219.813C286.468 229.748 282.464 239.894 277.196 247.715C274.983 250.886 271.822 253 266.448 253C258.44 253 253.909 247.187 252.117 238.837C248.008 219.813 245.058 196.667 245.584 176.691C245.795 168.87 250.748 162.635 259.493 162.635C268.345 162.635 271.822 168.87 273.508 176.691C275.088 184.301 276.353 194.659 277.406 203.008C275.72 206.391 274.983 208.399 273.824 212.626Z" fill="#FFC916"/>
<path d="M355.691 178.795C348.526 178.795 341.887 173.511 341.887 164.104C341.887 155.332 348.631 149.413 355.691 149.413C363.383 149.413 369.495 156.812 369.495 164.421C369.495 172.242 363.699 178.795 355.691 178.795ZM341.571 231.958C344.359 219.486 349.148 205.641 341.571 193.169C342.309 188.307 346.734 184.291 355.691 184.291C364.331 184.291 368.652 188.307 369.495 193.169C362.023 205.641 366.812 219.486 369.495 231.958C368.652 236.925 364.331 240.836 355.691 240.836C346.734 240.836 342.309 236.925 341.571 231.958Z" fill="#FFC916"/>
<path d="M403.609 210.618C404.346 212.309 406.875 211.358 405.927 209.561C402.66 203.114 396.338 195.716 385.906 193.919C376.002 192.122 369.785 188 369.785 179.017C369.785 169.082 381.797 162.635 397.708 162.635C409.615 162.635 427.212 166.545 426.369 178.488C425.842 186.204 419.625 188.74 413.408 188.74C408.772 188.74 405.084 186.415 401.712 183.773C398.024 180.919 395.706 178.911 392.018 175.423C390.648 174.155 388.857 175.952 390.121 177.009C394.336 181.236 401.291 187.895 414.462 192.756C422.154 195.504 429.319 201.529 428.476 212.309C427.528 223.618 414.567 230.171 399.289 230.171C383.694 230.171 371.26 223.618 369.363 211.886C367.993 203.643 371.154 195.716 382.535 195.716C393.493 195.716 399.183 203.325 403.609 210.618Z" fill="#FFC916"/>
<path d="M461.185 215.739C460.869 221.34 460.553 226.942 460.026 232.438C459.183 240.365 454.862 246.601 446.117 246.601C437.16 246.601 432.945 240.365 432.102 232.438C431.365 225.462 431.049 218.593 430.838 211.617V207.918C430.733 195.869 431.47 180.438 432.208 169.129C432.945 158.349 437.371 156.13 445.695 156.13C453.809 156.13 458.129 158.349 459.183 169.129C459.499 172.194 459.815 179.17 459.92 182.764C455.916 185.829 453.598 188.999 451.596 193.65C450.542 196.292 452.966 197.454 454.02 195.552C455.073 193.333 456.443 191.219 457.918 189.105C462.449 182.869 468.666 179.804 475.41 179.804C489.003 179.804 495.747 191.324 495.852 205.17C495.957 214.893 495.325 222.609 494.271 232.438C493.534 240.365 489.108 246.601 480.362 246.601C471.406 246.601 467.191 240.365 466.348 232.438C465.716 226.942 465.4 221.552 465.189 216.056C464.978 214.788 464.03 214.259 463.187 214.259C462.344 214.259 461.501 214.788 461.185 215.739Z" fill="#FFC916"/>
<path d="M104.557 426.079L132.279 465.155L36.1211 690.621L39.379 918.684L-5.37134 953.208L-108.12 891.082L-6.67681 653.224L104.557 426.079Z" fill="#FCC5A9"/>
<path d="M659.058 662.564L611.668 669.606L515.51 895.073L348.662 1050.59L354.723 1106.78L470.682 1137.93L572.125 900.073L659.058 662.564Z" fill="#FCC5A9"/>
<ellipse cx="308.525" cy="722.275" rx="312.219" ry="312.71" transform="rotate(23.0974 308.525 722.275)" fill="#D6A173"/>
<ellipse cx="308.525" cy="722.275" rx="280.997" ry="281.439" transform="rotate(23.0974 308.525 722.275)" fill="#BF8D62"/>
<path d="M89.0984 424.881L108.268 460.655L30.5518 576.457L-18.7228 711.441L-42.0171 902.588L-108.512 892.098L-102.249 706.241L89.0984 424.881Z" fill="#FFD5BF"/>
<path d="M1.81603 633.31L26.1716 648.928L-11.5203 775.992L-2.06676 917.91L-92.8163 894.994L-75.7101 753.869L1.81603 633.31Z" fill="#FCC5A9"/>
<path d="M2.28787 632.204L35.9194 646.547L-2.74872 772.578L1.83406 911.825L-91.2399 894.359L-61.5803 752.718L2.28787 632.204Z" fill="#FFD5BF"/>
<path d="M672.997 673.903L633.909 684.832L604.131 821.079L540.821 950.077L418.995 1099.2L472.595 1139.93L602.391 1006.76L672.997 673.903Z" fill="#FFD5BF"/>
<path d="M579.759 879.111L565.498 873.03L493.931 984.579L380.32 1070.14L456.954 1123.88L552.614 1018.73L579.759 879.111Z" fill="#FCC5A9"/>
<path d="M580.457 877.476L546.825 863.132L482.635 978.279L378.969 1071.36L456.001 1126.44L537.692 1006.99L580.457 877.476Z" fill="#FFD5BF"/>
<path d="M520.294 667.4C547.643 665.137 572.276 672.136 582.811 693.09C596.612 715.393 585.62 736.04 563.347 749.253C555.803 753.728 539.469 759.507 519.933 765.493C532.422 773.031 542.748 782.288 543.835 792.621C546.737 820.198 521.747 835.154 483.388 833.883C462.3 833.183 427.699 814.096 400.814 797.051C400.707 797.076 400.652 797.09 400.652 797.09L360.179 771.907C360.18 771.852 362.12 669.282 388.129 648.28C414.145 627.273 445.228 624.993 467.871 646.44C476.776 654.875 477.367 667.404 474.81 679.504C493.786 673.03 510.553 668.207 520.294 667.4Z" fill="#6AC04D"/>
<path d="M506.226 720.111L512.662 720.287C512.662 720.287 458.788 740.591 450.429 743.854C442.071 747.117 390.367 766.41 390.367 766.41L384.347 766.224C384.347 766.224 439.812 743.058 447.324 739.924C454.837 736.791 506.226 720.111 506.226 720.111Z" fill="#85DB69"/>
<path d="M174.85 483.587C185.544 454.222 206.701 435.059 238.65 441.34C273.904 445.485 294.769 473.204 300.574 506.27C302.542 517.478 301.814 538.59 299.761 563.092C315.587 556.585 332.537 553.645 346.265 560.89C382.882 580.214 389.548 617.447 368.874 655.055C357.515 675.719 316.022 695.163 280.939 708.491C280.916 708.631 280.905 708.705 280.904 708.712L228.687 729.137C228.687 729.137 98.6867 644.346 84.7853 601.19C70.884 558.035 83.3957 524.895 121.999 519.408C137.203 517.248 153.512 526.796 167.698 539.164C168.864 514.829 171.04 494.049 174.85 483.587Z" fill="#AEEE98"/>
<path d="M235.057 540.275L238.474 533.937C238.474 533.937 237.658 604.561 237.675 615.609C237.692 626.657 236.662 694.278 236.662 694.278L233.437 700.189C233.437 700.189 231.391 625.654 231.119 615.562C230.847 605.47 235.057 540.275 235.057 540.275Z" fill="#85DB69"/>
<path d="M435.706 496.07C464.126 480.814 495.005 478.093 518.722 498.808C546.794 519.758 546.908 550.03 530.393 576.373C524.799 585.295 510.4 599.834 492.637 616.091C510.665 619.588 527.349 626.181 534.584 638.323C553.875 670.695 535.416 700.398 492.91 716.384C469.545 725.171 420.72 717.673 381.482 709.139C381.366 709.23 381.308 709.277 381.308 709.277L322.535 697.008C322.445 696.811 264.639 570.652 280.654 533.1C296.681 495.52 329.177 478.513 366.361 494.371C380.999 500.614 388.973 515.683 393.263 531.66C410.136 515.071 425.571 501.509 435.706 496.07Z" fill="#85DB69"/>
<path d="M451.193 566.901L458.299 564.173C458.299 564.173 411.555 613.62 404.368 621.429C397.182 629.238 352.208 676.456 352.208 676.456L345.549 678.981C345.549 678.981 392.35 625.31 398.692 618.046C405.033 610.782 451.193 566.901 451.193 566.901Z" fill="#6AC04D"/>
<ellipse cx="48.0847" cy="48.0583" rx="48.0847" ry="48.0583" transform="matrix(0.0985408 -0.995133 0.995259 0.0972634 152.121 629.858)" fill="#FF2020"/>
<g filter="url(#filter0_i_202_9418)">
<ellipse cx="40.872" cy="40.8495" rx="40.872" ry="40.8495" transform="matrix(0.0985408 -0.995133 0.995259 0.0972634 160.006 623.382)" fill="#FFA4A4"/>
</g>
<g filter="url(#filter1_i_202_9418)">
<path d="M209.464 587.152L229.536 610.036C229.536 610.036 237.341 604.372 238.763 590.015C240.184 575.659 233.639 568.593 233.639 568.593L209.464 587.152Z" fill="#FF3434"/>
</g>
<g filter="url(#filter2_i_202_9418)">
<path d="M204.219 591.476L222.737 615.629C222.737 615.629 216.861 622.301 201.317 620.782C185.773 619.263 181.318 611.581 181.318 611.581L204.219 591.476Z" fill="#FF3434"/>
</g>
<g filter="url(#filter3_i_202_9418)">
<path d="M205.161 581.888L228.062 561.783C228.062 561.783 223.547 554.699 208.063 552.582C192.578 550.465 186.642 557.735 186.642 557.735L205.161 581.888Z" fill="#FF3434"/>
</g>
<g filter="url(#filter4_i_202_9418)">
<path d="M199.915 586.212L175.74 604.771C175.74 604.771 169.432 595.312 170.617 583.348C171.801 571.384 179.844 563.328 179.844 563.328L199.915 586.212Z" fill="#FF3434"/>
</g>
<path d="M183.165 593.698C183.606 594.365 179.336 599.119 178.763 599.499C178.19 599.879 176.472 601.018 175.148 599.016C173.823 597.013 175.541 595.873 176.113 595.493C176.686 595.114 182.723 593.03 183.165 593.698Z" fill="#FFC916"/>
<path d="M184.802 576.103C184.208 576.642 178.877 573.138 178.417 572.63C177.956 572.121 176.576 570.594 178.359 568.978C180.143 567.363 181.524 568.889 181.984 569.398C182.444 569.907 185.397 575.565 184.802 576.103Z" fill="#FFC916"/>
<path d="M182.382 586.845C182.493 587.638 176.597 590.094 175.917 590.19C175.237 590.287 173.197 590.577 172.863 588.197C172.529 585.818 174.569 585.528 175.249 585.431C175.928 585.335 182.27 586.052 182.382 586.845Z" fill="#FFC916"/>
<path d="M183.108 581.278C182.9 582.052 176.517 582.003 175.854 581.826C175.191 581.649 173.201 581.116 173.825 578.795C174.448 576.474 176.438 577.006 177.101 577.184C177.764 577.361 183.316 580.505 183.108 581.278Z" fill="#FFC916"/>
<path d="M211.493 608.208C212.161 607.765 216.906 612.029 217.284 612.602C217.663 613.174 218.799 614.891 216.794 616.221C214.789 617.551 213.653 615.834 213.274 615.262C212.896 614.689 210.824 608.651 211.493 608.208Z" fill="#FFC916"/>
<path d="M193.922 606.584C194.458 607.178 190.947 612.518 190.438 612.979C189.929 613.44 188.4 614.825 186.79 613.044C185.18 611.264 186.708 609.879 187.218 609.418C187.727 608.956 193.385 605.991 193.922 606.584Z" fill="#FFC916"/>
<path d="M204.647 608.999C205.44 608.887 207.887 614.782 207.982 615.462C208.078 616.142 208.364 618.182 205.984 618.521C203.604 618.859 203.317 616.819 203.222 616.138C203.126 615.458 203.853 609.112 204.647 608.999Z" fill="#FFC916"/>
<path d="M199.088 608.279C199.862 608.486 199.806 614.871 199.628 615.535C199.45 616.199 198.915 618.189 196.593 617.568C194.27 616.947 194.805 614.956 194.983 614.293C195.162 613.629 198.314 608.072 199.088 608.279Z" fill="#FFC916"/>
<path d="M215.489 567.749C216.057 568.313 221.547 565.046 222.031 564.558C222.515 564.07 223.966 562.605 222.262 560.914C220.558 559.223 219.107 560.688 218.623 561.176C218.139 561.664 214.921 567.186 215.489 567.749Z" fill="#FFC916"/>
<path d="M197.937 565.93C198.581 565.451 196.187 559.534 195.778 558.983C195.369 558.432 194.142 556.779 192.211 558.215C190.281 559.651 191.508 561.304 191.917 561.855C192.326 562.406 197.294 566.408 197.937 565.93Z" fill="#FFC916"/>
<path d="M208.929 565.643C209.686 565.907 213.244 560.599 213.471 559.951C213.698 559.302 214.38 557.357 212.11 556.565C209.84 555.772 209.159 557.718 208.932 558.366C208.705 559.014 208.173 565.379 208.929 565.643Z" fill="#FFC916"/>
<path d="M203.336 565.272C204.136 565.219 205.334 558.944 205.289 558.258C205.244 557.573 205.111 555.517 202.712 555.677C200.313 555.837 200.447 557.893 200.491 558.578C200.536 559.263 202.537 565.325 203.336 565.272Z" fill="#FFC916"/>
<path d="M223.572 597.657C223.008 598.227 226.262 603.716 226.749 604.199C227.236 604.682 228.697 606.132 230.391 604.423C232.085 602.713 230.624 601.263 230.137 600.78C229.65 600.297 224.137 597.087 223.572 597.657Z" fill="#FFC916"/>
<path d="M225.406 580.082C225.883 580.724 231.799 578.318 232.351 577.907C232.902 577.497 234.556 576.267 233.125 574.339C231.694 572.411 230.04 573.641 229.489 574.051C228.937 574.462 224.929 579.439 225.406 580.082Z" fill="#FFC916"/>
<path d="M225.68 591.087C225.415 591.843 230.717 595.391 231.365 595.618C232.013 595.844 233.957 596.523 234.752 594.255C235.546 591.987 233.602 591.308 232.954 591.082C232.306 590.855 225.944 590.331 225.68 591.087Z" fill="#FFC916"/>
<path d="M226.057 585.486C226.109 586.285 232.379 587.473 233.064 587.427C233.749 587.382 235.805 587.245 235.649 584.847C235.493 582.449 233.437 582.586 232.752 582.632C232.067 582.677 226.005 584.687 226.057 585.486Z" fill="#FFC916"/>
<ellipse cx="40.3027" cy="56.0924" rx="40.3027" ry="56.0924" transform="matrix(0.883553 0.468331 -0.467907 0.883778 331.697 483.724)" fill="#00720D"/>
<ellipse cx="35.0633" cy="48.8286" rx="35.0633" ry="48.8286" transform="matrix(0.883553 0.468331 -0.467907 0.883778 329.884 499.206)" fill="#C9FFD0"/>
<g filter="url(#filter5_f_202_9418)">
<ellipse cx="16.9271" cy="23.4054" rx="16.9271" ry="23.4054" transform="matrix(0.883553 0.468331 -0.467907 0.883778 333.845 529.622)" fill="#B7FFBF"/>
</g>
<path d="M339.535 535.775C338.333 535.905 334.938 526.88 334.828 525.848C334.718 524.817 334.387 521.722 337.994 521.332C341.6 520.943 341.93 524.038 342.04 525.069C342.151 526.101 340.737 535.645 339.535 535.775Z" fill="#A2FFAC"/>
<path d="M328.781 547.007C328.014 547.944 319.268 543.905 318.466 543.248C317.664 542.591 315.26 540.62 317.559 537.81C319.858 534.999 322.262 536.97 323.064 537.627C323.866 538.284 329.547 546.07 328.781 547.007Z" fill="#A2FFAC"/>
<path d="M321.23 564.933C320.983 566.118 311.359 566.59 310.345 566.379C309.33 566.168 306.287 565.536 307.028 561.979C307.77 558.423 310.813 559.056 311.827 559.267C312.842 559.478 321.477 563.747 321.23 564.933Z" fill="#A2FFAC"/>
<path d="M320.453 581.735C321.183 582.7 315.202 590.269 314.375 590.896C313.549 591.523 311.069 593.403 308.881 590.508C306.693 587.613 309.172 585.733 309.999 585.107C310.826 584.48 319.724 580.77 320.453 581.735Z" fill="#A2FFAC"/>
<path d="M355.231 544.092C355.799 545.16 365.169 542.901 366.084 542.413C366.999 541.925 369.743 540.46 368.039 537.255C366.335 534.05 363.591 535.515 362.676 536.004C361.761 536.492 354.663 543.023 355.231 544.092Z" fill="#A2FFAC"/>
<path d="M351.05 534.171C352.119 534.738 358.625 527.616 359.111 526.699C359.596 525.782 361.053 523.031 357.848 521.332C354.643 519.633 353.186 522.384 352.701 523.301C352.215 524.218 349.982 533.605 351.05 534.171Z" fill="#A2FFAC"/>
<path d="M351.983 559.301C351.639 560.462 359.891 565.434 360.884 565.728C361.877 566.023 364.858 566.906 365.891 563.423C366.924 559.94 363.943 559.057 362.95 558.762C361.957 558.468 352.327 558.14 351.983 559.301Z" fill="#A2FFAC"/>
<path d="M341.397 575.618C340.556 576.488 345.572 584.719 346.317 585.441C347.061 586.162 349.294 588.326 351.818 585.715C354.341 583.105 352.108 580.941 351.364 580.22C350.62 579.498 342.238 574.748 341.397 575.618Z" fill="#A2FFAC"/>
<path d="M327.937 585.699C326.729 585.638 323.83 594.841 323.776 595.877C323.722 596.913 323.56 600.022 327.182 600.207C330.804 600.392 330.966 597.283 331.02 596.247C331.074 595.211 329.144 585.761 327.937 585.699Z" fill="#A2FFAC"/>
<path d="M445.986 644.883C467.446 641.375 487.483 645.542 497.431 661.89C510.011 679.044 502.943 696.368 486.408 708.389C480.8 712.465 468.352 718.132 453.392 724.162C463.846 729.488 472.726 736.335 474.394 744.616C478.847 766.719 460.278 780.332 429.878 781.651C413.166 782.376 384.339 769.072 361.766 756.946C361.689 756.971 361.648 756.985 361.644 756.986L327.698 739.113C327.682 738.908 321.202 656.057 340.081 637.516C358.984 618.952 383.359 615.21 402.927 631.154C410.623 637.425 412.073 647.514 411.001 657.447C425.485 651.055 438.354 646.13 445.986 644.883Z" fill="#AEEE98"/>
<path d="M439.004 688.333L444.102 688.081C444.102 688.081 403.135 707.781 396.787 710.928C390.44 714.075 351.109 732.825 351.109 732.825L346.338 733.043C346.338 733.043 388.338 710.934 394.027 707.943C399.716 704.952 439.004 688.333 439.004 688.333Z" fill="#85DB69"/>
<path d="M294.079 588.72C279.682 567.79 259.965 554.265 238.137 559.095C213.494 562.359 204.6 582.331 207.838 605.997C208.936 614.022 214.224 629.102 221.238 646.593C208.293 642.086 195.338 640.136 187.007 645.427C164.767 659.549 168.306 686.216 191.78 712.917C204.685 727.595 239.218 741.143 267.699 750.369C267.743 750.459 267.764 750.505 267.764 750.505L310.288 764.674C310.288 764.674 385.577 703.017 385.943 672.064C386.308 641.11 369.75 617.53 340.48 613.925C328.968 612.508 319.289 619.445 311.78 628.381C305.456 610.998 299.2 596.165 294.079 588.72Z" fill="#6AC04D"/>
<path d="M263.088 629.749L259.178 625.247C259.178 625.247 275.699 675.723 278.179 683.621C280.658 691.519 296.658 739.847 296.658 739.847L300.332 744.046C300.332 744.046 285.007 690.751 282.929 683.534C280.85 676.318 263.088 629.749 263.088 629.749Z" fill="#85DB69"/>
<path d="M53.3921 779.997C22.3698 784.423 -4.75398 778.349 -14.7494 755.768C-28.3445 731.838 -14.0648 708.02 12.2828 691.721C21.1988 686.205 40.1467 678.623 62.7243 670.586C49.328 663.052 38.528 653.45 38.2427 642.005C37.4812 611.457 67.0264 593.038 110.172 591.782C133.891 591.092 171.178 609.965 199.947 627.097C200.066 627.063 200.129 627.043 200.135 627.042L243.489 652.303C243.471 652.477 231.936 766.889 200.705 792.108C169.449 817.347 134.183 822.055 110.599 799.717C101.325 790.932 101.797 777.003 105.783 763.333C83.7963 771.873 64.4502 778.419 53.3921 779.997Z" fill="#85DB69"/>
<path d="M74.0532 720.237L66.8104 720.49C66.8104 720.49 129.421 694.096 139.146 689.875C148.87 685.655 208.94 660.54 208.94 660.54L215.713 660.328C215.713 660.328 151.048 690.024 142.289 694.041C133.531 698.058 74.0532 720.237 74.0532 720.237Z" fill="#6AC04D"/>
<path d="M517.42 872.81C539.752 894.514 550.472 918.86 536.472 938.863C523.242 962.53 493.439 964.343 463.161 952.639C452.929 948.684 434.879 938.034 414.263 924.804C415.527 939.362 413.398 953.027 403.339 959.471C376.541 976.636 342.537 963.606 315.752 930.668C301.028 912.563 295.681 873.279 293.85 841.57C293.707 841.466 293.631 841.412 293.627 841.408L290.363 793.959C290.363 793.959 399.463 740.851 440.589 751.512C481.716 762.174 506.909 787.085 501.013 817.555C498.693 829.543 485.971 836.724 471.392 841.027C492.088 853.526 509.434 865.05 517.42 872.81Z" fill="#85DB69"/>
<path d="M451.827 889.095L456.362 894.594C456.362 894.594 395.573 860.155 386.023 854.872C376.474 849.588 318.337 816.434 318.337 816.434L314.117 811.278C314.117 811.278 379.073 845.53 387.866 850.171C396.66 854.813 451.827 889.095 451.827 889.095Z" fill="#6AC04D"/>
<ellipse cx="48.0847" cy="48.0583" rx="48.0847" ry="48.0583" transform="matrix(0.0985409 -0.995133 0.995259 0.0972633 281.891 999.014)" fill="#FF2020"/>
<g filter="url(#filter6_i_202_9418)">
<ellipse cx="40.872" cy="40.8495" rx="40.872" ry="40.8495" transform="matrix(0.0985407 -0.995133 0.995259 0.0972635 289.777 992.537)" fill="#FFA4A4"/>
</g>
<g filter="url(#filter7_i_202_9418)">
<path d="M339.234 956.307L359.306 979.191C359.306 979.191 367.111 973.527 368.533 959.171C369.955 944.814 363.41 937.748 363.41 937.748L339.234 956.307Z" fill="#FF3434"/>
</g>
<g filter="url(#filter8_i_202_9418)">
<path d="M333.989 960.631L352.507 984.784C352.507 984.784 346.631 991.456 331.087 989.937C315.543 988.418 311.088 980.736 311.088 980.736L333.989 960.631Z" fill="#FF3434"/>
</g>
<g filter="url(#filter9_i_202_9418)">
<path d="M334.931 951.043L357.832 930.938C357.832 930.938 353.317 923.855 337.833 921.737C322.348 919.62 316.412 926.89 316.412 926.89L334.931 951.043Z" fill="#FF3434"/>
</g>
<g filter="url(#filter10_i_202_9418)">
<path d="M329.686 955.367L305.511 973.926C305.511 973.926 299.203 964.467 300.387 952.504C301.572 940.54 309.614 932.483 309.614 932.483L329.686 955.367Z" fill="#FF3434"/>
</g>
<path d="M312.935 962.853C313.376 963.52 309.106 968.274 308.533 968.654C307.96 969.034 306.242 970.174 304.918 968.171C303.593 966.168 305.311 965.029 305.883 964.649C306.456 964.269 312.493 962.185 312.935 962.853Z" fill="#FFC916"/>
<path d="M314.572 945.259C313.978 945.797 308.647 942.294 308.187 941.785C307.726 941.276 306.346 939.749 308.129 938.133C309.913 936.518 311.294 938.045 311.754 938.554C312.214 939.063 315.167 944.72 314.572 945.259Z" fill="#FFC916"/>
<path d="M312.152 956C312.263 956.793 306.367 959.249 305.687 959.346C305.007 959.442 302.967 959.732 302.633 957.353C302.299 954.973 304.339 954.683 305.019 954.587C305.698 954.49 312.04 955.207 312.152 956Z" fill="#FFC916"/>
<path d="M312.878 950.434C312.671 951.207 306.287 951.159 305.624 950.981C304.961 950.804 302.971 950.272 303.595 947.951C304.218 945.63 306.208 946.162 306.871 946.339C307.534 946.516 313.086 949.66 312.878 950.434Z" fill="#FFC916"/>
<path d="M341.263 977.363C341.931 976.92 346.676 981.185 347.054 981.757C347.433 982.33 348.569 984.047 346.564 985.377C344.559 986.707 343.423 984.99 343.044 984.417C342.666 983.845 340.594 977.807 341.263 977.363Z" fill="#FFC916"/>
<path d="M323.692 975.74C324.228 976.333 320.717 981.673 320.208 982.134C319.699 982.596 318.17 983.98 316.56 982.199C314.95 980.419 316.478 979.035 316.988 978.573C317.497 978.112 323.155 975.146 323.692 975.74Z" fill="#FFC916"/>
<path d="M334.417 978.155C335.211 978.042 337.657 983.937 337.753 984.617C337.848 985.297 338.135 987.338 335.754 987.676C333.374 988.014 333.087 985.974 332.992 985.294C332.896 984.614 333.624 978.267 334.417 978.155Z" fill="#FFC916"/>
<path d="M328.858 977.434C329.632 977.641 329.576 984.027 329.398 984.69C329.22 985.354 328.685 987.345 326.363 986.723C324.04 986.102 324.575 984.112 324.753 983.448C324.932 982.785 328.084 977.227 328.858 977.434Z" fill="#FFC916"/>
<path d="M345.259 936.905C345.827 937.468 351.317 934.201 351.801 933.713C352.285 933.225 353.736 931.76 352.032 930.069C350.328 928.379 348.877 929.843 348.393 930.332C347.909 930.82 344.691 936.341 345.259 936.905Z" fill="#FFC916"/>
<path d="M327.707 935.085C328.351 934.606 325.957 928.689 325.548 928.138C325.139 927.587 323.912 925.934 321.981 927.37C320.051 928.807 321.278 930.46 321.687 931.011C322.096 931.562 327.064 935.564 327.707 935.085Z" fill="#FFC916"/>
<path d="M338.699 934.798C339.456 935.062 343.013 929.755 343.241 929.106C343.468 928.458 344.149 926.512 341.88 925.72C339.61 924.928 338.929 926.873 338.701 927.521C338.474 928.17 337.943 934.534 338.699 934.798Z" fill="#FFC916"/>
<path d="M333.106 934.427C333.906 934.374 335.104 928.099 335.059 927.414C335.014 926.728 334.881 924.672 332.482 924.832C330.083 924.992 330.217 927.048 330.261 927.733C330.306 928.419 332.307 934.481 333.106 934.427Z" fill="#FFC916"/>
<path d="M353.343 966.812C352.778 967.382 356.032 972.871 356.519 973.354C357.006 973.838 358.467 975.288 360.161 973.578C361.855 971.868 360.394 970.419 359.907 969.935C359.42 969.452 353.907 966.242 353.343 966.812Z" fill="#FFC916"/>
<path d="M355.176 949.237C355.653 949.88 361.569 947.473 362.121 947.063C362.672 946.652 364.326 945.422 362.895 943.494C361.464 941.566 359.81 942.797 359.259 943.207C358.707 943.617 354.699 948.594 355.176 949.237Z" fill="#FFC916"/>
<path d="M355.45 960.242C355.185 960.998 360.487 964.547 361.135 964.773C361.783 964.999 363.727 965.678 364.522 963.41C365.316 961.142 363.372 960.463 362.724 960.237C362.076 960.011 355.714 959.486 355.45 960.242Z" fill="#FFC916"/>
<path d="M355.827 954.642C355.879 955.441 362.15 956.628 362.835 956.583C363.52 956.537 365.575 956.4 365.419 954.002C365.263 951.604 363.208 951.741 362.523 951.787C361.837 951.833 355.775 953.842 355.827 954.642Z" fill="#FFC916"/>
<path d="M180.131 944.899C152.151 956.703 120.851 957.132 95.3288 937.059C65.3454 916.489 63.262 889.39 78.3879 866.889C83.5108 859.268 97.2454 847.193 114.297 833.799C95.6928 829.499 78.2567 822.516 70.0922 811.182C48.3243 780.961 65.2128 755.58 107.507 744.036C130.754 737.69 181.015 747.571 221.57 757.756C221.679 757.684 221.735 757.645 221.737 757.644L282.45 772.439C282.45 772.439 349.689 889.244 335.791 921.832C321.893 954.42 289.871 967.528 250.934 950.922C235.606 944.385 226.498 930.383 221.087 915.807C204.963 929.555 190.109 940.689 180.131 944.899Z" fill="#6AC04D"/>
<path d="M159.741 880.509L152.675 882.489C152.675 882.489 197.116 841.277 203.935 834.756C210.754 828.235 253.534 788.903 253.534 788.903L260.159 787.076C260.159 787.076 215.934 832.063 209.941 838.152C203.948 844.241 159.741 880.509 159.741 880.509Z" fill="#85DB69"/>
<ellipse cx="48.0847" cy="48.0583" rx="48.0847" ry="48.0583" transform="matrix(0.0985408 -0.995133 0.995259 0.0972634 328.254 731.127)" fill="#FF2020"/>
<g filter="url(#filter11_i_202_9418)">
<ellipse cx="40.872" cy="40.8495" rx="40.872" ry="40.8495" transform="matrix(0.0985408 -0.995133 0.995259 0.0972634 336.14 724.651)" fill="#FFA4A4"/>
</g>
<g filter="url(#filter12_i_202_9418)">
<path d="M385.598 688.421L405.669 711.305C405.669 711.305 413.475 705.641 414.896 691.284C416.318 676.928 409.773 669.861 409.773 669.861L385.598 688.421Z" fill="#FF3434"/>
</g>
<g filter="url(#filter13_i_202_9418)">
<path d="M380.352 692.744L398.871 716.897C398.871 716.897 392.994 723.57 377.45 722.05C361.907 720.531 357.451 712.849 357.451 712.849L380.352 692.744Z" fill="#FF3434"/>
</g>
<g filter="url(#filter14_i_202_9418)">
<path d="M381.295 683.157L404.195 663.052C404.195 663.052 399.681 655.968 384.196 653.851C368.712 651.734 362.776 659.004 362.776 659.004L381.295 683.157Z" fill="#FF3434"/>
</g>
<g filter="url(#filter15_i_202_9418)">
<path d="M376.049 687.48L351.874 706.04C351.874 706.04 345.566 696.581 346.751 684.617C347.935 672.653 355.978 664.597 355.978 664.597L376.049 687.48Z" fill="#FF3434"/>
</g>
<path d="M359.298 694.966C359.74 695.634 355.469 700.388 354.896 700.767C354.324 701.147 352.606 702.287 351.281 700.284C349.956 698.282 351.674 697.142 352.247 696.762C352.819 696.382 358.856 694.299 359.298 694.966Z" fill="#FFC916"/>
<path d="M360.936 677.372C360.341 677.911 355.01 674.407 354.55 673.898C354.09 673.389 352.709 671.863 354.493 670.247C356.276 668.631 357.657 670.158 358.117 670.667C358.577 671.176 361.53 676.834 360.936 677.372Z" fill="#FFC916"/>
<path d="M358.515 688.113C358.626 688.907 352.73 691.362 352.05 691.459C351.37 691.556 349.331 691.845 348.996 689.466C348.662 687.086 350.702 686.797 351.382 686.7C352.062 686.603 358.403 687.32 358.515 688.113Z" fill="#FFC916"/>
<path d="M359.242 682.547C359.034 683.321 352.65 683.272 351.987 683.095C351.324 682.917 349.334 682.385 349.958 680.064C350.582 677.743 352.571 678.275 353.234 678.453C353.897 678.63 359.45 681.773 359.242 682.547Z" fill="#FFC916"/>
<path d="M387.626 709.477C388.294 709.033 393.039 713.298 393.417 713.871C393.796 714.443 394.932 716.16 392.927 717.49C390.922 718.82 389.786 717.103 389.408 716.531C389.029 715.958 386.958 709.92 387.626 709.477Z" fill="#FFC916"/>
<path d="M370.055 707.853C370.592 708.447 367.081 713.786 366.571 714.248C366.062 714.709 364.534 716.094 362.923 714.313C361.313 712.532 362.842 711.148 363.351 710.687C363.86 710.225 369.518 707.259 370.055 707.853Z" fill="#FFC916"/>
<path d="M380.78 710.268C381.574 710.155 384.02 716.051 384.116 716.731C384.211 717.411 384.498 719.451 382.118 719.789C379.737 720.128 379.451 718.087 379.355 717.407C379.26 716.727 379.987 710.381 380.78 710.268Z" fill="#FFC916"/>
<path d="M375.222 709.548C375.996 709.755 375.939 716.14 375.761 716.804C375.583 717.467 375.048 719.458 372.726 718.837C370.404 718.216 370.938 716.225 371.117 715.562C371.295 714.898 374.448 709.341 375.222 709.548Z" fill="#FFC916"/>
<path d="M391.622 669.018C392.19 669.582 397.681 666.315 398.164 665.827C398.648 665.338 400.1 663.874 398.396 662.183C396.692 660.492 395.24 661.957 394.757 662.445C394.273 662.933 391.054 668.455 391.622 669.018Z" fill="#FFC916"/>
<path d="M374.071 667.198C374.714 666.72 372.32 660.803 371.911 660.252C371.502 659.701 370.275 658.048 368.345 659.484C366.414 660.92 367.641 662.573 368.05 663.124C368.459 663.675 373.427 667.677 374.071 667.198Z" fill="#FFC916"/>
<path d="M385.063 666.912C385.819 667.176 389.377 661.868 389.604 661.22C389.831 660.571 390.513 658.626 388.243 657.833C385.974 657.041 385.292 658.986 385.065 659.635C384.838 660.283 384.306 666.647 385.063 666.912Z" fill="#FFC916"/>
<path d="M379.47 666.541C380.269 666.487 381.467 660.212 381.422 659.527C381.378 658.842 381.244 656.786 378.845 656.945C376.446 657.105 376.58 659.162 376.625 659.847C376.669 660.532 378.67 666.594 379.47 666.541Z" fill="#FFC916"/>
<path d="M399.706 698.925C399.141 699.495 402.395 704.985 402.882 705.468C403.369 705.951 404.83 707.401 406.524 705.691C408.218 703.982 406.757 702.532 406.27 702.049C405.783 701.565 400.271 698.356 399.706 698.925Z" fill="#FFC916"/>
<path d="M401.539 681.35C402.016 681.993 407.933 679.586 408.484 679.176C409.035 678.766 410.69 677.535 409.259 675.607C407.828 673.679 406.173 674.91 405.622 675.32C405.071 675.73 401.062 680.708 401.539 681.35Z" fill="#FFC916"/>
<path d="M401.813 692.356C401.548 693.112 406.85 696.66 407.498 696.887C408.146 697.113 410.091 697.792 410.885 695.524C411.68 693.255 409.736 692.577 409.088 692.35C408.44 692.124 402.078 691.6 401.813 692.356Z" fill="#FFC916"/>
<path d="M402.191 686.755C402.243 687.554 408.513 688.742 409.198 688.696C409.883 688.651 411.939 688.514 411.782 686.116C411.626 683.718 409.571 683.855 408.886 683.9C408.201 683.946 402.139 685.956 402.191 686.755Z" fill="#FFC916"/>
<ellipse cx="40.3419" cy="56.0263" rx="40.3419" ry="56.0263" transform="matrix(0.203357 -0.979105 0.979303 0.202402 110.411 700.826)" fill="#00720D"/>
<ellipse cx="35.0975" cy="48.7711" rx="35.0975" ry="48.7711" transform="matrix(0.203357 -0.979105 0.979303 0.202402 125.767 698.234)" fill="#C9FFD0"/>
<g filter="url(#filter16_f_202_9418)">
<ellipse cx="16.9436" cy="23.3779" rx="16.9436" ry="23.3779" transform="matrix(0.203357 -0.979105 0.979303 0.202402 153.85 685.913)" fill="#B7FFBF"/>
</g>
<path d="M158.178 678.727C158.636 679.846 150.922 685.638 149.963 686.033C149.004 686.428 146.127 687.613 144.751 684.256C143.375 680.899 146.252 679.714 147.211 679.32C148.17 678.925 157.719 677.608 158.178 678.727Z" fill="#A2FFAC"/>
<path d="M171.941 685.92C173.053 686.394 171.609 695.931 171.201 696.886C170.794 697.84 169.571 700.703 166.237 699.282C162.903 697.861 164.125 694.998 164.533 694.043C164.94 693.089 170.83 685.447 171.941 685.92Z" fill="#A2FFAC"/>
<path d="M191.235 688.155C192.441 688.06 195.569 697.179 195.649 698.213C195.729 699.247 195.968 702.35 192.35 702.634C188.732 702.917 188.493 699.815 188.413 698.781C188.333 697.746 190.029 688.249 191.235 688.155Z" fill="#A2FFAC"/>
<path d="M207.567 684.195C208.29 683.223 217.215 686.849 218.046 687.468C218.877 688.087 221.37 689.944 219.2 692.859C217.031 695.774 214.538 693.917 213.707 693.298C212.876 692.679 206.844 685.166 207.567 684.195Z" fill="#A2FFAC"/>
<path d="M161.79 661.308C162.657 660.462 157.886 652.089 157.164 651.346C156.441 650.604 154.273 648.376 151.672 650.912C149.071 653.449 151.239 655.676 151.962 656.419C152.685 657.161 160.923 662.153 161.79 661.308Z" fill="#A2FFAC"/>
<path d="M153.439 668.107C153.685 666.923 145.043 662.665 144.028 662.455C143.013 662.245 139.968 661.616 139.23 665.171C138.491 668.725 141.536 669.354 142.551 669.564C143.566 669.774 153.193 669.292 153.439 668.107Z" fill="#A2FFAC"/>
<path d="M177.282 660.169C178.492 660.174 180.967 650.85 180.974 649.812C180.98 648.775 180.999 645.663 177.37 645.646C173.741 645.629 173.722 648.741 173.716 649.778C173.71 650.816 176.073 660.163 177.282 660.169Z" fill="#A2FFAC"/>
<path d="M195.876 665.774C196.944 666.339 203.446 659.209 203.932 658.291C204.417 657.374 205.872 654.621 202.667 652.927C199.462 651.234 198.007 653.987 197.522 654.904C197.037 655.822 194.808 665.21 195.876 665.774Z" fill="#A2FFAC"/>
<path d="M209.289 675.889C209.565 677.066 219.2 677.275 220.209 677.036C221.218 676.798 224.246 676.082 223.416 672.549C222.587 669.016 219.56 669.732 218.551 669.97C217.542 670.209 209.012 674.711 209.289 675.889Z" fill="#A2FFAC"/>
<path d="M228.121 838.592C203.05 842.69 179.641 837.822 168.017 818.725C153.315 798.681 161.572 778.438 180.893 764.392C187.445 759.63 201.988 753.008 219.466 745.963C207.253 739.74 196.88 731.74 194.931 722.066C189.728 696.24 211.424 680.335 246.943 678.794C266.469 677.947 300.151 693.491 326.524 707.659C326.613 707.63 326.66 707.614 326.665 707.612L366.327 728.493C366.327 728.493 373.946 825.509 351.86 847.199C329.774 868.889 301.294 873.262 278.432 854.632C269.44 847.306 267.745 835.519 268.997 823.913C252.075 831.382 237.039 837.134 228.121 838.592Z" fill="#AEEE98"/>
<path d="M236.281 787.825L230.324 788.12C230.324 788.12 278.19 765.103 285.605 761.426C293.021 757.748 338.975 735.842 338.975 735.842L344.549 735.587C344.549 735.587 295.478 761.419 288.831 764.914C282.184 768.408 236.281 787.825 236.281 787.825Z" fill="#85DB69"/>
<ellipse cx="48.0847" cy="48.0583" rx="48.0847" ry="48.0583" transform="matrix(0.0985408 -0.995133 0.995259 0.0972634 49.241 852.721)" fill="#FF2020"/>
<g filter="url(#filter17_i_202_9418)">
<ellipse cx="40.872" cy="40.8495" rx="40.872" ry="40.8495" transform="matrix(0.0985408 -0.995133 0.995259 0.0972634 57.1262 846.244)" fill="#FFA4A4"/>
</g>
<g filter="url(#filter18_i_202_9418)">
<path d="M106.584 810.014L126.656 832.898C126.656 832.898 134.461 827.234 135.883 812.878C137.304 798.522 130.759 791.455 130.759 791.455L106.584 810.014Z" fill="#FF3434"/>
</g>
<g filter="url(#filter19_i_202_9418)">
<path d="M101.339 814.338L119.857 838.491C119.857 838.491 113.981 845.163 98.4369 843.644C82.8932 842.125 78.438 834.443 78.438 834.443L101.339 814.338Z" fill="#FF3434"/>
</g>
<g filter="url(#filter20_i_202_9418)">
<path d="M102.281 804.75L125.181 784.645C125.181 784.645 120.667 777.562 105.183 775.444C89.698 773.327 83.7622 780.597 83.7622 780.597L102.281 804.75Z" fill="#FF3434"/>
</g>
<g filter="url(#filter21_i_202_9418)">
<path d="M97.0353 809.074L72.86 827.633C72.86 827.633 66.5521 818.174 67.7367 806.211C68.9213 794.247 76.9637 786.19 76.9637 786.19L97.0353 809.074Z" fill="#FF3434"/>
</g>
<path d="M80.2845 816.56C80.7261 817.228 76.4555 821.981 75.8829 822.361C75.3102 822.741 73.5923 823.881 72.2675 821.878C70.9427 819.875 72.6606 818.736 73.2333 818.356C73.8059 817.976 79.8429 815.892 80.2845 816.56Z" fill="#FFC916"/>
<path d="M81.9223 798.966C81.3277 799.504 75.9967 796.001 75.5365 795.492C75.0763 794.983 73.6956 793.456 75.4792 791.841C77.2627 790.225 78.6434 791.752 79.1036 792.261C79.5638 792.77 82.5168 798.427 81.9223 798.966Z" fill="#FFC916"/>
<path d="M79.5014 809.707C79.6128 810.5 73.7167 812.956 73.0368 813.053C72.3569 813.149 70.3173 813.439 69.9831 811.06C69.6489 808.68 71.6885 808.39 72.3684 808.294C73.0483 808.197 79.39 808.914 79.5014 809.707Z" fill="#FFC916"/>
<path d="M80.2282 804.141C80.0204 804.914 73.6366 804.866 72.9735 804.688C72.3104 804.511 70.321 803.979 70.9446 801.658C71.5682 799.337 73.5576 799.869 74.2207 800.046C74.8838 800.224 80.4361 803.367 80.2282 804.141Z" fill="#FFC916"/>
<path d="M108.613 831.07C109.281 830.627 114.025 834.892 114.404 835.464C114.783 836.037 115.919 837.754 113.914 839.084C111.909 840.414 110.773 838.697 110.394 838.124C110.015 837.552 107.944 831.514 108.613 831.07Z" fill="#FFC916"/>
<path d="M91.0415 829.447C91.5783 830.04 88.0672 835.38 87.5578 835.841C87.0484 836.303 85.5202 837.687 83.9101 835.907C82.2999 834.126 83.8281 832.742 84.3375 832.28C84.8469 831.819 90.5048 828.853 91.0415 829.447Z" fill="#FFC916"/>
<path d="M101.767 831.862C102.56 831.749 105.007 837.644 105.102 838.324C105.198 839.004 105.484 841.045 103.104 841.383C100.723 841.721 100.437 839.681 100.341 839.001C100.246 838.321 100.973 831.974 101.767 831.862Z" fill="#FFC916"/>
<path d="M96.2082 831.141C96.9822 831.348 96.926 837.734 96.7477 838.397C96.5694 839.061 96.0346 841.052 93.7124 840.431C91.3902 839.809 91.925 837.819 92.1033 837.155C92.2816 836.492 95.4341 830.934 96.2082 831.141Z" fill="#FFC916"/>
<path d="M112.609 790.612C113.177 791.175 118.667 787.908 119.151 787.42C119.635 786.932 121.086 785.467 119.382 783.776C117.678 782.086 116.227 783.55 115.743 784.039C115.259 784.527 112.041 790.048 112.609 790.612Z" fill="#FFC916"/>
<path d="M95.0572 788.792C95.7007 788.313 93.3067 782.396 92.8977 781.845C92.4887 781.294 91.2616 779.641 89.3312 781.077C87.4007 782.514 88.6277 784.167 89.0367 784.718C89.4457 785.269 94.4137 789.271 95.0572 788.792Z" fill="#FFC916"/>
<path d="M106.049 788.505C106.806 788.769 110.363 783.462 110.591 782.813C110.818 782.165 111.499 780.22 109.23 779.427C106.96 778.635 106.279 780.58 106.052 781.228C105.824 781.877 105.293 788.241 106.049 788.505Z" fill="#FFC916"/>
<path d="M100.456 788.134C101.256 788.081 102.454 781.806 102.409 781.121C102.364 780.435 102.23 778.379 99.8317 778.539C97.4329 778.699 97.5667 780.755 97.6113 781.441C97.6559 782.126 99.6566 788.188 100.456 788.134Z" fill="#FFC916"/>
<path d="M120.692 820.519C120.128 821.089 123.382 826.578 123.869 827.061C124.356 827.545 125.817 828.995 127.511 827.285C129.205 825.575 127.744 824.126 127.257 823.642C126.77 823.159 121.257 819.949 120.692 820.519Z" fill="#FFC916"/>
<path d="M122.526 802.944C123.003 803.587 128.919 801.18 129.471 800.77C130.022 800.36 131.676 799.129 130.245 797.201C128.814 795.273 127.16 796.504 126.609 796.914C126.057 797.324 122.049 802.301 122.526 802.944Z" fill="#FFC916"/>
<path d="M122.799 813.949C122.535 814.705 127.837 818.254 128.485 818.48C129.133 818.706 131.077 819.385 131.872 817.117C132.666 814.849 130.722 814.17 130.074 813.944C129.426 813.718 123.064 813.193 122.799 813.949Z" fill="#FFC916"/>
<path d="M123.177 808.349C123.229 809.148 129.499 810.336 130.184 810.29C130.869 810.244 132.925 810.107 132.769 807.709C132.612 805.311 130.557 805.448 129.872 805.494C129.187 805.54 123.125 807.549 123.177 808.349Z" fill="#FFC916"/>
<ellipse cx="40.3453" cy="56.0226" rx="40.3453" ry="56.0226" transform="matrix(-0.529891 0.848066 -0.847636 -0.530578 544.035 820.74)" fill="#00720D"/>
<ellipse cx="35.1004" cy="48.7678" rx="35.1004" ry="48.7678" transform="matrix(-0.529891 0.848066 -0.847636 -0.530578 528.744 817.833)" fill="#C9FFD0"/>
<g filter="url(#filter22_f_202_9418)">
<ellipse cx="16.945" cy="23.3763" rx="16.945" ry="23.3763" transform="matrix(-0.529891 0.848066 -0.847636 -0.530578 498.156 819.629)" fill="#B7FFBF"/>
</g>
<path d="M491.619 824.863C491.577 823.653 500.814 820.9 501.85 820.862C502.885 820.825 505.992 820.714 506.118 824.344C506.245 827.975 503.138 828.086 502.102 828.123C501.066 828.16 491.662 826.073 491.619 824.863Z" fill="#A2FFAC"/>
<path d="M481.212 813.333C480.334 812.501 484.991 804.052 485.704 803.298C486.416 802.544 488.554 800.282 491.188 802.777C493.822 805.273 491.684 807.535 490.972 808.289C490.259 809.043 482.09 814.165 481.212 813.333Z" fill="#A2FFAC"/>
<path d="M463.9 804.532C462.738 804.202 462.968 794.556 463.252 793.558C463.535 792.559 464.387 789.564 467.874 790.556C471.361 791.547 470.51 794.542 470.226 795.54C469.942 796.539 465.062 804.863 463.9 804.532Z" fill="#A2FFAC"/>
<path d="M447.216 802.571C446.202 803.231 439.095 796.723 438.531 795.853C437.967 794.983 436.274 792.374 439.315 790.394C442.357 788.414 444.05 791.023 444.614 791.893C445.179 792.763 448.229 801.911 447.216 802.571Z" fill="#A2FFAC"/>
<path d="M482.189 839.948C481.084 840.44 482.654 849.957 483.074 850.905C483.494 851.854 484.754 854.698 488.069 853.223C491.384 851.749 490.124 848.904 489.704 847.956C489.284 847.008 483.294 839.457 482.189 839.948Z" fill="#A2FFAC"/>
<path d="M492.377 836.473C491.736 837.499 498.359 844.5 499.238 845.05C500.116 845.6 502.752 847.25 504.676 844.171C506.6 841.092 503.964 839.442 503.086 838.892C502.207 838.342 493.019 835.446 492.377 836.473Z" fill="#A2FFAC"/>
<path d="M467.271 835.632C466.14 835.207 460.589 843.098 460.224 844.07C459.858 845.041 458.762 847.955 462.154 849.233C465.547 850.51 466.643 847.596 467.009 846.624C467.374 845.653 468.401 836.058 467.271 835.632Z" fill="#A2FFAC"/>
<path d="M451.783 823.914C450.977 823.012 442.413 827.439 441.64 828.131C440.868 828.824 438.55 830.901 440.968 833.606C443.386 836.312 445.704 834.235 446.477 833.543C447.249 832.85 452.59 824.816 451.783 823.914Z" fill="#A2FFAC"/>
<path d="M442.719 809.763C442.868 808.561 433.911 805.014 432.883 804.887C431.855 804.76 428.77 804.379 428.322 807.985C427.874 811.59 430.959 811.971 431.988 812.098C433.016 812.225 442.569 810.965 442.719 809.763Z" fill="#A2FFAC"/>
<ellipse cx="40.3157" cy="56.0783" rx="40.3157" ry="56.0783" transform="matrix(-0.988397 -0.151895 0.153019 -0.988223 280.04 948.576)" fill="#00720D"/>
<ellipse cx="35.0747" cy="48.8164" rx="35.0747" ry="48.8164" transform="matrix(-0.988397 -0.151895 0.15302 -0.988223 276.682 933.364)" fill="#C9FFD0"/>
<g filter="url(#filter23_f_202_9418)">
<ellipse cx="16.9326" cy="23.3996" rx="16.9326" ry="23.3996" transform="matrix(-0.988397 -0.151895 0.15302 -0.988223 262.977 905.951)" fill="#B7FFBF"/>
</g>
<path d="M255.586 902.02C256.68 901.502 262.845 908.907 263.287 909.845C263.729 910.783 265.055 913.596 261.772 915.149C258.489 916.701 257.164 913.888 256.722 912.95C256.28 912.013 254.492 902.537 255.586 902.02Z" fill="#A2FFAC"/>
<path d="M262.068 887.883C262.486 886.747 272.078 887.688 273.051 888.045C274.024 888.402 276.942 889.473 275.69 892.88C274.437 896.287 271.518 895.216 270.545 894.859C269.572 894.502 261.651 889.019 262.068 887.883Z" fill="#A2FFAC"/>
<path d="M263.331 868.476C263.177 867.276 272.121 863.67 273.149 863.536C274.177 863.402 277.262 863 277.725 866.6C278.189 870.199 275.104 870.601 274.076 870.735C273.048 870.869 263.486 869.675 263.331 868.476Z" fill="#A2FFAC"/>
<path d="M258.562 852.353C257.557 851.682 260.734 842.571 261.31 841.708C261.886 840.844 263.615 838.255 266.63 840.268C269.644 842.281 267.915 844.87 267.339 845.734C266.763 846.597 259.567 853.024 258.562 852.353Z" fill="#A2FFAC"/>
<path d="M238.03 899.316C237.143 898.494 229.026 903.706 228.321 904.467C227.616 905.229 225.501 907.514 228.16 909.978C230.818 912.443 232.933 910.158 233.638 909.397C234.343 908.635 238.916 900.138 238.03 899.316Z" fill="#A2FFAC"/>
<path d="M245.23 907.314C244.035 907.13 240.215 915.99 240.056 917.015C239.897 918.04 239.421 921.116 243.008 921.668C246.594 922.219 247.071 919.143 247.229 918.118C247.388 917.092 246.426 907.497 245.23 907.314Z" fill="#A2FFAC"/>
<path d="M236.117 883.887C236.062 882.678 226.633 880.695 225.597 880.744C224.562 880.792 221.455 880.937 221.619 884.563C221.783 888.188 224.889 888.044 225.925 887.995C226.96 887.947 236.171 885.095 236.117 883.887Z" fill="#A2FFAC"/>
<path d="M240.774 865.001C241.285 863.902 233.849 857.779 232.91 857.342C231.97 856.906 229.151 855.597 227.619 858.893C226.087 862.189 228.906 863.498 229.845 863.934C230.785 864.37 240.263 866.1 240.774 865.001Z" fill="#A2FFAC"/>
<path d="M250.192 851.063C251.354 850.725 251.082 841.084 250.794 840.088C250.506 839.092 249.641 836.104 246.155 837.119C242.669 838.134 243.534 841.122 243.823 842.118C244.111 843.114 249.03 851.402 250.192 851.063Z" fill="#A2FFAC"/>
<path d="M350.541 697.124C355.564 730.822 335.876 761.718 306.567 766.132C277.259 770.547 249.429 746.808 244.407 713.11C239.384 679.412 256.708 632.651 286.016 628.237C315.324 623.822 345.519 663.426 350.541 697.124Z" fill="white"/>
<ellipse cx="35.1592" cy="37.0125" rx="35.1592" ry="37.0125" transform="matrix(0.988846 -0.148941 0.147406 0.989076 258.162 679.85)" fill="#FFC916"/>
<ellipse cx="731.096" cy="951.907" rx="35.5" ry="49" transform="rotate(60.7713 731.096 951.907)" fill="#00720D"/>
<ellipse cx="725.732" cy="955.315" rx="30.885" ry="42.6547" transform="rotate(60.7713 725.732 955.315)" fill="#C9FFD0"/>
<g filter="url(#filter24_f_202_9418)">
<ellipse cx="725.866" cy="954.833" rx="14.91" ry="20.446" transform="rotate(60.7713 725.866 954.833)" fill="#B7FFBF"/>
</g>
<path d="M737.714 939.095C736.767 938.614 738.526 930.337 738.932 929.525C739.338 928.712 740.555 926.274 743.398 927.717C746.241 929.16 745.023 931.598 744.617 932.411C744.211 933.224 738.662 939.576 737.714 939.095Z" fill="#A2FFAC"/>
<path d="M724.484 942.21C723.476 942.533 718.936 935.362 718.655 934.494C718.375 933.625 717.533 931.02 720.555 930.053C723.578 929.085 724.419 931.69 724.7 932.558C724.981 933.427 725.491 941.887 724.484 942.21Z" fill="#A2FFAC"/>
<path d="M710.455 951.794C709.713 952.549 702.395 948.28 701.747 947.637C701.099 946.995 699.154 945.069 701.38 942.806C703.605 940.542 705.55 942.468 706.198 943.11C706.846 943.752 711.197 951.04 710.455 951.794Z" fill="#A2FFAC"/>
<path d="M701.948 963.8C702.03 964.86 694.046 967.567 693.141 967.632C692.236 967.697 689.52 967.892 689.274 964.711C689.028 961.529 691.744 961.334 692.649 961.269C693.554 961.204 701.866 962.739 701.948 963.8Z" fill="#A2FFAC"/>
<path d="M745.356 952.752C745.27 953.811 753.244 956.642 754.149 956.721C755.054 956.8 757.769 957.038 758.026 953.86C758.284 950.682 755.569 950.445 754.664 950.366C753.758 950.287 745.442 951.693 745.356 952.752Z" fill="#A2FFAC"/>
<path d="M746.959 943.438C747.479 944.367 755.638 942.242 756.429 941.8C757.22 941.357 759.593 940.029 758.033 937.241C756.473 934.453 754.1 935.78 753.309 936.223C752.518 936.666 746.439 942.508 746.959 943.438Z" fill="#A2FFAC"/>
<path d="M735.78 962.398C734.978 963.088 738.713 970.709 739.307 971.402C739.9 972.096 741.68 974.176 744.086 972.106C746.491 970.037 744.712 967.956 744.118 967.263C743.525 966.569 736.582 961.708 735.78 962.398Z" fill="#A2FFAC"/>
<path d="M720.272 969.341C719.241 969.578 719.052 978.048 719.26 978.936C719.468 979.825 720.092 982.49 723.186 981.777C726.279 981.065 725.655 978.4 725.447 977.511C725.239 976.623 721.303 969.103 720.272 969.341Z" fill="#A2FFAC"/>
<path d="M705.591 970.311C704.73 969.686 698.247 975.074 697.718 975.811C697.189 976.549 695.601 978.761 698.184 980.635C700.767 982.509 702.354 980.297 702.883 979.559C703.412 978.822 706.452 970.935 705.591 970.311Z" fill="#A2FFAC"/>
<ellipse cx="186.703" cy="385.961" rx="29.5011" ry="40.7198" transform="rotate(-29.433 186.703 385.961)" fill="#00720D"/>
<ellipse cx="189.552" cy="390.409" rx="25.666" ry="35.4468" transform="rotate(-29.433 189.552 390.409)" fill="#C9FFD0"/>
<g filter="url(#filter25_f_202_9418)">
<ellipse cx="189.151" cy="390.298" rx="12.3905" ry="16.991" transform="rotate(-29.433 189.151 390.298)" fill="#B7FFBF"/>
</g>
<path d="M176.037 380.499C175.64 381.288 168.757 379.851 168.08 379.516C167.404 379.181 165.374 378.176 166.565 375.809C167.756 373.443 169.786 374.448 170.462 374.783C171.139 375.118 176.434 379.71 176.037 380.499Z" fill="#A2FFAC"/>
<path d="M178.665 391.484C178.936 392.321 172.991 396.115 172.27 396.351C171.549 396.587 169.387 397.294 168.574 394.785C167.76 392.276 169.923 391.569 170.644 391.333C171.365 391.098 178.394 390.648 178.665 391.484Z" fill="#A2FFAC"/>
<path d="M186.671 403.115C187.301 403.729 183.774 409.822 183.243 410.363C182.711 410.903 181.116 412.525 179.228 410.682C177.341 408.84 178.936 407.218 179.467 406.677C179.999 406.137 186.042 402.5 186.671 403.115Z" fill="#A2FFAC"/>
<path d="M196.673 410.148C197.554 410.077 199.827 416.703 199.884 417.456C199.94 418.208 200.111 420.464 197.468 420.678C194.824 420.892 194.654 418.635 194.597 417.883C194.541 417.131 195.792 410.22 196.673 410.148Z" fill="#A2FFAC"/>
<path d="M187.363 374.108C188.244 374.176 190.573 367.542 190.636 366.789C190.699 366.037 190.888 363.78 188.247 363.576C185.605 363.372 185.416 365.629 185.353 366.381C185.29 367.133 186.483 374.04 187.363 374.108Z" fill="#A2FFAC"/>
<path d="M179.619 372.804C180.389 372.369 178.599 365.595 178.229 364.939C177.859 364.283 176.749 362.314 174.436 363.619C172.124 364.924 173.234 366.892 173.604 367.548C173.975 368.204 178.848 373.239 179.619 372.804Z" fill="#A2FFAC"/>
<path d="M195.408 382.037C195.984 382.702 202.306 379.575 202.88 379.08C203.455 378.585 205.178 377.099 203.451 375.106C201.724 373.113 200 374.598 199.426 375.094C198.851 375.589 194.832 381.373 195.408 382.037Z" fill="#A2FFAC"/>
<path d="M201.223 394.904C201.424 395.76 208.463 395.892 209.2 395.717C209.938 395.541 212.151 395.014 211.549 392.446C210.948 389.877 208.735 390.404 207.998 390.58C207.26 390.755 201.023 394.048 201.223 394.904Z" fill="#A2FFAC"/>
<path d="M202.073 407.102C201.556 407.819 206.053 413.191 206.667 413.628C207.282 414.066 209.125 415.378 210.674 413.226C212.224 411.074 210.381 409.762 209.766 409.324C209.152 408.887 202.589 406.384 202.073 407.102Z" fill="#A2FFAC"/>
</g>
<defs>
<filter id="filter0_i_202_9418" x="163.832" y="545.812" width="81.7158" height="81.7393" filterUnits="userSpaceOnUse" color-interpolation-filters="sRGB">
<feFlood flood-opacity="0" result="BackgroundImageFix"/>
<feBlend mode="normal" in="SourceGraphic" in2="BackgroundImageFix" result="shape"/>
<feColorMatrix in="SourceAlpha" type="matrix" values="0 0 0 0 0 0 0 0 0 0 0 0 0 0 0 0 0 0 127 0" result="hardAlpha"/>
<feMorphology radius="3" operator="erode" in="SourceAlpha" result="effect1_innerShadow_202_9418"/>
<feOffset/>
<feGaussianBlur stdDeviation="6.7"/>
<feComposite in2="hardAlpha" operator="arithmetic" k2="-1" k3="1"/>
<feColorMatrix type="matrix" values="0 0 0 0 1 0 0 0 0 0.483333 0 0 0 0 0.483333 0 0 0 1 0"/>
<feBlend mode="normal" in2="shape" result="effect1_innerShadow_202_9418"/>
</filter>
<filter id="filter1_i_202_9418" x="209.464" y="568.593" width="29.5007" height="41.4431" filterUnits="userSpaceOnUse" color-interpolation-filters="sRGB">
<feFlood flood-opacity="0" result="BackgroundImageFix"/>
<feBlend mode="normal" in="SourceGraphic" in2="BackgroundImageFix" result="shape"/>
<feColorMatrix in="SourceAlpha" type="matrix" values="0 0 0 0 0 0 0 0 0 0 0 0 0 0 0 0 0 0 127 0" result="hardAlpha"/>
<feOffset/>
<feGaussianBlur stdDeviation="2"/>
<feComposite in2="hardAlpha" operator="arithmetic" k2="-1" k3="1"/>
<feColorMatrix type="matrix" values="0 0 0 0 1 0 0 0 0 0 0 0 0 0 0 0 0 0 1 0"/>
<feBlend mode="normal" in2="shape" result="effect1_innerShadow_202_9418"/>
</filter>
<filter id="filter2_i_202_9418" x="181.318" y="591.476" width="41.4192" height="29.531" filterUnits="userSpaceOnUse" color-interpolation-filters="sRGB">
<feFlood flood-opacity="0" result="BackgroundImageFix"/>
<feBlend mode="normal" in="SourceGraphic" in2="BackgroundImageFix" result="shape"/>
<feColorMatrix in="SourceAlpha" type="matrix" values="0 0 0 0 0 0 0 0 0 0 0 0 0 0 0 0 0 0 127 0" result="hardAlpha"/>
<feOffset/>
<feGaussianBlur stdDeviation="2"/>
<feComposite in2="hardAlpha" operator="arithmetic" k2="-1" k3="1"/>
<feColorMatrix type="matrix" values="0 0 0 0 1 0 0 0 0 0 0 0 0 0 0 0 0 0 1 0"/>
<feBlend mode="normal" in2="shape" result="effect1_innerShadow_202_9418"/>
</filter>
<filter id="filter3_i_202_9418" x="186.642" y="552.195" width="41.4192" height="29.6925" filterUnits="userSpaceOnUse" color-interpolation-filters="sRGB">
<feFlood flood-opacity="0" result="BackgroundImageFix"/>
<feBlend mode="normal" in="SourceGraphic" in2="BackgroundImageFix" result="shape"/>
<feColorMatrix in="SourceAlpha" type="matrix" values="0 0 0 0 0 0 0 0 0 0 0 0 0 0 0 0 0 0 127 0" result="hardAlpha"/>
<feOffset/>
<feGaussianBlur stdDeviation="2"/>
<feComposite in2="hardAlpha" operator="arithmetic" k2="-1" k3="1"/>
<feColorMatrix type="matrix" values="0 0 0 0 1 0 0 0 0 0 0 0 0 0 0 0 0 0 1 0"/>
<feBlend mode="normal" in2="shape" result="effect1_innerShadow_202_9418"/>
</filter>
<filter id="filter4_i_202_9418" x="170.469" y="563.328" width="29.4468" height="41.443" filterUnits="userSpaceOnUse" color-interpolation-filters="sRGB">
<feFlood flood-opacity="0" result="BackgroundImageFix"/>
<feBlend mode="normal" in="SourceGraphic" in2="BackgroundImageFix" result="shape"/>
<feColorMatrix in="SourceAlpha" type="matrix" values="0 0 0 0 0 0 0 0 0 0 0 0 0 0 0 0 0 0 127 0" result="hardAlpha"/>
<feOffset/>
<feGaussianBlur stdDeviation="2"/>
<feComposite in2="hardAlpha" operator="arithmetic" k2="-1" k3="1"/>
<feColorMatrix type="matrix" values="0 0 0 0 1 0 0 0 0 0 0 0 0 0 0 0 0 0 1 0"/>
<feBlend mode="normal" in2="shape" result="effect1_innerShadow_202_9418"/>
</filter>
<filter id="filter5_f_202_9418" x="315.311" y="532.077" width="45.0762" height="52.3165" filterUnits="userSpaceOnUse" color-interpolation-filters="sRGB">
<feFlood flood-opacity="0" result="BackgroundImageFix"/>
<feBlend mode="normal" in="SourceGraphic" in2="BackgroundImageFix" result="shape"/>
<feGaussianBlur stdDeviation="2" result="effect1_foregroundBlur_202_9418"/>
</filter>
<filter id="filter6_i_202_9418" x="293.603" y="914.968" width="81.7158" height="81.7392" filterUnits="userSpaceOnUse" color-interpolation-filters="sRGB">
<feFlood flood-opacity="0" result="BackgroundImageFix"/>
<feBlend mode="normal" in="SourceGraphic" in2="BackgroundImageFix" result="shape"/>
<feColorMatrix in="SourceAlpha" type="matrix" values="0 0 0 0 0 0 0 0 0 0 0 0 0 0 0 0 0 0 127 0" result="hardAlpha"/>
<feMorphology radius="3" operator="erode" in="SourceAlpha" result="effect1_innerShadow_202_9418"/>
<feOffset/>
<feGaussianBlur stdDeviation="6.7"/>
<feComposite in2="hardAlpha" operator="arithmetic" k2="-1" k3="1"/>
<feColorMatrix type="matrix" values="0 0 0 0 1 0 0 0 0 0.483333 0 0 0 0 0.483333 0 0 0 1 0"/>
<feBlend mode="normal" in2="shape" result="effect1_innerShadow_202_9418"/>
</filter>
<filter id="filter7_i_202_9418" x="339.234" y="937.748" width="29.5005" height="41.443" filterUnits="userSpaceOnUse" color-interpolation-filters="sRGB">
<feFlood flood-opacity="0" result="BackgroundImageFix"/>
<feBlend mode="normal" in="SourceGraphic" in2="BackgroundImageFix" result="shape"/>
<feColorMatrix in="SourceAlpha" type="matrix" values="0 0 0 0 0 0 0 0 0 0 0 0 0 0 0 0 0 0 127 0" result="hardAlpha"/>
<feOffset/>
<feGaussianBlur stdDeviation="2"/>
<feComposite in2="hardAlpha" operator="arithmetic" k2="-1" k3="1"/>
<feColorMatrix type="matrix" values="0 0 0 0 1 0 0 0 0 0 0 0 0 0 0 0 0 0 1 0"/>
<feBlend mode="normal" in2="shape" result="effect1_innerShadow_202_9418"/>
</filter>
<filter id="filter8_i_202_9418" x="311.088" y="960.631" width="41.4194" height="29.5309" filterUnits="userSpaceOnUse" color-interpolation-filters="sRGB">
<feFlood flood-opacity="0" result="BackgroundImageFix"/>
<feBlend mode="normal" in="SourceGraphic" in2="BackgroundImageFix" result="shape"/>
<feColorMatrix in="SourceAlpha" type="matrix" values="0 0 0 0 0 0 0 0 0 0 0 0 0 0 0 0 0 0 127 0" result="hardAlpha"/>
<feOffset/>
<feGaussianBlur stdDeviation="2"/>
<feComposite in2="hardAlpha" operator="arithmetic" k2="-1" k3="1"/>
<feColorMatrix type="matrix" values="0 0 0 0 1 0 0 0 0 0 0 0 0 0 0 0 0 0 1 0"/>
<feBlend mode="normal" in2="shape" result="effect1_innerShadow_202_9418"/>
</filter>
<filter id="filter9_i_202_9418" x="316.413" y="921.351" width="41.4189" height="29.6926" filterUnits="userSpaceOnUse" color-interpolation-filters="sRGB">
<feFlood flood-opacity="0" result="BackgroundImageFix"/>
<feBlend mode="normal" in="SourceGraphic" in2="BackgroundImageFix" result="shape"/>
<feColorMatrix in="SourceAlpha" type="matrix" values="0 0 0 0 0 0 0 0 0 0 0 0 0 0 0 0 0 0 127 0" result="hardAlpha"/>
<feOffset/>
<feGaussianBlur stdDeviation="2"/>
<feComposite in2="hardAlpha" operator="arithmetic" k2="-1" k3="1"/>
<feColorMatrix type="matrix" values="0 0 0 0 1 0 0 0 0 0 0 0 0 0 0 0 0 0 1 0"/>
<feBlend mode="normal" in2="shape" result="effect1_innerShadow_202_9418"/>
</filter>
<filter id="filter10_i_202_9418" x="300.239" y="932.483" width="29.4468" height="41.4431" filterUnits="userSpaceOnUse" color-interpolation-filters="sRGB">
<feFlood flood-opacity="0" result="BackgroundImageFix"/>
<feBlend mode="normal" in="SourceGraphic" in2="BackgroundImageFix" result="shape"/>
<feColorMatrix in="SourceAlpha" type="matrix" values="0 0 0 0 0 0 0 0 0 0 0 0 0 0 0 0 0 0 127 0" result="hardAlpha"/>
<feOffset/>
<feGaussianBlur stdDeviation="2"/>
<feComposite in2="hardAlpha" operator="arithmetic" k2="-1" k3="1"/>
<feColorMatrix type="matrix" values="0 0 0 0 1 0 0 0 0 0 0 0 0 0 0 0 0 0 1 0"/>
<feBlend mode="normal" in2="shape" result="effect1_innerShadow_202_9418"/>
</filter>
<filter id="filter11_i_202_9418" x="339.966" y="647.081" width="81.7158" height="81.7391" filterUnits="userSpaceOnUse" color-interpolation-filters="sRGB">
<feFlood flood-opacity="0" result="BackgroundImageFix"/>
<feBlend mode="normal" in="SourceGraphic" in2="BackgroundImageFix" result="shape"/>
<feColorMatrix in="SourceAlpha" type="matrix" values="0 0 0 0 0 0 0 0 0 0 0 0 0 0 0 0 0 0 127 0" result="hardAlpha"/>
<feMorphology radius="3" operator="erode" in="SourceAlpha" result="effect1_innerShadow_202_9418"/>
<feOffset/>
<feGaussianBlur stdDeviation="6.7"/>
<feComposite in2="hardAlpha" operator="arithmetic" k2="-1" k3="1"/>
<feColorMatrix type="matrix" values="0 0 0 0 1 0 0 0 0 0.483333 0 0 0 0 0.483333 0 0 0 1 0"/>
<feBlend mode="normal" in2="shape" result="effect1_innerShadow_202_9418"/>
</filter>
<filter id="filter12_i_202_9418" x="385.598" y="669.861" width="29.5005" height="41.4431" filterUnits="userSpaceOnUse" color-interpolation-filters="sRGB">
<feFlood flood-opacity="0" result="BackgroundImageFix"/>
<feBlend mode="normal" in="SourceGraphic" in2="BackgroundImageFix" result="shape"/>
<feColorMatrix in="SourceAlpha" type="matrix" values="0 0 0 0 0 0 0 0 0 0 0 0 0 0 0 0 0 0 127 0" result="hardAlpha"/>
<feOffset/>
<feGaussianBlur stdDeviation="2"/>
<feComposite in2="hardAlpha" operator="arithmetic" k2="-1" k3="1"/>
<feColorMatrix type="matrix" values="0 0 0 0 1 0 0 0 0 0 0 0 0 0 0 0 0 0 1 0"/>
<feBlend mode="normal" in2="shape" result="effect1_innerShadow_202_9418"/>
</filter>
<filter id="filter13_i_202_9418" x="357.451" y="692.744" width="41.4194" height="29.531" filterUnits="userSpaceOnUse" color-interpolation-filters="sRGB">
<feFlood flood-opacity="0" result="BackgroundImageFix"/>
<feBlend mode="normal" in="SourceGraphic" in2="BackgroundImageFix" result="shape"/>
<feColorMatrix in="SourceAlpha" type="matrix" values="0 0 0 0 0 0 0 0 0 0 0 0 0 0 0 0 0 0 127 0" result="hardAlpha"/>
<feOffset/>
<feGaussianBlur stdDeviation="2"/>
<feComposite in2="hardAlpha" operator="arithmetic" k2="-1" k3="1"/>
<feColorMatrix type="matrix" values="0 0 0 0 1 0 0 0 0 0 0 0 0 0 0 0 0 0 1 0"/>
<feBlend mode="normal" in2="shape" result="effect1_innerShadow_202_9418"/>
</filter>
<filter id="filter14_i_202_9418" x="362.776" y="653.464" width="41.4189" height="29.6925" filterUnits="userSpaceOnUse" color-interpolation-filters="sRGB">
<feFlood flood-opacity="0" result="BackgroundImageFix"/>
<feBlend mode="normal" in="SourceGraphic" in2="BackgroundImageFix" result="shape"/>
<feColorMatrix in="SourceAlpha" type="matrix" values="0 0 0 0 0 0 0 0 0 0 0 0 0 0 0 0 0 0 127 0" result="hardAlpha"/>
<feOffset/>
<feGaussianBlur stdDeviation="2"/>
<feComposite in2="hardAlpha" operator="arithmetic" k2="-1" k3="1"/>
<feColorMatrix type="matrix" values="0 0 0 0 1 0 0 0 0 0 0 0 0 0 0 0 0 0 1 0"/>
<feBlend mode="normal" in2="shape" result="effect1_innerShadow_202_9418"/>
</filter>
<filter id="filter15_i_202_9418" x="346.603" y="664.597" width="29.4468" height="41.443" filterUnits="userSpaceOnUse" color-interpolation-filters="sRGB">
<feFlood flood-opacity="0" result="BackgroundImageFix"/>
<feBlend mode="normal" in="SourceGraphic" in2="BackgroundImageFix" result="shape"/>
<feColorMatrix in="SourceAlpha" type="matrix" values="0 0 0 0 0 0 0 0 0 0 0 0 0 0 0 0 0 0 127 0" result="hardAlpha"/>
<feOffset/>
<feGaussianBlur stdDeviation="2"/>
<feComposite in2="hardAlpha" operator="arithmetic" k2="-1" k3="1"/>
<feColorMatrix type="matrix" values="0 0 0 0 1 0 0 0 0 0 0 0 0 0 0 0 0 0 1 0"/>
<feBlend mode="normal" in2="shape" result="effect1_innerShadow_202_9418"/>
</filter>
<filter id="filter16_f_202_9418" x="153.035" y="652.799" width="54.3101" height="42.5114" filterUnits="userSpaceOnUse" color-interpolation-filters="sRGB">
<feFlood flood-opacity="0" result="BackgroundImageFix"/>
<feBlend mode="normal" in="SourceGraphic" in2="BackgroundImageFix" result="shape"/>
<feGaussianBlur stdDeviation="2" result="effect1_foregroundBlur_202_9418"/>
</filter>
<filter id="filter17_i_202_9418" x="60.9517" y="768.675" width="81.7158" height="81.7391" filterUnits="userSpaceOnUse" color-interpolation-filters="sRGB">
<feFlood flood-opacity="0" result="BackgroundImageFix"/>
<feBlend mode="normal" in="SourceGraphic" in2="BackgroundImageFix" result="shape"/>
<feColorMatrix in="SourceAlpha" type="matrix" values="0 0 0 0 0 0 0 0 0 0 0 0 0 0 0 0 0 0 127 0" result="hardAlpha"/>
<feMorphology radius="3" operator="erode" in="SourceAlpha" result="effect1_innerShadow_202_9418"/>
<feOffset/>
<feGaussianBlur stdDeviation="6.7"/>
<feComposite in2="hardAlpha" operator="arithmetic" k2="-1" k3="1"/>
<feColorMatrix type="matrix" values="0 0 0 0 1 0 0 0 0 0.483333 0 0 0 0 0.483333 0 0 0 1 0"/>
<feBlend mode="normal" in2="shape" result="effect1_innerShadow_202_9418"/>
</filter>
<filter id="filter18_i_202_9418" x="106.584" y="791.455" width="29.5007" height="41.4431" filterUnits="userSpaceOnUse" color-interpolation-filters="sRGB">
<feFlood flood-opacity="0" result="BackgroundImageFix"/>
<feBlend mode="normal" in="SourceGraphic" in2="BackgroundImageFix" result="shape"/>
<feColorMatrix in="SourceAlpha" type="matrix" values="0 0 0 0 0 0 0 0 0 0 0 0 0 0 0 0 0 0 127 0" result="hardAlpha"/>
<feOffset/>
<feGaussianBlur stdDeviation="2"/>
<feComposite in2="hardAlpha" operator="arithmetic" k2="-1" k3="1"/>
<feColorMatrix type="matrix" values="0 0 0 0 1 0 0 0 0 0 0 0 0 0 0 0 0 0 1 0"/>
<feBlend mode="normal" in2="shape" result="effect1_innerShadow_202_9418"/>
</filter>
<filter id="filter19_i_202_9418" x="78.438" y="814.338" width="41.4192" height="29.531" filterUnits="userSpaceOnUse" color-interpolation-filters="sRGB">
<feFlood flood-opacity="0" result="BackgroundImageFix"/>
<feBlend mode="normal" in="SourceGraphic" in2="BackgroundImageFix" result="shape"/>
<feColorMatrix in="SourceAlpha" type="matrix" values="0 0 0 0 0 0 0 0 0 0 0 0 0 0 0 0 0 0 127 0" result="hardAlpha"/>
<feOffset/>
<feGaussianBlur stdDeviation="2"/>
<feComposite in2="hardAlpha" operator="arithmetic" k2="-1" k3="1"/>
<feColorMatrix type="matrix" values="0 0 0 0 1 0 0 0 0 0 0 0 0 0 0 0 0 0 1 0"/>
<feBlend mode="normal" in2="shape" result="effect1_innerShadow_202_9418"/>
</filter>
<filter id="filter20_i_202_9418" x="83.7622" y="775.058" width="41.4192" height="29.6925" filterUnits="userSpaceOnUse" color-interpolation-filters="sRGB">
<feFlood flood-opacity="0" result="BackgroundImageFix"/>
<feBlend mode="normal" in="SourceGraphic" in2="BackgroundImageFix" result="shape"/>
<feColorMatrix in="SourceAlpha" type="matrix" values="0 0 0 0 0 0 0 0 0 0 0 0 0 0 0 0 0 0 127 0" result="hardAlpha"/>
<feOffset/>
<feGaussianBlur stdDeviation="2"/>
<feComposite in2="hardAlpha" operator="arithmetic" k2="-1" k3="1"/>
<feColorMatrix type="matrix" values="0 0 0 0 1 0 0 0 0 0 0 0 0 0 0 0 0 0 1 0"/>
<feBlend mode="normal" in2="shape" result="effect1_innerShadow_202_9418"/>
</filter>
<filter id="filter21_i_202_9418" x="67.5886" y="786.19" width="29.4468" height="41.443" filterUnits="userSpaceOnUse" color-interpolation-filters="sRGB">
<feFlood flood-opacity="0" result="BackgroundImageFix"/>
<feBlend mode="normal" in="SourceGraphic" in2="BackgroundImageFix" result="shape"/>
<feColorMatrix in="SourceAlpha" type="matrix" values="0 0 0 0 0 0 0 0 0 0 0 0 0 0 0 0 0 0 127 0" result="hardAlpha"/>
<feOffset/>
<feGaussianBlur stdDeviation="2"/>
<feComposite in2="hardAlpha" operator="arithmetic" k2="-1" k3="1"/>
<feColorMatrix type="matrix" values="0 0 0 0 1 0 0 0 0 0 0 0 0 0 0 0 0 0 1 0"/>
<feBlend mode="normal" in2="shape" result="effect1_innerShadow_202_9418"/>
</filter>
<filter id="filter22_f_202_9418" x="443.603" y="798.614" width="51.519" height="45.9661" filterUnits="userSpaceOnUse" color-interpolation-filters="sRGB">
<feFlood flood-opacity="0" result="BackgroundImageFix"/>
<feBlend mode="normal" in="SourceGraphic" in2="BackgroundImageFix" result="shape"/>
<feGaussianBlur stdDeviation="2" result="effect1_foregroundBlur_202_9418"/>
</filter>
<filter id="filter23_f_202_9418" x="228.703" y="852.986" width="42.2368" height="54.5372" filterUnits="userSpaceOnUse" color-interpolation-filters="sRGB">
<feFlood flood-opacity="0" result="BackgroundImageFix"/>
<feBlend mode="normal" in="SourceGraphic" in2="BackgroundImageFix" result="shape"/>
<feGaussianBlur stdDeviation="2" result="effect1_foregroundBlur_202_9418"/>
</filter>
<filter id="filter24_f_202_9418" x="702.59" y="934.432" width="46.5522" height="40.8027" filterUnits="userSpaceOnUse" color-interpolation-filters="sRGB">
<feFlood flood-opacity="0" result="BackgroundImageFix"/>
<feBlend mode="normal" in="SourceGraphic" in2="BackgroundImageFix" result="shape"/>
<feGaussianBlur stdDeviation="2" result="effect1_foregroundBlur_202_9418"/>
</filter>
<filter id="filter25_f_202_9418" x="171.506" y="370.292" width="35.2898" height="40.0117" filterUnits="userSpaceOnUse" color-interpolation-filters="sRGB">
<feFlood flood-opacity="0" result="BackgroundImageFix"/>
<feBlend mode="normal" in="SourceGraphic" in2="BackgroundImageFix" result="shape"/>
<feGaussianBlur stdDeviation="2" result="effect1_foregroundBlur_202_9418"/>
</filter>
<clipPath id="clip0_202_9418">
<rect width="1440" height="1024" fill="white"/>
</clipPath>
</defs>
</svg>
